<svg width="426" height="643" viewBox="0 0 426 643" fill="none" xmlns="http://www.w3.org/2000/svg">
<g filter="url(#filter0_d_1_308)">
<rect x="8" y="4" width="410" height="627" rx="12" fill="url(#paint0_linear_1_308)" shape-rendering="crispEdges"/>
<path d="M81.1108 105.2C82.6628 105.2 83.9508 105.72 84.9748 106.76C86.0148 107.784 86.5348 109.064 86.5348 110.6C86.5348 112.12 86.0148 113.4 84.9748 114.44C83.9508 115.48 82.6628 116 81.1108 116H77.2468V122H75.0148V105.2H81.1108ZM81.1108 113.912C82.0388 113.912 82.8068 113.6 83.4148 112.976C84.0228 112.336 84.3268 111.544 84.3268 110.6C84.3268 109.64 84.0228 108.848 83.4148 108.224C82.8068 107.6 82.0388 107.288 81.1108 107.288H77.2468V113.912H81.1108ZM90.7853 112.016C91.4733 110.528 92.7213 109.784 94.5293 109.784V111.968C93.5053 111.92 92.6253 112.192 91.8893 112.784C91.1533 113.376 90.7853 114.328 90.7853 115.64V122H88.6973V110H90.7853V112.016ZM106.044 120.488C104.812 121.704 103.316 122.312 101.556 122.312C99.796 122.312 98.3 121.704 97.068 120.488C95.852 119.272 95.244 117.776 95.244 116C95.244 114.224 95.852 112.728 97.068 111.512C98.3 110.296 99.796 109.688 101.556 109.688C103.316 109.688 104.812 110.296 106.044 111.512C107.276 112.728 107.892 114.224 107.892 116C107.892 117.776 107.276 119.272 106.044 120.488ZM101.556 120.272C102.756 120.272 103.764 119.864 104.58 119.048C105.396 118.232 105.804 117.216 105.804 116C105.804 114.784 105.396 113.768 104.58 112.952C103.764 112.136 102.756 111.728 101.556 111.728C100.372 111.728 99.372 112.136 98.556 112.952C97.74 113.768 97.332 114.784 97.332 116C97.332 117.216 97.74 118.232 98.556 119.048C99.372 119.864 100.372 120.272 101.556 120.272ZM116.076 106.904C113.964 106.728 112.908 107.64 112.908 109.64V110H116.076V112.016H112.908V122H110.82V112.016H108.9V110H110.82V109.64C110.82 108.024 111.268 106.8 112.164 105.968C113.076 105.136 114.38 104.776 116.076 104.888V106.904ZM118.474 116.96C118.682 118.032 119.17 118.864 119.938 119.456C120.722 120.048 121.682 120.344 122.818 120.344C124.402 120.344 125.554 119.76 126.274 118.592L128.05 119.6C126.882 121.408 125.122 122.312 122.77 122.312C120.866 122.312 119.314 121.72 118.114 120.536C116.93 119.336 116.338 117.824 116.338 116C116.338 114.192 116.922 112.688 118.09 111.488C119.258 110.288 120.77 109.688 122.626 109.688C124.386 109.688 125.818 110.312 126.922 111.56C128.042 112.792 128.602 114.28 128.602 116.024C128.602 116.328 128.578 116.64 128.53 116.96H118.474ZM122.626 111.656C121.506 111.656 120.578 111.976 119.842 112.616C119.106 113.24 118.65 114.08 118.474 115.136H126.49C126.314 114 125.866 113.136 125.146 112.544C124.426 111.952 123.586 111.656 122.626 111.656ZM132.333 113.24C132.333 113.704 132.565 114.08 133.029 114.368C133.493 114.64 134.053 114.864 134.709 115.04C135.365 115.2 136.021 115.392 136.677 115.616C137.333 115.824 137.893 116.192 138.357 116.72C138.821 117.232 139.053 117.896 139.053 118.712C139.053 119.8 138.629 120.672 137.781 121.328C136.949 121.984 135.877 122.312 134.565 122.312C133.397 122.312 132.397 122.056 131.565 121.544C130.733 121.032 130.141 120.352 129.789 119.504L131.589 118.472C131.781 119.048 132.141 119.504 132.669 119.84C133.197 120.176 133.829 120.344 134.565 120.344C135.253 120.344 135.821 120.216 136.269 119.96C136.717 119.688 136.941 119.272 136.941 118.712C136.941 118.248 136.709 117.88 136.245 117.608C135.781 117.32 135.221 117.096 134.565 116.936C133.909 116.76 133.253 116.56 132.597 116.336C131.941 116.112 131.381 115.744 130.917 115.232C130.453 114.72 130.221 114.064 130.221 113.264C130.221 112.224 130.621 111.368 131.421 110.696C132.237 110.024 133.253 109.688 134.469 109.688C135.445 109.688 136.309 109.912 137.061 110.36C137.829 110.792 138.405 111.4 138.789 112.184L137.037 113.168C136.605 112.144 135.749 111.632 134.469 111.632C133.877 111.632 133.373 111.776 132.957 112.064C132.541 112.336 132.333 112.728 132.333 113.24ZM142.575 113.24C142.575 113.704 142.807 114.08 143.271 114.368C143.735 114.64 144.295 114.864 144.951 115.04C145.607 115.2 146.263 115.392 146.919 115.616C147.575 115.824 148.135 116.192 148.599 116.72C149.063 117.232 149.295 117.896 149.295 118.712C149.295 119.8 148.871 120.672 148.023 121.328C147.191 121.984 146.119 122.312 144.807 122.312C143.639 122.312 142.639 122.056 141.807 121.544C140.975 121.032 140.383 120.352 140.031 119.504L141.831 118.472C142.023 119.048 142.383 119.504 142.911 119.84C143.439 120.176 144.071 120.344 144.807 120.344C145.495 120.344 146.063 120.216 146.511 119.96C146.959 119.688 147.183 119.272 147.183 118.712C147.183 118.248 146.951 117.88 146.487 117.608C146.023 117.32 145.463 117.096 144.807 116.936C144.151 116.76 143.495 116.56 142.839 116.336C142.183 116.112 141.623 115.744 141.159 115.232C140.695 114.72 140.463 114.064 140.463 113.264C140.463 112.224 140.863 111.368 141.663 110.696C142.479 110.024 143.495 109.688 144.711 109.688C145.687 109.688 146.551 109.912 147.303 110.36C148.071 110.792 148.647 111.4 149.031 112.184L147.279 113.168C146.847 112.144 145.991 111.632 144.711 111.632C144.119 111.632 143.615 111.776 143.199 112.064C142.783 112.336 142.575 112.728 142.575 113.24ZM152.706 107.816C152.306 107.816 151.97 107.68 151.698 107.408C151.426 107.136 151.29 106.808 151.29 106.424C151.29 106.04 151.426 105.712 151.698 105.44C151.97 105.152 152.306 105.008 152.706 105.008C153.09 105.008 153.418 105.152 153.69 105.44C153.962 105.712 154.098 106.04 154.098 106.424C154.098 106.808 153.962 107.136 153.69 107.408C153.418 107.68 153.09 107.816 152.706 107.816ZM151.65 122V110H153.738V122H151.65ZM167.052 120.488C165.82 121.704 164.324 122.312 162.564 122.312C160.804 122.312 159.308 121.704 158.076 120.488C156.86 119.272 156.252 117.776 156.252 116C156.252 114.224 156.86 112.728 158.076 111.512C159.308 110.296 160.804 109.688 162.564 109.688C164.324 109.688 165.82 110.296 167.052 111.512C168.284 112.728 168.9 114.224 168.9 116C168.9 117.776 168.284 119.272 167.052 120.488ZM162.564 120.272C163.764 120.272 164.772 119.864 165.588 119.048C166.404 118.232 166.812 117.216 166.812 116C166.812 114.784 166.404 113.768 165.588 112.952C164.772 112.136 163.764 111.728 162.564 111.728C161.38 111.728 160.38 112.136 159.564 112.952C158.748 113.768 158.34 114.784 158.34 116C158.34 117.216 158.748 118.232 159.564 119.048C160.38 119.864 161.38 120.272 162.564 120.272ZM177.337 109.688C178.745 109.688 179.873 110.136 180.721 111.032C181.569 111.912 181.993 113.112 181.993 114.632V122H179.905V114.752C179.905 113.776 179.641 113.024 179.113 112.496C178.585 111.952 177.857 111.68 176.929 111.68C175.889 111.68 175.049 112.008 174.409 112.664C173.769 113.304 173.449 114.296 173.449 115.64V122H171.361V110H173.449V111.728C174.297 110.368 175.593 109.688 177.337 109.688ZM194.844 110H196.932V122H194.844V119.936C193.804 121.52 192.292 122.312 190.308 122.312C188.628 122.312 187.196 121.704 186.012 120.488C184.828 119.256 184.236 117.76 184.236 116C184.236 114.24 184.828 112.752 186.012 111.536C187.196 110.304 188.628 109.688 190.308 109.688C192.292 109.688 193.804 110.48 194.844 112.064V110ZM190.572 120.296C191.788 120.296 192.804 119.888 193.62 119.072C194.436 118.24 194.844 117.216 194.844 116C194.844 114.784 194.436 113.768 193.62 112.952C192.804 112.12 191.788 111.704 190.572 111.704C189.372 111.704 188.364 112.12 187.548 112.952C186.732 113.768 186.324 114.784 186.324 116C186.324 117.216 186.732 118.24 187.548 119.072C188.364 119.888 189.372 120.296 190.572 120.296ZM200.096 122V104.48H202.184V122H200.096Z" fill="white"/>
<path d="M94.292 182.16C94.292 184.507 93.5454 186.413 92.052 187.88C90.5587 189.32 88.612 190.187 86.212 190.48V194H83.532V190.52C81.292 190.36 79.372 189.733 77.772 188.64C76.172 187.547 75.0254 186.067 74.332 184.2L79.092 181.44C79.9454 183.573 81.4254 184.787 83.532 185.08V178.16C83.5054 178.16 83.492 178.16 83.492 178.16L83.412 178.12C82.4787 177.773 81.7187 177.467 81.132 177.2C80.5454 176.933 79.852 176.547 79.052 176.04C78.2787 175.533 77.6654 175.013 77.212 174.48C76.7854 173.92 76.3987 173.213 76.052 172.36C75.732 171.507 75.572 170.573 75.572 169.56C75.572 167.213 76.332 165.333 77.852 163.92C79.3987 162.507 81.292 161.693 83.532 161.48V158H86.212V161.56C89.8387 161.987 92.3987 163.867 93.892 167.2L89.252 169.92C88.612 168.32 87.5987 167.347 86.212 167V173.68C88.692 174.667 90.3587 175.453 91.212 176.04C93.2654 177.507 94.292 179.547 94.292 182.16ZM81.052 169.6C81.052 170.187 81.2387 170.707 81.612 171.16C81.9854 171.587 82.6254 172.027 83.532 172.48V166.88C82.732 167.04 82.1187 167.36 81.692 167.84C81.2654 168.32 81.052 168.907 81.052 169.6ZM86.212 185C87.9187 184.627 88.772 183.693 88.772 182.2C88.772 181.533 88.5587 180.973 88.132 180.52C87.732 180.067 87.092 179.64 86.212 179.24V185ZM103.085 162H107.885V190H102.365V167.84L97.0852 169.32L95.7252 164.6L103.085 162ZM121.954 172.2C124.647 172.2 126.914 173.013 128.754 174.64C130.594 176.24 131.514 178.48 131.514 181.36C131.514 184.24 130.541 186.493 128.594 188.12C126.674 189.747 124.314 190.56 121.514 190.56C119.247 190.56 117.247 190.053 115.514 189.04C113.781 188.027 112.527 186.533 111.754 184.56L116.474 181.8C117.167 184.04 118.847 185.16 121.514 185.16C122.927 185.16 124.021 184.827 124.794 184.16C125.594 183.467 125.994 182.533 125.994 181.36C125.994 180.213 125.607 179.293 124.834 178.6C124.061 177.907 123.007 177.56 121.674 177.56H113.194L114.314 162H130.194V167.16H119.434L119.074 172.2H121.954ZM136.268 194H133.988L149.988 158H152.268L136.268 194ZM178.085 169.44C180.379 169.44 182.205 170.187 183.565 171.68C184.952 173.173 185.645 175.173 185.645 177.68V190H180.485V178.04C180.485 176.84 180.192 175.907 179.605 175.24C179.019 174.573 178.192 174.24 177.125 174.24C175.952 174.24 175.032 174.627 174.365 175.4C173.725 176.173 173.405 177.293 173.405 178.76V190H168.245V178.04C168.245 176.84 167.952 175.907 167.365 175.24C166.779 174.573 165.952 174.24 164.885 174.24C163.739 174.24 162.819 174.627 162.125 175.4C161.459 176.173 161.125 177.293 161.125 178.76V190H155.965V170H161.125V172.12C162.325 170.333 164.179 169.44 166.685 169.44C169.139 169.44 170.952 170.4 172.125 172.32C173.459 170.4 175.445 169.44 178.085 169.44ZM207.068 187.52C205.015 189.547 202.508 190.56 199.548 190.56C196.588 190.56 194.081 189.547 192.028 187.52C190.001 185.467 188.988 182.96 188.988 180C188.988 177.04 190.001 174.547 192.028 172.52C194.081 170.467 196.588 169.44 199.548 169.44C202.508 169.44 205.015 170.467 207.068 172.52C209.121 174.547 210.148 177.04 210.148 180C210.148 182.96 209.121 185.467 207.068 187.52ZM195.668 183.96C196.708 185 198.001 185.52 199.548 185.52C201.095 185.52 202.388 185 203.428 183.96C204.468 182.92 204.988 181.6 204.988 180C204.988 178.4 204.468 177.08 203.428 176.04C202.388 175 201.095 174.48 199.548 174.48C198.001 174.48 196.708 175 195.668 176.04C194.655 177.08 194.148 178.4 194.148 180C194.148 181.6 194.655 182.92 195.668 183.96ZM224.898 169.44C227.085 169.44 228.885 170.173 230.298 171.64C231.738 173.107 232.458 175.133 232.458 177.72V190H227.298V178.36C227.298 177.027 226.938 176.013 226.218 175.32C225.498 174.6 224.538 174.24 223.338 174.24C222.005 174.24 220.938 174.653 220.138 175.48C219.338 176.307 218.938 177.547 218.938 179.2V190H213.778V170H218.938V172.24C220.191 170.373 222.178 169.44 224.898 169.44ZM248.304 174.96H243.784V183.28C243.784 183.973 243.957 184.48 244.304 184.8C244.651 185.12 245.157 185.307 245.824 185.36C246.491 185.387 247.317 185.373 248.304 185.32V190C244.757 190.4 242.251 190.067 240.784 189C239.344 187.933 238.624 186.027 238.624 183.28V174.96H235.144V170H238.624V165.96L243.784 164.4V170H248.304V174.96ZM263.062 169.44C265.249 169.44 267.049 170.173 268.462 171.64C269.902 173.107 270.622 175.133 270.622 177.72V190H265.462V178.36C265.462 177.027 265.102 176.013 264.382 175.32C263.662 174.6 262.702 174.24 261.502 174.24C260.169 174.24 259.102 174.653 258.302 175.48C257.502 176.307 257.102 177.547 257.102 179.2V190H251.942V162H257.102V172.24C258.355 170.373 260.342 169.44 263.062 169.44Z" fill="white"/>
<path d="M74.5078 218H76.3678V232H74.5078V218ZM87.4711 218H89.2111V232H87.4711V230.28C86.6044 231.6 85.3444 232.26 83.6911 232.26C82.2911 232.26 81.0978 231.753 80.1111 230.74C79.1244 229.713 78.6311 228.467 78.6311 227C78.6311 225.533 79.1244 224.293 80.1111 223.28C81.0978 222.253 82.2911 221.74 83.6911 221.74C85.3444 221.74 86.6044 222.4 87.4711 223.72V218ZM83.9111 230.58C84.9244 230.58 85.7711 230.24 86.4511 229.56C87.1311 228.867 87.4711 228.013 87.4711 227C87.4711 225.987 87.1311 225.14 86.4511 224.46C85.7711 223.767 84.9244 223.42 83.9111 223.42C82.9111 223.42 82.0711 223.767 81.3911 224.46C80.7111 225.14 80.3711 225.987 80.3711 227C80.3711 228.013 80.7111 228.867 81.3911 229.56C82.0711 230.24 82.9111 230.58 83.9111 230.58ZM93.0673 227.8C93.2407 228.693 93.6473 229.387 94.2873 229.88C94.9407 230.373 95.7407 230.62 96.6873 230.62C98.0073 230.62 98.9673 230.133 99.5673 229.16L101.047 230C100.074 231.507 98.6073 232.26 96.6473 232.26C95.0607 232.26 93.7673 231.767 92.7673 230.78C91.7807 229.78 91.2873 228.52 91.2873 227C91.2873 225.493 91.774 224.24 92.7473 223.24C93.7207 222.24 94.9807 221.74 96.5273 221.74C97.994 221.74 99.1873 222.26 100.107 223.3C101.041 224.327 101.507 225.567 101.507 227.02C101.507 227.273 101.487 227.533 101.447 227.8H93.0673ZM96.5273 223.38C95.594 223.38 94.8207 223.647 94.2073 224.18C93.594 224.7 93.214 225.4 93.0673 226.28H99.7473C99.6007 225.333 99.2273 224.613 98.6273 224.12C98.0273 223.627 97.3273 223.38 96.5273 223.38ZM111.768 222H113.508V232H111.768V230.28C110.901 231.6 109.641 232.26 107.988 232.26C106.588 232.26 105.395 231.753 104.408 230.74C103.421 229.713 102.928 228.467 102.928 227C102.928 225.533 103.421 224.293 104.408 223.28C105.395 222.253 106.588 221.74 107.988 221.74C109.641 221.74 110.901 222.4 111.768 223.72V222ZM108.208 230.58C109.221 230.58 110.068 230.24 110.748 229.56C111.428 228.867 111.768 228.013 111.768 227C111.768 225.987 111.428 225.14 110.748 224.46C110.068 223.767 109.221 223.42 108.208 223.42C107.208 223.42 106.368 223.767 105.688 224.46C105.008 225.14 104.668 225.987 104.668 227C104.668 228.013 105.008 228.867 105.688 229.56C106.368 230.24 107.208 230.58 108.208 230.58ZM116.144 232V217.4H117.884V232H116.144ZM130.679 219.42C128.919 219.273 128.039 220.033 128.039 221.7V222H130.679V223.68H128.039V232H126.299V223.68H124.699V222H126.299V221.7C126.299 220.353 126.672 219.333 127.419 218.64C128.179 217.947 129.265 217.647 130.679 217.74V219.42ZM139.897 230.74C138.87 231.753 137.623 232.26 136.157 232.26C134.69 232.26 133.443 231.753 132.417 230.74C131.403 229.727 130.897 228.48 130.897 227C130.897 225.52 131.403 224.273 132.417 223.26C133.443 222.247 134.69 221.74 136.157 221.74C137.623 221.74 138.87 222.247 139.897 223.26C140.923 224.273 141.437 225.52 141.437 227C141.437 228.48 140.923 229.727 139.897 230.74ZM136.157 230.56C137.157 230.56 137.997 230.22 138.677 229.54C139.357 228.86 139.697 228.013 139.697 227C139.697 225.987 139.357 225.14 138.677 224.46C137.997 223.78 137.157 223.44 136.157 223.44C135.17 223.44 134.337 223.78 133.657 224.46C132.977 225.14 132.637 225.987 132.637 227C132.637 228.013 132.977 228.86 133.657 229.54C134.337 230.22 135.17 230.56 136.157 230.56ZM145.228 223.68C145.801 222.44 146.841 221.82 148.348 221.82V223.64C147.495 223.6 146.761 223.827 146.148 224.32C145.535 224.813 145.228 225.607 145.228 226.7V232H143.488V222H145.228V223.68ZM160.57 221.74C161.97 221.74 163.164 222.253 164.15 223.28C165.137 224.293 165.63 225.533 165.63 227C165.63 228.467 165.137 229.713 164.15 230.74C163.164 231.753 161.97 232.26 160.57 232.26C158.917 232.26 157.657 231.6 156.79 230.28V232H155.05V218H156.79V223.72C157.657 222.4 158.917 221.74 160.57 221.74ZM160.35 230.58C161.35 230.58 162.19 230.24 162.87 229.56C163.55 228.867 163.89 228.013 163.89 227C163.89 225.987 163.55 225.14 162.87 224.46C162.19 223.767 161.35 223.42 160.35 223.42C159.337 223.42 158.49 223.767 157.81 224.46C157.13 225.14 156.79 225.987 156.79 227C156.79 228.013 157.13 228.867 157.81 229.56C158.49 230.24 159.337 230.58 160.35 230.58ZM174.607 222H176.347V232H174.607V230.56C173.9 231.693 172.82 232.26 171.367 232.26C170.193 232.26 169.253 231.893 168.547 231.16C167.84 230.413 167.487 229.407 167.487 228.14V222H169.227V228.04C169.227 228.853 169.447 229.487 169.887 229.94C170.327 230.38 170.933 230.6 171.707 230.6C172.573 230.6 173.273 230.333 173.807 229.8C174.34 229.253 174.607 228.42 174.607 227.3V222ZM180.476 224.7C180.476 225.087 180.67 225.4 181.056 225.64C181.443 225.867 181.91 226.053 182.456 226.2C183.003 226.333 183.55 226.493 184.096 226.68C184.643 226.853 185.11 227.16 185.496 227.6C185.883 228.027 186.076 228.58 186.076 229.26C186.076 230.167 185.723 230.893 185.016 231.44C184.323 231.987 183.43 232.26 182.336 232.26C181.363 232.26 180.53 232.047 179.836 231.62C179.143 231.193 178.65 230.627 178.356 229.92L179.856 229.06C180.016 229.54 180.316 229.92 180.756 230.2C181.196 230.48 181.723 230.62 182.336 230.62C182.91 230.62 183.383 230.513 183.756 230.3C184.13 230.073 184.316 229.727 184.316 229.26C184.316 228.873 184.123 228.567 183.736 228.34C183.35 228.1 182.883 227.913 182.336 227.78C181.79 227.633 181.243 227.467 180.696 227.28C180.15 227.093 179.683 226.787 179.296 226.36C178.91 225.933 178.716 225.387 178.716 224.72C178.716 223.853 179.05 223.14 179.716 222.58C180.396 222.02 181.243 221.74 182.256 221.74C183.07 221.74 183.79 221.927 184.416 222.3C185.056 222.66 185.536 223.167 185.856 223.82L184.396 224.64C184.036 223.787 183.323 223.36 182.256 223.36C181.763 223.36 181.343 223.48 180.996 223.72C180.65 223.947 180.476 224.273 180.476 224.7ZM188.919 220.18C188.585 220.18 188.305 220.067 188.079 219.84C187.852 219.613 187.739 219.34 187.739 219.02C187.739 218.7 187.852 218.427 188.079 218.2C188.305 217.96 188.585 217.84 188.919 217.84C189.239 217.84 189.512 217.96 189.739 218.2C189.965 218.427 190.079 218.7 190.079 219.02C190.079 219.34 189.965 219.613 189.739 219.84C189.512 220.067 189.239 220.18 188.919 220.18ZM188.039 232V222H189.779V232H188.039ZM197.413 221.74C198.587 221.74 199.527 222.113 200.233 222.86C200.94 223.593 201.293 224.593 201.293 225.86V232H199.553V225.96C199.553 225.147 199.333 224.52 198.893 224.08C198.453 223.627 197.847 223.4 197.073 223.4C196.207 223.4 195.507 223.673 194.973 224.22C194.44 224.753 194.173 225.58 194.173 226.7V232H192.433V222H194.173V223.44C194.88 222.307 195.96 221.74 197.413 221.74ZM204.942 227.8C205.116 228.693 205.522 229.387 206.162 229.88C206.816 230.373 207.616 230.62 208.562 230.62C209.882 230.62 210.842 230.133 211.442 229.16L212.922 230C211.949 231.507 210.482 232.26 208.522 232.26C206.936 232.26 205.642 231.767 204.642 230.78C203.656 229.78 203.162 228.52 203.162 227C203.162 225.493 203.649 224.24 204.622 223.24C205.596 222.24 206.856 221.74 208.402 221.74C209.869 221.74 211.062 222.26 211.982 223.3C212.916 224.327 213.382 225.567 213.382 227.02C213.382 227.273 213.362 227.533 213.322 227.8H204.942ZM208.402 223.38C207.469 223.38 206.696 223.647 206.082 224.18C205.469 224.7 205.089 225.4 204.942 226.28H211.622C211.476 225.333 211.102 224.613 210.502 224.12C209.902 223.627 209.202 223.38 208.402 223.38ZM216.492 224.7C216.492 225.087 216.685 225.4 217.072 225.64C217.459 225.867 217.925 226.053 218.472 226.2C219.019 226.333 219.565 226.493 220.112 226.68C220.659 226.853 221.125 227.16 221.512 227.6C221.899 228.027 222.092 228.58 222.092 229.26C222.092 230.167 221.739 230.893 221.032 231.44C220.339 231.987 219.445 232.26 218.352 232.26C217.379 232.26 216.545 232.047 215.852 231.62C215.159 231.193 214.665 230.627 214.372 229.92L215.872 229.06C216.032 229.54 216.332 229.92 216.772 230.2C217.212 230.48 217.739 230.62 218.352 230.62C218.925 230.62 219.399 230.513 219.772 230.3C220.145 230.073 220.332 229.727 220.332 229.26C220.332 228.873 220.139 228.567 219.752 228.34C219.365 228.1 218.899 227.913 218.352 227.78C217.805 227.633 217.259 227.467 216.712 227.28C216.165 227.093 215.699 226.787 215.312 226.36C214.925 225.933 214.732 225.387 214.732 224.72C214.732 223.853 215.065 223.14 215.732 222.58C216.412 222.02 217.259 221.74 218.272 221.74C219.085 221.74 219.805 221.927 220.432 222.3C221.072 222.66 221.552 223.167 221.872 223.82L220.412 224.64C220.052 223.787 219.339 223.36 218.272 223.36C217.779 223.36 217.359 223.48 217.012 223.72C216.665 223.947 216.492 224.273 216.492 224.7ZM225.027 224.7C225.027 225.087 225.22 225.4 225.607 225.64C225.994 225.867 226.46 226.053 227.007 226.2C227.554 226.333 228.1 226.493 228.647 226.68C229.194 226.853 229.66 227.16 230.047 227.6C230.434 228.027 230.627 228.58 230.627 229.26C230.627 230.167 230.274 230.893 229.567 231.44C228.874 231.987 227.98 232.26 226.887 232.26C225.914 232.26 225.08 232.047 224.387 231.62C223.694 231.193 223.2 230.627 222.907 229.92L224.407 229.06C224.567 229.54 224.867 229.92 225.307 230.2C225.747 230.48 226.274 230.62 226.887 230.62C227.46 230.62 227.934 230.513 228.307 230.3C228.68 230.073 228.867 229.727 228.867 229.26C228.867 228.873 228.674 228.567 228.287 228.34C227.9 228.1 227.434 227.913 226.887 227.78C226.34 227.633 225.794 227.467 225.247 227.28C224.7 227.093 224.234 226.787 223.847 226.36C223.46 225.933 223.267 225.387 223.267 224.72C223.267 223.853 223.6 223.14 224.267 222.58C224.947 222.02 225.794 221.74 226.807 221.74C227.62 221.74 228.34 221.927 228.967 222.3C229.607 222.66 230.087 223.167 230.407 223.82L228.947 224.64C228.587 223.787 227.874 223.36 226.807 223.36C226.314 223.36 225.894 223.48 225.547 223.72C225.2 223.947 225.027 224.273 225.027 224.7ZM242.387 232.26C240.881 232.26 239.627 231.76 238.627 230.76C237.627 229.747 237.127 228.493 237.127 227C237.127 225.507 237.627 224.26 238.627 223.26C239.627 222.247 240.881 221.74 242.387 221.74C243.374 221.74 244.261 221.98 245.047 222.46C245.834 222.927 246.421 223.56 246.807 224.36L245.347 225.2C245.094 224.667 244.701 224.24 244.167 223.92C243.647 223.6 243.054 223.44 242.387 223.44C241.387 223.44 240.547 223.78 239.867 224.46C239.201 225.14 238.867 225.987 238.867 227C238.867 228 239.201 228.84 239.867 229.52C240.547 230.2 241.387 230.54 242.387 230.54C243.054 230.54 243.654 230.387 244.187 230.08C244.721 229.76 245.127 229.333 245.407 228.8L246.887 229.66C246.461 230.447 245.847 231.08 245.047 231.56C244.247 232.027 243.361 232.26 242.387 232.26ZM250.365 223.68C250.938 222.44 251.978 221.82 253.485 221.82V223.64C252.631 223.6 251.898 223.827 251.285 224.32C250.671 224.813 250.365 225.607 250.365 226.7V232H248.625V222H250.365V223.68ZM255.86 227.8C256.034 228.693 256.44 229.387 257.08 229.88C257.734 230.373 258.534 230.62 259.48 230.62C260.8 230.62 261.76 230.133 262.36 229.16L263.84 230C262.867 231.507 261.4 232.26 259.44 232.26C257.854 232.26 256.56 231.767 255.56 230.78C254.574 229.78 254.08 228.52 254.08 227C254.08 225.493 254.567 224.24 255.54 223.24C256.514 222.24 257.774 221.74 259.32 221.74C260.787 221.74 261.98 222.26 262.9 223.3C263.834 224.327 264.3 225.567 264.3 227.02C264.3 227.273 264.28 227.533 264.24 227.8H255.86ZM259.32 223.38C258.387 223.38 257.614 223.647 257 224.18C256.387 224.7 256.007 225.4 255.86 226.28H262.54C262.394 225.333 262.02 224.613 261.42 224.12C260.82 223.627 260.12 223.38 259.32 223.38ZM274.561 222H276.301V232H274.561V230.28C273.694 231.6 272.434 232.26 270.781 232.26C269.381 232.26 268.188 231.753 267.201 230.74C266.214 229.713 265.721 228.467 265.721 227C265.721 225.533 266.214 224.293 267.201 223.28C268.188 222.253 269.381 221.74 270.781 221.74C272.434 221.74 273.694 222.4 274.561 223.72V222ZM271.001 230.58C272.014 230.58 272.861 230.24 273.541 229.56C274.221 228.867 274.561 228.013 274.561 227C274.561 225.987 274.221 225.14 273.541 224.46C272.861 223.767 272.014 223.42 271.001 223.42C270.001 223.42 269.161 223.767 268.481 224.46C267.801 225.14 267.461 225.987 267.461 227C267.461 228.013 267.801 228.867 268.481 229.56C269.161 230.24 270.001 230.58 271.001 230.58ZM284.377 223.68H281.717V229.1C281.717 229.593 281.811 229.947 281.997 230.16C282.197 230.36 282.497 230.467 282.897 230.48C283.297 230.48 283.791 230.467 284.377 230.44V232C282.857 232.2 281.744 232.08 281.037 231.64C280.331 231.187 279.977 230.34 279.977 229.1V223.68H277.997V222H279.977V219.72L281.717 219.2V222H284.377V223.68ZM294.369 230.74C293.343 231.753 292.096 232.26 290.629 232.26C289.163 232.26 287.916 231.753 286.889 230.74C285.876 229.727 285.369 228.48 285.369 227C285.369 225.52 285.876 224.273 286.889 223.26C287.916 222.247 289.163 221.74 290.629 221.74C292.096 221.74 293.343 222.247 294.369 223.26C295.396 224.273 295.909 225.52 295.909 227C295.909 228.48 295.396 229.727 294.369 230.74ZM290.629 230.56C291.629 230.56 292.469 230.22 293.149 229.54C293.829 228.86 294.169 228.013 294.169 227C294.169 225.987 293.829 225.14 293.149 224.46C292.469 223.78 291.629 223.44 290.629 223.44C289.643 223.44 288.809 223.78 288.129 224.46C287.449 225.14 287.109 225.987 287.109 227C287.109 228.013 287.449 228.86 288.129 229.54C288.809 230.22 289.643 230.56 290.629 230.56ZM299.701 223.68C300.274 222.44 301.314 221.82 302.821 221.82V223.64C301.967 223.6 301.234 223.827 300.621 224.32C300.007 224.813 299.701 225.607 299.701 226.7V232H297.961V222H299.701V223.68ZM305.652 224.7C305.652 225.087 305.845 225.4 306.232 225.64C306.619 225.867 307.085 226.053 307.632 226.2C308.179 226.333 308.725 226.493 309.272 226.68C309.819 226.853 310.285 227.16 310.672 227.6C311.059 228.027 311.252 228.58 311.252 229.26C311.252 230.167 310.899 230.893 310.192 231.44C309.499 231.987 308.605 232.26 307.512 232.26C306.539 232.26 305.705 232.047 305.012 231.62C304.319 231.193 303.825 230.627 303.532 229.92L305.032 229.06C305.192 229.54 305.492 229.92 305.932 230.2C306.372 230.48 306.899 230.62 307.512 230.62C308.085 230.62 308.559 230.513 308.932 230.3C309.305 230.073 309.492 229.727 309.492 229.26C309.492 228.873 309.299 228.567 308.912 228.34C308.525 228.1 308.059 227.913 307.512 227.78C306.965 227.633 306.419 227.467 305.872 227.28C305.325 227.093 304.859 226.787 304.472 226.36C304.085 225.933 303.892 225.387 303.892 224.72C303.892 223.853 304.225 223.14 304.892 222.58C305.572 222.02 306.419 221.74 307.432 221.74C308.245 221.74 308.965 221.927 309.592 222.3C310.232 222.66 310.712 223.167 311.032 223.82L309.572 224.64C309.212 223.787 308.499 223.36 307.432 223.36C306.939 223.36 306.519 223.48 306.172 223.72C305.825 223.947 305.652 224.273 305.652 224.7Z" fill="white"/>
<g clip-path="url(#clip0_1_308)">
<path d="M87.6667 278.387V279C87.6658 280.438 87.2003 281.836 86.3396 282.988C85.4788 284.139 84.2689 284.982 82.8902 285.389C81.5116 285.797 80.0382 285.748 78.6896 285.25C77.3411 284.752 76.1898 283.831 75.4073 282.625C74.6248 281.419 74.2532 279.992 74.3478 278.558C74.4424 277.123 74.9981 275.758 75.9322 274.665C76.8662 273.572 78.1285 272.81 79.5308 272.493C80.9331 272.177 82.4002 272.322 83.7133 272.907" stroke="white" stroke-width="2" stroke-linecap="round" stroke-linejoin="round"/>
<path d="M87.6667 273.667L81 280.34L79 278.34" stroke="white" stroke-width="2" stroke-linecap="round" stroke-linejoin="round"/>
</g>
<path d="M99.4624 281.768H104.012V283H98.1604V273.2H103.942V274.432H99.4624V277.442H103.592V278.66H99.4624V281.768ZM108.944 275.818C109.766 275.818 110.424 276.079 110.918 276.602C111.413 277.115 111.66 277.815 111.66 278.702V283H110.442V278.772C110.442 278.203 110.288 277.764 109.98 277.456C109.672 277.139 109.248 276.98 108.706 276.98C108.1 276.98 107.61 277.171 107.236 277.554C106.863 277.927 106.676 278.506 106.676 279.29V283H105.458V276H106.676V277.008C107.171 276.215 107.927 275.818 108.944 275.818ZM116.847 275.818C117.668 275.818 118.326 276.079 118.821 276.602C119.315 277.115 119.563 277.815 119.563 278.702V283H118.345V278.772C118.345 278.203 118.191 277.764 117.883 277.456C117.575 277.139 117.15 276.98 116.609 276.98C116.002 276.98 115.512 277.171 115.139 277.554C114.765 277.927 114.579 278.506 114.579 279.29V283H113.361V273.2H114.579V277.008C115.073 276.215 115.829 275.818 116.847 275.818ZM127.059 276H128.277V283H127.059V281.796C126.452 282.72 125.57 283.182 124.413 283.182C123.433 283.182 122.598 282.827 121.907 282.118C121.216 281.399 120.871 280.527 120.871 279.5C120.871 278.473 121.216 277.605 121.907 276.896C122.598 276.177 123.433 275.818 124.413 275.818C125.57 275.818 126.452 276.28 127.059 277.204V276ZM124.567 282.006C125.276 282.006 125.869 281.768 126.345 281.292C126.821 280.807 127.059 280.209 127.059 279.5C127.059 278.791 126.821 278.198 126.345 277.722C125.869 277.237 125.276 276.994 124.567 276.994C123.867 276.994 123.279 277.237 122.803 277.722C122.327 278.198 122.089 278.791 122.089 279.5C122.089 280.209 122.327 280.807 122.803 281.292C123.279 281.768 123.867 282.006 124.567 282.006ZM133.608 275.818C134.43 275.818 135.088 276.079 135.582 276.602C136.077 277.115 136.324 277.815 136.324 278.702V283H135.106V278.772C135.106 278.203 134.952 277.764 134.644 277.456C134.336 277.139 133.912 276.98 133.37 276.98C132.764 276.98 132.274 277.171 131.9 277.554C131.527 277.927 131.34 278.506 131.34 279.29V283H130.122V276H131.34V277.008C131.835 276.215 132.591 275.818 133.608 275.818ZM141.315 283.182C140.26 283.182 139.383 282.832 138.683 282.132C137.983 281.423 137.633 280.545 137.633 279.5C137.633 278.455 137.983 277.582 138.683 276.882C139.383 276.173 140.26 275.818 141.315 275.818C142.005 275.818 142.626 275.986 143.177 276.322C143.727 276.649 144.138 277.092 144.409 277.652L143.387 278.24C143.209 277.867 142.934 277.568 142.561 277.344C142.197 277.12 141.781 277.008 141.315 277.008C140.615 277.008 140.027 277.246 139.551 277.722C139.084 278.198 138.851 278.791 138.851 279.5C138.851 280.2 139.084 280.788 139.551 281.264C140.027 281.74 140.615 281.978 141.315 281.978C141.781 281.978 142.201 281.871 142.575 281.656C142.948 281.432 143.233 281.133 143.429 280.76L144.465 281.362C144.166 281.913 143.737 282.356 143.177 282.692C142.617 283.019 141.996 283.182 141.315 283.182ZM146.425 280.06C146.547 280.685 146.831 281.171 147.279 281.516C147.737 281.861 148.297 282.034 148.959 282.034C149.883 282.034 150.555 281.693 150.975 281.012L152.011 281.6C151.33 282.655 150.303 283.182 148.931 283.182C147.821 283.182 146.915 282.837 146.215 282.146C145.525 281.446 145.179 280.564 145.179 279.5C145.179 278.445 145.52 277.568 146.201 276.868C146.883 276.168 147.765 275.818 148.847 275.818C149.874 275.818 150.709 276.182 151.353 276.91C152.007 277.629 152.333 278.497 152.333 279.514C152.333 279.691 152.319 279.873 152.291 280.06H146.425ZM148.847 276.966C148.194 276.966 147.653 277.153 147.223 277.526C146.794 277.89 146.528 278.38 146.425 278.996H151.101C150.999 278.333 150.737 277.829 150.317 277.484C149.897 277.139 149.407 276.966 148.847 276.966ZM159.516 273.2H160.734V283H159.516V281.796C158.909 282.72 158.027 283.182 156.87 283.182C155.89 283.182 155.055 282.827 154.364 282.118C153.673 281.399 153.328 280.527 153.328 279.5C153.328 278.473 153.673 277.605 154.364 276.896C155.055 276.177 155.89 275.818 156.87 275.818C158.027 275.818 158.909 276.28 159.516 277.204V273.2ZM157.024 282.006C157.733 282.006 158.326 281.768 158.802 281.292C159.278 280.807 159.516 280.209 159.516 279.5C159.516 278.791 159.278 278.198 158.802 277.722C158.326 277.237 157.733 276.994 157.024 276.994C156.324 276.994 155.736 277.237 155.26 277.722C154.784 278.198 154.546 278.791 154.546 279.5C154.546 280.209 154.784 280.807 155.26 281.292C155.736 281.768 156.324 282.006 157.024 282.006ZM167.507 281.768H171.735V283H166.205V273.2H167.507V281.768ZM173.531 274.726C173.298 274.726 173.102 274.647 172.943 274.488C172.785 274.329 172.705 274.138 172.705 273.914C172.705 273.69 172.785 273.499 172.943 273.34C173.102 273.172 173.298 273.088 173.531 273.088C173.755 273.088 173.947 273.172 174.105 273.34C174.264 273.499 174.343 273.69 174.343 273.914C174.343 274.138 174.264 274.329 174.105 274.488C173.947 274.647 173.755 274.726 173.531 274.726ZM172.915 283V276H174.133V283H172.915ZM179.477 275.818C180.299 275.818 180.957 276.079 181.451 276.602C181.946 277.115 182.193 277.815 182.193 278.702V283H180.975V278.772C180.975 278.203 180.821 277.764 180.513 277.456C180.205 277.139 179.781 276.98 179.239 276.98C178.633 276.98 178.143 277.171 177.769 277.554C177.396 277.927 177.209 278.506 177.209 279.29V283H175.991V276H177.209V277.008C177.704 276.215 178.46 275.818 179.477 275.818ZM189.816 283H188.304L185.112 279.682V283H183.894V273.2H185.112V279.094L188.136 276H189.704L186.358 279.388L189.816 283ZM201.028 283L200.23 280.802H195.82L195.022 283H193.636L197.29 273.2H198.76L202.414 283H201.028ZM196.268 279.584H199.782L198.018 274.754L196.268 279.584ZM206.931 275.818C207.752 275.818 208.41 276.079 208.905 276.602C209.399 277.115 209.647 277.815 209.647 278.702V283H208.429V278.772C208.429 278.203 208.275 277.764 207.967 277.456C207.659 277.139 207.234 276.98 206.693 276.98C206.086 276.98 205.596 277.171 205.223 277.554C204.849 277.927 204.663 278.506 204.663 279.29V283H203.445V276H204.663V277.008C205.157 276.215 205.913 275.818 206.931 275.818ZM217.143 276H218.361V283H217.143V281.796C216.536 282.72 215.654 283.182 214.497 283.182C213.517 283.182 212.682 282.827 211.991 282.118C211.3 281.399 210.955 280.527 210.955 279.5C210.955 278.473 211.3 277.605 211.991 276.896C212.682 276.177 213.517 275.818 214.497 275.818C215.654 275.818 216.536 276.28 217.143 277.204V276ZM214.651 282.006C215.36 282.006 215.953 281.768 216.429 281.292C216.905 280.807 217.143 280.209 217.143 279.5C217.143 278.791 216.905 278.198 216.429 277.722C215.953 277.237 215.36 276.994 214.651 276.994C213.951 276.994 213.363 277.237 212.887 277.722C212.411 278.198 212.173 278.791 212.173 279.5C212.173 280.209 212.411 280.807 212.887 281.292C213.363 281.768 213.951 282.006 214.651 282.006ZM220.206 283V272.78H221.424V283H220.206ZM228.168 276H229.47L226.614 283.434C226.316 284.227 225.896 284.829 225.354 285.24C224.822 285.66 224.206 285.847 223.506 285.8V284.666C224.365 284.731 224.995 284.255 225.396 283.238L225.522 282.972L222.47 276H223.772L226.152 281.488L228.168 276ZM234.295 277.176H232.433V280.97C232.433 281.315 232.499 281.563 232.629 281.712C232.769 281.852 232.979 281.927 233.259 281.936C233.539 281.936 233.885 281.927 234.295 281.908V283C233.231 283.14 232.452 283.056 231.957 282.748C231.463 282.431 231.215 281.838 231.215 280.97V277.176H229.829V276H231.215V274.404L232.433 274.04V276H234.295V277.176ZM236.353 274.726C236.12 274.726 235.924 274.647 235.765 274.488C235.607 274.329 235.527 274.138 235.527 273.914C235.527 273.69 235.607 273.499 235.765 273.34C235.924 273.172 236.12 273.088 236.353 273.088C236.577 273.088 236.769 273.172 236.927 273.34C237.086 273.499 237.165 273.69 237.165 273.914C237.165 274.138 237.086 274.329 236.927 274.488C236.769 274.647 236.577 274.726 236.353 274.726ZM235.737 283V276H236.955V283H235.737ZM242.104 283.182C241.049 283.182 240.172 282.832 239.472 282.132C238.772 281.423 238.422 280.545 238.422 279.5C238.422 278.455 238.772 277.582 239.472 276.882C240.172 276.173 241.049 275.818 242.104 275.818C242.794 275.818 243.415 275.986 243.966 276.322C244.516 276.649 244.927 277.092 245.198 277.652L244.176 278.24C243.998 277.867 243.723 277.568 243.35 277.344C242.986 277.12 242.57 277.008 242.104 277.008C241.404 277.008 240.816 277.246 240.34 277.722C239.873 278.198 239.64 278.791 239.64 279.5C239.64 280.2 239.873 280.788 240.34 281.264C240.816 281.74 241.404 281.978 242.104 281.978C242.57 281.978 242.99 281.871 243.364 281.656C243.737 281.432 244.022 281.133 244.218 280.76L245.254 281.362C244.955 281.913 244.526 282.356 243.966 282.692C243.406 283.019 242.785 283.182 242.104 283.182ZM247.452 277.89C247.452 278.161 247.587 278.38 247.858 278.548C248.128 278.707 248.455 278.837 248.838 278.94C249.22 279.033 249.603 279.145 249.986 279.276C250.368 279.397 250.695 279.612 250.966 279.92C251.236 280.219 251.372 280.606 251.372 281.082C251.372 281.717 251.124 282.225 250.63 282.608C250.144 282.991 249.519 283.182 248.754 283.182C248.072 283.182 247.489 283.033 247.004 282.734C246.518 282.435 246.173 282.039 245.968 281.544L247.018 280.942C247.13 281.278 247.34 281.544 247.648 281.74C247.956 281.936 248.324 282.034 248.754 282.034C249.155 282.034 249.486 281.959 249.748 281.81C250.009 281.651 250.14 281.409 250.14 281.082C250.14 280.811 250.004 280.597 249.734 280.438C249.463 280.27 249.136 280.139 248.754 280.046C248.371 279.943 247.988 279.827 247.606 279.696C247.223 279.565 246.896 279.351 246.626 279.052C246.355 278.753 246.22 278.371 246.22 277.904C246.22 277.297 246.453 276.798 246.92 276.406C247.396 276.014 247.988 275.818 248.698 275.818C249.267 275.818 249.771 275.949 250.21 276.21C250.658 276.462 250.994 276.817 251.218 277.274L250.196 277.848C249.944 277.251 249.444 276.952 248.698 276.952C248.352 276.952 248.058 277.036 247.816 277.204C247.573 277.363 247.452 277.591 247.452 277.89Z" fill="white"/>
<g clip-path="url(#clip1_1_308)">
<path d="M87.6667 326.387V327C87.6658 328.438 87.2003 329.836 86.3396 330.988C85.4788 332.139 84.2689 332.982 82.8902 333.389C81.5116 333.797 80.0382 333.748 78.6896 333.25C77.3411 332.752 76.1898 331.831 75.4073 330.625C74.6248 329.419 74.2532 327.992 74.3478 326.558C74.4424 325.123 74.9981 323.758 75.9322 322.665C76.8662 321.572 78.1285 320.81 79.5308 320.493C80.9331 320.177 82.4002 320.322 83.7133 320.907" stroke="white" stroke-width="2" stroke-linecap="round" stroke-linejoin="round"/>
<path d="M87.6667 321.667L81 328.34L79 326.34" stroke="white" stroke-width="2" stroke-linecap="round" stroke-linejoin="round"/>
</g>
<path d="M102.842 331.182C101.358 331.182 100.13 330.692 99.1595 329.712C98.1982 328.732 97.7175 327.528 97.7175 326.1C97.7175 324.672 98.1982 323.468 99.1595 322.488C100.13 321.508 101.358 321.018 102.842 321.018C103.738 321.018 104.559 321.233 105.306 321.662C106.062 322.091 106.65 322.67 107.07 323.398L105.936 324.056C105.656 323.515 105.236 323.085 104.676 322.768C104.125 322.441 103.514 322.278 102.842 322.278C101.712 322.278 100.788 322.642 100.07 323.37C99.3602 324.098 99.0055 325.008 99.0055 326.1C99.0055 327.183 99.3602 328.088 100.07 328.816C100.788 329.544 101.712 329.908 102.842 329.908C103.514 329.908 104.125 329.749 104.676 329.432C105.236 329.105 105.656 328.676 105.936 328.144L107.07 328.788C106.659 329.516 106.076 330.099 105.32 330.538C104.564 330.967 103.738 331.182 102.842 331.182ZM113.289 324H114.507V331H113.289V329.992C112.794 330.785 112.038 331.182 111.021 331.182C110.2 331.182 109.542 330.925 109.047 330.412C108.552 329.889 108.305 329.185 108.305 328.298V324H109.523V328.228C109.523 328.797 109.677 329.241 109.985 329.558C110.293 329.866 110.718 330.02 111.259 330.02C111.866 330.02 112.356 329.833 112.729 329.46C113.102 329.077 113.289 328.494 113.289 327.71V324ZM117.398 325.89C117.398 326.161 117.533 326.38 117.804 326.548C118.074 326.707 118.401 326.837 118.784 326.94C119.166 327.033 119.549 327.145 119.932 327.276C120.314 327.397 120.641 327.612 120.912 327.92C121.182 328.219 121.318 328.606 121.318 329.082C121.318 329.717 121.07 330.225 120.576 330.608C120.09 330.991 119.465 331.182 118.7 331.182C118.018 331.182 117.435 331.033 116.95 330.734C116.464 330.435 116.119 330.039 115.914 329.544L116.964 328.942C117.076 329.278 117.286 329.544 117.594 329.74C117.902 329.936 118.27 330.034 118.7 330.034C119.101 330.034 119.432 329.959 119.694 329.81C119.955 329.651 120.086 329.409 120.086 329.082C120.086 328.811 119.95 328.597 119.68 328.438C119.409 328.27 119.082 328.139 118.7 328.046C118.317 327.943 117.934 327.827 117.552 327.696C117.169 327.565 116.842 327.351 116.572 327.052C116.301 326.753 116.166 326.371 116.166 325.904C116.166 325.297 116.399 324.798 116.866 324.406C117.342 324.014 117.934 323.818 118.644 323.818C119.213 323.818 119.717 323.949 120.156 324.21C120.604 324.462 120.94 324.817 121.164 325.274L120.142 325.848C119.89 325.251 119.39 324.952 118.644 324.952C118.298 324.952 118.004 325.036 117.762 325.204C117.519 325.363 117.398 325.591 117.398 325.89ZM126.295 325.176H124.433V328.97C124.433 329.315 124.498 329.563 124.629 329.712C124.769 329.852 124.979 329.927 125.258 329.936C125.538 329.936 125.884 329.927 126.295 329.908V331C125.231 331.14 124.451 331.056 123.957 330.748C123.462 330.431 123.215 329.838 123.215 328.97V325.176H121.829V324H123.215V322.404L124.433 322.04V324H126.295V325.176ZM133.289 330.118C132.57 330.827 131.698 331.182 130.671 331.182C129.644 331.182 128.772 330.827 128.053 330.118C127.344 329.409 126.989 328.536 126.989 327.5C126.989 326.464 127.344 325.591 128.053 324.882C128.772 324.173 129.644 323.818 130.671 323.818C131.698 323.818 132.57 324.173 133.289 324.882C134.008 325.591 134.367 326.464 134.367 327.5C134.367 328.536 134.008 329.409 133.289 330.118ZM130.671 329.992C131.371 329.992 131.959 329.754 132.435 329.278C132.911 328.802 133.149 328.209 133.149 327.5C133.149 326.791 132.911 326.198 132.435 325.722C131.959 325.246 131.371 325.008 130.671 325.008C129.98 325.008 129.397 325.246 128.921 325.722C128.445 326.198 128.207 326.791 128.207 327.5C128.207 328.209 128.445 328.802 128.921 329.278C129.397 329.754 129.98 329.992 130.671 329.992ZM143.363 323.818C144.147 323.818 144.782 324.075 145.267 324.588C145.752 325.092 145.995 325.778 145.995 326.646V331H144.777V326.688C144.777 326.147 144.637 325.727 144.357 325.428C144.077 325.129 143.704 324.98 143.237 324.98C142.714 324.98 142.294 325.157 141.977 325.512C141.669 325.857 141.515 326.389 141.515 327.108V331H140.297V326.688C140.297 326.147 140.162 325.727 139.891 325.428C139.63 325.129 139.27 324.98 138.813 324.98C138.3 324.98 137.87 325.157 137.525 325.512C137.189 325.867 137.021 326.399 137.021 327.108V331H135.803V324H137.021V324.938C137.497 324.191 138.192 323.818 139.107 323.818C140.05 323.818 140.736 324.215 141.165 325.008C141.65 324.215 142.383 323.818 143.363 323.818ZM156.91 325.918C157.358 326.133 157.712 326.441 157.974 326.842C158.244 327.243 158.38 327.705 158.38 328.228C158.38 329.012 158.104 329.67 157.554 330.202C157.003 330.734 156.331 331 155.538 331H151.31V321.2H155.23C155.995 321.2 156.644 321.457 157.176 321.97C157.708 322.483 157.974 323.118 157.974 323.874C157.974 324.742 157.619 325.423 156.91 325.918ZM155.23 322.418H152.612V325.414H155.23C155.64 325.414 155.986 325.269 156.266 324.98C156.546 324.691 156.686 324.336 156.686 323.916C156.686 323.505 156.541 323.155 156.252 322.866C155.972 322.567 155.631 322.418 155.23 322.418ZM155.538 329.782C155.976 329.782 156.345 329.628 156.644 329.32C156.942 329.012 157.092 328.634 157.092 328.186C157.092 327.747 156.938 327.374 156.63 327.066C156.331 326.758 155.967 326.604 155.538 326.604H152.612V329.782H155.538ZM161.015 325.176C161.416 324.308 162.144 323.874 163.199 323.874V325.148C162.602 325.12 162.088 325.279 161.659 325.624C161.23 325.969 161.015 326.525 161.015 327.29V331H159.797V324H161.015V325.176ZM169.804 324H171.022V331H169.804V329.796C169.197 330.72 168.315 331.182 167.158 331.182C166.178 331.182 165.343 330.827 164.652 330.118C163.961 329.399 163.616 328.527 163.616 327.5C163.616 326.473 163.961 325.605 164.652 324.896C165.343 324.177 166.178 323.818 167.158 323.818C168.315 323.818 169.197 324.28 169.804 325.204V324ZM167.312 330.006C168.021 330.006 168.614 329.768 169.09 329.292C169.566 328.807 169.804 328.209 169.804 327.5C169.804 326.791 169.566 326.198 169.09 325.722C168.614 325.237 168.021 324.994 167.312 324.994C166.612 324.994 166.024 325.237 165.548 325.722C165.072 326.198 164.834 326.791 164.834 327.5C164.834 328.209 165.072 328.807 165.548 329.292C166.024 329.768 166.612 330.006 167.312 330.006ZM176.353 323.818C177.175 323.818 177.833 324.079 178.327 324.602C178.822 325.115 179.069 325.815 179.069 326.702V331H177.851V326.772C177.851 326.203 177.697 325.764 177.389 325.456C177.081 325.139 176.657 324.98 176.115 324.98C175.509 324.98 175.019 325.171 174.645 325.554C174.272 325.927 174.085 326.506 174.085 327.29V331H172.867V324H174.085V325.008C174.58 324.215 175.336 323.818 176.353 323.818ZM186.566 321.2H187.784V331H186.566V329.796C185.959 330.72 185.077 331.182 183.92 331.182C182.94 331.182 182.104 330.827 181.414 330.118C180.723 329.399 180.378 328.527 180.378 327.5C180.378 326.473 180.723 325.605 181.414 324.896C182.104 324.177 182.94 323.818 183.92 323.818C185.077 323.818 185.959 324.28 186.566 325.204V321.2ZM184.074 330.006C184.783 330.006 185.376 329.768 185.852 329.292C186.328 328.807 186.566 328.209 186.566 327.5C186.566 326.791 186.328 326.198 185.852 325.722C185.376 325.237 184.783 324.994 184.074 324.994C183.374 324.994 182.786 325.237 182.31 325.722C181.834 326.198 181.596 326.791 181.596 327.5C181.596 328.209 181.834 328.807 182.31 329.292C182.786 329.768 183.374 330.006 184.074 330.006ZM190.483 328.06C190.604 328.685 190.889 329.171 191.337 329.516C191.794 329.861 192.354 330.034 193.017 330.034C193.941 330.034 194.613 329.693 195.033 329.012L196.069 329.6C195.388 330.655 194.361 331.182 192.989 331.182C191.878 331.182 190.973 330.837 190.273 330.146C189.582 329.446 189.237 328.564 189.237 327.5C189.237 326.445 189.578 325.568 190.259 324.868C190.94 324.168 191.822 323.818 192.905 323.818C193.932 323.818 194.767 324.182 195.411 324.91C196.064 325.629 196.391 326.497 196.391 327.514C196.391 327.691 196.377 327.873 196.349 328.06H190.483ZM192.905 324.966C192.252 324.966 191.71 325.153 191.281 325.526C190.852 325.89 190.586 326.38 190.483 326.996H195.159C195.056 326.333 194.795 325.829 194.375 325.484C193.955 325.139 193.465 324.966 192.905 324.966ZM203.574 321.2H204.792V331H203.574V329.796C202.967 330.72 202.085 331.182 200.928 331.182C199.948 331.182 199.112 330.827 198.422 330.118C197.731 329.399 197.386 328.527 197.386 327.5C197.386 326.473 197.731 325.605 198.422 324.896C199.112 324.177 199.948 323.818 200.928 323.818C202.085 323.818 202.967 324.28 203.574 325.204V321.2ZM201.082 330.006C201.791 330.006 202.384 329.768 202.86 329.292C203.336 328.807 203.574 328.209 203.574 327.5C203.574 326.791 203.336 326.198 202.86 325.722C202.384 325.237 201.791 324.994 201.082 324.994C200.382 324.994 199.794 325.237 199.318 325.722C198.842 326.198 198.604 326.791 198.604 327.5C198.604 328.209 198.842 328.807 199.318 329.292C199.794 329.768 200.382 330.006 201.082 330.006ZM214.085 321.2C215.42 321.2 216.526 321.676 217.403 322.628C218.29 323.571 218.733 324.728 218.733 326.1C218.733 327.472 218.29 328.634 217.403 329.586C216.526 330.529 215.42 331 214.085 331H210.263V321.2H214.085ZM214.085 329.768C215.084 329.768 215.9 329.418 216.535 328.718C217.17 328.018 217.487 327.145 217.487 326.1C217.487 325.055 217.17 324.182 216.535 323.482C215.9 322.782 215.084 322.432 214.085 322.432H211.565V329.768H214.085ZM226.094 330.118C225.375 330.827 224.502 331.182 223.476 331.182C222.449 331.182 221.576 330.827 220.858 330.118C220.148 329.409 219.794 328.536 219.794 327.5C219.794 326.464 220.148 325.591 220.858 324.882C221.576 324.173 222.449 323.818 223.476 323.818C224.502 323.818 225.375 324.173 226.094 324.882C226.812 325.591 227.172 326.464 227.172 327.5C227.172 328.536 226.812 329.409 226.094 330.118ZM223.476 329.992C224.176 329.992 224.764 329.754 225.24 329.278C225.716 328.802 225.954 328.209 225.954 327.5C225.954 326.791 225.716 326.198 225.24 325.722C224.764 325.246 224.176 325.008 223.476 325.008C222.785 325.008 222.202 325.246 221.726 325.722C221.25 326.198 221.012 326.791 221.012 327.5C221.012 328.209 221.25 328.802 221.726 329.278C222.202 329.754 222.785 329.992 223.476 329.992ZM236.168 323.818C236.952 323.818 237.586 324.075 238.072 324.588C238.557 325.092 238.8 325.778 238.8 326.646V331H237.582V326.688C237.582 326.147 237.442 325.727 237.162 325.428C236.882 325.129 236.508 324.98 236.042 324.98C235.519 324.98 235.099 325.157 234.782 325.512C234.474 325.857 234.32 326.389 234.32 327.108V331H233.102V326.688C233.102 326.147 232.966 325.727 232.696 325.428C232.434 325.129 232.075 324.98 231.618 324.98C231.104 324.98 230.675 325.157 230.33 325.512C229.994 325.867 229.826 326.399 229.826 327.108V331H228.608V324H229.826V324.938C230.302 324.191 230.997 323.818 231.912 323.818C232.854 323.818 233.54 324.215 233.97 325.008C234.455 324.215 235.188 323.818 236.168 323.818ZM246.284 324H247.502V331H246.284V329.796C245.678 330.72 244.796 331.182 243.638 331.182C242.658 331.182 241.823 330.827 241.132 330.118C240.442 329.399 240.096 328.527 240.096 327.5C240.096 326.473 240.442 325.605 241.132 324.896C241.823 324.177 242.658 323.818 243.638 323.818C244.796 323.818 245.678 324.28 246.284 325.204V324ZM243.792 330.006C244.502 330.006 245.094 329.768 245.57 329.292C246.046 328.807 246.284 328.209 246.284 327.5C246.284 326.791 246.046 326.198 245.57 325.722C245.094 325.237 244.502 324.994 243.792 324.994C243.092 324.994 242.504 325.237 242.028 325.722C241.552 326.198 241.314 326.791 241.314 327.5C241.314 328.209 241.552 328.807 242.028 329.292C242.504 329.768 243.092 330.006 243.792 330.006ZM249.964 322.726C249.73 322.726 249.534 322.647 249.376 322.488C249.217 322.329 249.138 322.138 249.138 321.914C249.138 321.69 249.217 321.499 249.376 321.34C249.534 321.172 249.73 321.088 249.964 321.088C250.188 321.088 250.379 321.172 250.538 321.34C250.696 321.499 250.776 321.69 250.776 321.914C250.776 322.138 250.696 322.329 250.538 322.488C250.379 322.647 250.188 322.726 249.964 322.726ZM249.348 331V324H250.566V331H249.348ZM255.91 323.818C256.731 323.818 257.389 324.079 257.884 324.602C258.379 325.115 258.626 325.815 258.626 326.702V331H257.408V326.772C257.408 326.203 257.254 325.764 256.946 325.456C256.638 325.139 256.213 324.98 255.672 324.98C255.065 324.98 254.575 325.171 254.202 325.554C253.829 325.927 253.642 326.506 253.642 327.29V331H252.424V324H253.642V325.008C254.137 324.215 254.893 323.818 255.91 323.818ZM261.376 325.89C261.376 326.161 261.512 326.38 261.782 326.548C262.053 326.707 262.38 326.837 262.762 326.94C263.145 327.033 263.528 327.145 263.91 327.276C264.293 327.397 264.62 327.612 264.89 327.92C265.161 328.219 265.296 328.606 265.296 329.082C265.296 329.717 265.049 330.225 264.554 330.608C264.069 330.991 263.444 331.182 262.678 331.182C261.997 331.182 261.414 331.033 260.928 330.734C260.443 330.435 260.098 330.039 259.892 329.544L260.942 328.942C261.054 329.278 261.264 329.544 261.572 329.74C261.88 329.936 262.249 330.034 262.678 330.034C263.08 330.034 263.411 329.959 263.672 329.81C263.934 329.651 264.064 329.409 264.064 329.082C264.064 328.811 263.929 328.597 263.658 328.438C263.388 328.27 263.061 328.139 262.678 328.046C262.296 327.943 261.913 327.827 261.53 327.696C261.148 327.565 260.821 327.351 260.55 327.052C260.28 326.753 260.144 326.371 260.144 325.904C260.144 325.297 260.378 324.798 260.844 324.406C261.32 324.014 261.913 323.818 262.622 323.818C263.192 323.818 263.696 323.949 264.134 324.21C264.582 324.462 264.918 324.817 265.142 325.274L264.12 325.848C263.868 325.251 263.369 324.952 262.622 324.952C262.277 324.952 261.983 325.036 261.74 325.204C261.498 325.363 261.376 325.591 261.376 325.89Z" fill="white"/>
<g clip-path="url(#clip2_1_308)">
<path d="M87.6667 374.387V375C87.6658 376.438 87.2003 377.836 86.3396 378.988C85.4788 380.139 84.2689 380.982 82.8902 381.389C81.5116 381.797 80.0382 381.748 78.6896 381.25C77.3411 380.752 76.1898 379.831 75.4073 378.625C74.6248 377.419 74.2532 375.992 74.3478 374.558C74.4424 373.123 74.9981 371.758 75.9322 370.665C76.8662 369.572 78.1285 368.81 79.5308 368.493C80.9331 368.177 82.4002 368.322 83.7133 368.907" stroke="white" stroke-width="2" stroke-linecap="round" stroke-linejoin="round"/>
<path d="M87.6667 369.667L81 376.34L79 374.34" stroke="white" stroke-width="2" stroke-linecap="round" stroke-linejoin="round"/>
</g>
<path d="M104.923 379L104.125 376.802H99.7149L98.9169 379H97.5309L101.185 369.2H102.655L106.309 379H104.923ZM100.163 375.584H103.677L101.913 370.754L100.163 375.584ZM112.971 369.2H114.189V379H112.971V377.796C112.364 378.72 111.482 379.182 110.325 379.182C109.345 379.182 108.51 378.827 107.819 378.118C107.128 377.399 106.783 376.527 106.783 375.5C106.783 374.473 107.128 373.605 107.819 372.896C108.51 372.177 109.345 371.818 110.325 371.818C111.482 371.818 112.364 372.28 112.971 373.204V369.2ZM110.479 378.006C111.188 378.006 111.781 377.768 112.257 377.292C112.733 376.807 112.971 376.209 112.971 375.5C112.971 374.791 112.733 374.198 112.257 373.722C111.781 373.237 111.188 372.994 110.479 372.994C109.779 372.994 109.191 373.237 108.715 373.722C108.239 374.198 108.001 374.791 108.001 375.5C108.001 376.209 108.239 376.807 108.715 377.292C109.191 377.768 109.779 378.006 110.479 378.006ZM120.934 372H122.25L119.45 379H118.022L115.222 372H116.538L118.736 377.698L120.934 372ZM128.803 372H130.021V379H128.803V377.796C128.196 378.72 127.314 379.182 126.157 379.182C125.177 379.182 124.342 378.827 123.651 378.118C122.96 377.399 122.615 376.527 122.615 375.5C122.615 374.473 122.96 373.605 123.651 372.896C124.342 372.177 125.177 371.818 126.157 371.818C127.314 371.818 128.196 372.28 128.803 373.204V372ZM126.311 378.006C127.02 378.006 127.613 377.768 128.089 377.292C128.565 376.807 128.803 376.209 128.803 375.5C128.803 374.791 128.565 374.198 128.089 373.722C127.613 373.237 127.02 372.994 126.311 372.994C125.611 372.994 125.023 373.237 124.547 373.722C124.071 374.198 123.833 374.791 123.833 375.5C123.833 376.209 124.071 376.807 124.547 377.292C125.023 377.768 125.611 378.006 126.311 378.006ZM135.352 371.818C136.174 371.818 136.832 372.079 137.326 372.602C137.821 373.115 138.068 373.815 138.068 374.702V379H136.85V374.772C136.85 374.203 136.696 373.764 136.388 373.456C136.08 373.139 135.656 372.98 135.114 372.98C134.508 372.98 134.018 373.171 133.644 373.554C133.271 373.927 133.084 374.506 133.084 375.29V379H131.866V372H133.084V373.008C133.579 372.215 134.335 371.818 135.352 371.818ZM143.059 379.182C142.004 379.182 141.127 378.832 140.427 378.132C139.727 377.423 139.377 376.545 139.377 375.5C139.377 374.455 139.727 373.582 140.427 372.882C141.127 372.173 142.004 371.818 143.059 371.818C143.749 371.818 144.37 371.986 144.921 372.322C145.471 372.649 145.882 373.092 146.153 373.652L145.131 374.24C144.953 373.867 144.678 373.568 144.305 373.344C143.941 373.12 143.525 373.008 143.059 373.008C142.359 373.008 141.771 373.246 141.295 373.722C140.828 374.198 140.595 374.791 140.595 375.5C140.595 376.2 140.828 376.788 141.295 377.264C141.771 377.74 142.359 377.978 143.059 377.978C143.525 377.978 143.945 377.871 144.319 377.656C144.692 377.432 144.977 377.133 145.173 376.76L146.209 377.362C145.91 377.913 145.481 378.356 144.921 378.692C144.361 379.019 143.74 379.182 143.059 379.182ZM148.17 376.06C148.291 376.685 148.576 377.171 149.024 377.516C149.481 377.861 150.041 378.034 150.704 378.034C151.628 378.034 152.3 377.693 152.72 377.012L153.756 377.6C153.074 378.655 152.048 379.182 150.676 379.182C149.565 379.182 148.66 378.837 147.96 378.146C147.269 377.446 146.924 376.564 146.924 375.5C146.924 374.445 147.264 373.568 147.946 372.868C148.627 372.168 149.509 371.818 150.592 371.818C151.618 371.818 152.454 372.182 153.098 372.91C153.751 373.629 154.078 374.497 154.078 375.514C154.078 375.691 154.064 375.873 154.036 376.06H148.17ZM150.592 372.966C149.938 372.966 149.397 373.153 148.968 373.526C148.538 373.89 148.272 374.38 148.17 374.996H152.846C152.743 374.333 152.482 373.829 152.062 373.484C151.642 373.139 151.152 372.966 150.592 372.966ZM161.26 369.2H162.478V379H161.26V377.796C160.653 378.72 159.771 379.182 158.614 379.182C157.634 379.182 156.799 378.827 156.108 378.118C155.417 377.399 155.072 376.527 155.072 375.5C155.072 374.473 155.417 373.605 156.108 372.896C156.799 372.177 157.634 371.818 158.614 371.818C159.771 371.818 160.653 372.28 161.26 373.204V369.2ZM158.768 378.006C159.477 378.006 160.07 377.768 160.546 377.292C161.022 376.807 161.26 376.209 161.26 375.5C161.26 374.791 161.022 374.198 160.546 373.722C160.07 373.237 159.477 372.994 158.768 372.994C158.068 372.994 157.48 373.237 157.004 373.722C156.528 374.198 156.29 374.791 156.29 375.5C156.29 376.209 156.528 376.807 157.004 377.292C157.48 377.768 158.068 378.006 158.768 378.006ZM169.251 377.768H173.479V379H167.949V369.2H169.251V377.768ZM175.275 370.726C175.042 370.726 174.846 370.647 174.687 370.488C174.529 370.329 174.449 370.138 174.449 369.914C174.449 369.69 174.529 369.499 174.687 369.34C174.846 369.172 175.042 369.088 175.275 369.088C175.499 369.088 175.691 369.172 175.849 369.34C176.008 369.499 176.087 369.69 176.087 369.914C176.087 370.138 176.008 370.329 175.849 370.488C175.691 370.647 175.499 370.726 175.275 370.726ZM174.659 379V372H175.877V379H174.659ZM181.222 371.818C182.043 371.818 182.701 372.079 183.196 372.602C183.69 373.115 183.938 373.815 183.938 374.702V379H182.72V374.772C182.72 374.203 182.566 373.764 182.258 373.456C181.95 373.139 181.525 372.98 180.984 372.98C180.377 372.98 179.887 373.171 179.514 373.554C179.14 373.927 178.954 374.506 178.954 375.29V379H177.736V372H178.954V373.008C179.448 372.215 180.204 371.818 181.222 371.818ZM191.56 379H190.048L186.856 375.682V379H185.638V369.2H186.856V375.094L189.88 372H191.448L188.102 375.388L191.56 379ZM200.925 379.182C199.441 379.182 198.213 378.692 197.243 377.712C196.281 376.732 195.801 375.528 195.801 374.1C195.801 372.672 196.281 371.468 197.243 370.488C198.213 369.508 199.441 369.018 200.925 369.018C201.821 369.018 202.642 369.233 203.389 369.662C204.145 370.091 204.733 370.67 205.153 371.398L204.019 372.056C203.739 371.515 203.319 371.085 202.759 370.768C202.208 370.441 201.597 370.278 200.925 370.278C199.795 370.278 198.871 370.642 198.153 371.37C197.443 372.098 197.089 373.008 197.089 374.1C197.089 375.183 197.443 376.088 198.153 376.816C198.871 377.544 199.795 377.908 200.925 377.908C201.597 377.908 202.208 377.749 202.759 377.432C203.319 377.105 203.739 376.676 204.019 376.144L205.153 376.788C204.742 377.516 204.159 378.099 203.403 378.538C202.647 378.967 201.821 379.182 200.925 379.182ZM211.372 372H212.59V379H211.372V377.992C210.877 378.785 210.121 379.182 209.104 379.182C208.283 379.182 207.625 378.925 207.13 378.412C206.635 377.889 206.388 377.185 206.388 376.298V372H207.606V376.228C207.606 376.797 207.76 377.241 208.068 377.558C208.376 377.866 208.801 378.02 209.342 378.02C209.949 378.02 210.439 377.833 210.812 377.46C211.185 377.077 211.372 376.494 211.372 375.71V372ZM215.481 373.89C215.481 374.161 215.616 374.38 215.887 374.548C216.158 374.707 216.484 374.837 216.867 374.94C217.25 375.033 217.632 375.145 218.015 375.276C218.398 375.397 218.724 375.612 218.995 375.92C219.266 376.219 219.401 376.606 219.401 377.082C219.401 377.717 219.154 378.225 218.659 378.608C218.174 378.991 217.548 379.182 216.783 379.182C216.102 379.182 215.518 379.033 215.033 378.734C214.548 378.435 214.202 378.039 213.997 377.544L215.047 376.942C215.159 377.278 215.369 377.544 215.677 377.74C215.985 377.936 216.354 378.034 216.783 378.034C217.184 378.034 217.516 377.959 217.777 377.81C218.038 377.651 218.169 377.409 218.169 377.082C218.169 376.811 218.034 376.597 217.763 376.438C217.492 376.27 217.166 376.139 216.783 376.046C216.4 375.943 216.018 375.827 215.635 375.696C215.252 375.565 214.926 375.351 214.655 375.052C214.384 374.753 214.249 374.371 214.249 373.904C214.249 373.297 214.482 372.798 214.949 372.406C215.425 372.014 216.018 371.818 216.727 371.818C217.296 371.818 217.8 371.949 218.239 372.21C218.687 372.462 219.023 372.817 219.247 373.274L218.225 373.848C217.973 373.251 217.474 372.952 216.727 372.952C216.382 372.952 216.088 373.036 215.845 373.204C215.602 373.363 215.481 373.591 215.481 373.89ZM224.378 373.176H222.516V376.97C222.516 377.315 222.581 377.563 222.712 377.712C222.852 377.852 223.062 377.927 223.342 377.936C223.622 377.936 223.967 377.927 224.378 377.908V379C223.314 379.14 222.534 379.056 222.04 378.748C221.545 378.431 221.298 377.838 221.298 376.97V373.176H219.912V372H221.298V370.404L222.516 370.04V372H224.378V373.176ZM231.372 378.118C230.653 378.827 229.781 379.182 228.754 379.182C227.727 379.182 226.855 378.827 226.136 378.118C225.427 377.409 225.072 376.536 225.072 375.5C225.072 374.464 225.427 373.591 226.136 372.882C226.855 372.173 227.727 371.818 228.754 371.818C229.781 371.818 230.653 372.173 231.372 372.882C232.091 373.591 232.45 374.464 232.45 375.5C232.45 376.536 232.091 377.409 231.372 378.118ZM228.754 377.992C229.454 377.992 230.042 377.754 230.518 377.278C230.994 376.802 231.232 376.209 231.232 375.5C231.232 374.791 230.994 374.198 230.518 373.722C230.042 373.246 229.454 373.008 228.754 373.008C228.063 373.008 227.48 373.246 227.004 373.722C226.528 374.198 226.29 374.791 226.29 375.5C226.29 376.209 226.528 376.802 227.004 377.278C227.48 377.754 228.063 377.992 228.754 377.992ZM241.446 371.818C242.23 371.818 242.865 372.075 243.35 372.588C243.835 373.092 244.078 373.778 244.078 374.646V379H242.86V374.688C242.86 374.147 242.72 373.727 242.44 373.428C242.16 373.129 241.787 372.98 241.32 372.98C240.797 372.98 240.377 373.157 240.06 373.512C239.752 373.857 239.598 374.389 239.598 375.108V379H238.38V374.688C238.38 374.147 238.245 373.727 237.974 373.428C237.713 373.129 237.353 372.98 236.896 372.98C236.383 372.98 235.953 373.157 235.608 373.512C235.272 373.867 235.104 374.399 235.104 375.108V379H233.886V372H235.104V372.938C235.58 372.191 236.275 371.818 237.19 371.818C238.133 371.818 238.819 372.215 239.248 373.008C239.733 372.215 240.466 371.818 241.446 371.818ZM246.383 370.726C246.149 370.726 245.953 370.647 245.795 370.488C245.636 370.329 245.557 370.138 245.557 369.914C245.557 369.69 245.636 369.499 245.795 369.34C245.953 369.172 246.149 369.088 246.383 369.088C246.607 369.088 246.798 369.172 246.957 369.34C247.115 369.499 247.195 369.69 247.195 369.914C247.195 370.138 247.115 370.329 246.957 370.488C246.798 370.647 246.607 370.726 246.383 370.726ZM245.767 379V372H246.985V379H245.767ZM250.257 377.838H253.981V379H248.591V378.188L252.161 373.162H248.731V372H253.841V372.812L250.257 377.838ZM260.791 372H262.009V379H260.791V377.796C260.185 378.72 259.303 379.182 258.145 379.182C257.165 379.182 256.33 378.827 255.639 378.118C254.949 377.399 254.603 376.527 254.603 375.5C254.603 374.473 254.949 373.605 255.639 372.896C256.33 372.177 257.165 371.818 258.145 371.818C259.303 371.818 260.185 372.28 260.791 373.204V372ZM258.299 378.006C259.009 378.006 259.601 377.768 260.077 377.292C260.553 376.807 260.791 376.209 260.791 375.5C260.791 374.791 260.553 374.198 260.077 373.722C259.601 373.237 259.009 372.994 258.299 372.994C257.599 372.994 257.011 373.237 256.535 373.722C256.059 374.198 255.821 374.791 255.821 375.5C255.821 376.209 256.059 376.807 256.535 377.292C257.011 377.768 257.599 378.006 258.299 378.006ZM267.663 373.176H265.801V376.97C265.801 377.315 265.866 377.563 265.997 377.712C266.137 377.852 266.347 377.927 266.627 377.936C266.907 377.936 267.252 377.927 267.663 377.908V379C266.599 379.14 265.819 379.056 265.325 378.748C264.83 378.431 264.583 377.838 264.583 376.97V373.176H263.197V372H264.583V370.404L265.801 370.04V372H267.663V373.176ZM269.721 370.726C269.487 370.726 269.291 370.647 269.133 370.488C268.974 370.329 268.895 370.138 268.895 369.914C268.895 369.69 268.974 369.499 269.133 369.34C269.291 369.172 269.487 369.088 269.721 369.088C269.945 369.088 270.136 369.172 270.295 369.34C270.453 369.499 270.533 369.69 270.533 369.914C270.533 370.138 270.453 370.329 270.295 370.488C270.136 370.647 269.945 370.726 269.721 370.726ZM269.105 379V372H270.323V379H269.105ZM278.089 378.118C277.37 378.827 276.498 379.182 275.471 379.182C274.444 379.182 273.572 378.827 272.853 378.118C272.144 377.409 271.789 376.536 271.789 375.5C271.789 374.464 272.144 373.591 272.853 372.882C273.572 372.173 274.444 371.818 275.471 371.818C276.498 371.818 277.37 372.173 278.089 372.882C278.808 373.591 279.167 374.464 279.167 375.5C279.167 376.536 278.808 377.409 278.089 378.118ZM275.471 377.992C276.171 377.992 276.759 377.754 277.235 377.278C277.711 376.802 277.949 376.209 277.949 375.5C277.949 374.791 277.711 374.198 277.235 373.722C276.759 373.246 276.171 373.008 275.471 373.008C274.78 373.008 274.197 373.246 273.721 373.722C273.245 374.198 273.007 374.791 273.007 375.5C273.007 376.209 273.245 376.802 273.721 377.278C274.197 377.754 274.78 377.992 275.471 377.992ZM284.089 371.818C284.91 371.818 285.568 372.079 286.063 372.602C286.557 373.115 286.805 373.815 286.805 374.702V379H285.587V374.772C285.587 374.203 285.433 373.764 285.125 373.456C284.817 373.139 284.392 372.98 283.851 372.98C283.244 372.98 282.754 373.171 282.381 373.554C282.007 373.927 281.821 374.506 281.821 375.29V379H280.603V372H281.821V373.008C282.315 372.215 283.071 371.818 284.089 371.818Z" fill="white"/>
<g clip-path="url(#clip3_1_308)">
<path d="M87.6667 422.387V423C87.6658 424.438 87.2003 425.836 86.3396 426.988C85.4788 428.139 84.2689 428.982 82.8902 429.389C81.5116 429.797 80.0382 429.748 78.6896 429.25C77.3411 428.752 76.1898 427.831 75.4073 426.625C74.6248 425.419 74.2532 423.992 74.3478 422.558C74.4424 421.123 74.9981 419.758 75.9322 418.665C76.8662 417.572 78.1285 416.81 79.5308 416.493C80.9331 416.177 82.4002 416.322 83.7133 416.907" stroke="white" stroke-width="2" stroke-linecap="round" stroke-linejoin="round"/>
<path d="M87.6667 417.667L81 424.34L79 422.34" stroke="white" stroke-width="2" stroke-linecap="round" stroke-linejoin="round"/>
</g>
<path d="M102.026 417.2C102.931 417.2 103.683 417.503 104.28 418.11C104.887 418.707 105.19 419.454 105.19 420.35C105.19 421.237 104.887 421.983 104.28 422.59C103.683 423.197 102.931 423.5 102.026 423.5H99.7719V427H98.4699V417.2H102.026ZM102.026 422.282C102.567 422.282 103.015 422.1 103.37 421.736C103.725 421.363 103.902 420.901 103.902 420.35C103.902 419.79 103.725 419.328 103.37 418.964C103.015 418.6 102.567 418.418 102.026 418.418H99.7719V422.282H102.026ZM107.669 421.176C108.071 420.308 108.799 419.874 109.853 419.874V421.148C109.256 421.12 108.743 421.279 108.313 421.624C107.884 421.969 107.669 422.525 107.669 423.29V427H106.451V420H107.669V421.176ZM111.661 418.726C111.428 418.726 111.232 418.647 111.073 418.488C110.914 418.329 110.835 418.138 110.835 417.914C110.835 417.69 110.914 417.499 111.073 417.34C111.232 417.172 111.428 417.088 111.661 417.088C111.885 417.088 112.076 417.172 112.235 417.34C112.394 417.499 112.473 417.69 112.473 417.914C112.473 418.138 112.394 418.329 112.235 418.488C112.076 418.647 111.885 418.726 111.661 418.726ZM111.045 427V420H112.263V427H111.045ZM120.029 426.118C119.311 426.827 118.438 427.182 117.411 427.182C116.385 427.182 115.512 426.827 114.793 426.118C114.084 425.409 113.729 424.536 113.729 423.5C113.729 422.464 114.084 421.591 114.793 420.882C115.512 420.173 116.385 419.818 117.411 419.818C118.438 419.818 119.311 420.173 120.029 420.882C120.748 421.591 121.107 422.464 121.107 423.5C121.107 424.536 120.748 425.409 120.029 426.118ZM117.411 425.992C118.111 425.992 118.699 425.754 119.175 425.278C119.651 424.802 119.889 424.209 119.889 423.5C119.889 422.791 119.651 422.198 119.175 421.722C118.699 421.246 118.111 421.008 117.411 421.008C116.721 421.008 116.137 421.246 115.661 421.722C115.185 422.198 114.947 422.791 114.947 423.5C114.947 424.209 115.185 424.802 115.661 425.278C116.137 425.754 116.721 425.992 117.411 425.992ZM123.761 421.176C124.162 420.308 124.89 419.874 125.945 419.874V421.148C125.348 421.12 124.834 421.279 124.405 421.624C123.976 421.969 123.761 422.525 123.761 423.29V427H122.543V420H123.761V421.176ZM127.753 418.726C127.52 418.726 127.324 418.647 127.165 418.488C127.006 418.329 126.927 418.138 126.927 417.914C126.927 417.69 127.006 417.499 127.165 417.34C127.324 417.172 127.52 417.088 127.753 417.088C127.977 417.088 128.168 417.172 128.327 417.34C128.486 417.499 128.565 417.69 128.565 417.914C128.565 418.138 128.486 418.329 128.327 418.488C128.168 418.647 127.977 418.726 127.753 418.726ZM127.137 427V420H128.355V427H127.137ZM134.021 421.176H132.159V424.97C132.159 425.315 132.224 425.563 132.355 425.712C132.495 425.852 132.705 425.927 132.985 425.936C133.265 425.936 133.61 425.927 134.021 425.908V427C132.957 427.14 132.178 427.056 131.683 426.748C131.188 426.431 130.941 425.838 130.941 424.97V421.176H129.555V420H130.941V418.404L132.159 418.04V420H134.021V421.176ZM140.499 420H141.801L138.945 427.434C138.647 428.227 138.227 428.829 137.685 429.24C137.153 429.66 136.537 429.847 135.837 429.8V428.666C136.696 428.731 137.326 428.255 137.727 427.238L137.853 426.972L134.801 420H136.103L138.483 425.488L140.499 420ZM149.609 427.182C148.694 427.182 147.91 426.967 147.257 426.538C146.613 426.109 146.16 425.521 145.899 424.774L147.019 424.13C147.401 425.315 148.274 425.908 149.637 425.908C150.309 425.908 150.822 425.773 151.177 425.502C151.531 425.222 151.709 424.853 151.709 424.396C151.709 423.929 151.531 423.579 151.177 423.346C150.822 423.113 150.229 422.865 149.399 422.604C148.988 422.473 148.675 422.371 148.461 422.296C148.246 422.212 147.975 422.091 147.649 421.932C147.331 421.764 147.093 421.596 146.935 421.428C146.776 421.251 146.631 421.022 146.501 420.742C146.379 420.462 146.319 420.145 146.319 419.79C146.319 418.941 146.617 418.269 147.215 417.774C147.812 417.27 148.54 417.018 149.399 417.018C150.173 417.018 150.845 417.214 151.415 417.606C151.993 417.998 152.427 418.516 152.717 419.16L151.625 419.79C151.205 418.782 150.463 418.278 149.399 418.278C148.867 418.278 148.437 418.409 148.111 418.67C147.784 418.931 147.621 419.286 147.621 419.734C147.621 420.163 147.775 420.49 148.083 420.714C148.391 420.938 148.923 421.171 149.679 421.414C149.949 421.498 150.141 421.559 150.253 421.596C150.365 421.633 150.537 421.699 150.771 421.792C151.013 421.885 151.191 421.96 151.303 422.016C151.415 422.072 151.564 422.151 151.751 422.254C151.947 422.357 152.091 422.455 152.185 422.548C152.278 422.641 152.385 422.758 152.507 422.898C152.637 423.029 152.731 423.164 152.787 423.304C152.843 423.444 152.889 423.607 152.927 423.794C152.973 423.971 152.997 424.163 152.997 424.368C152.997 425.227 152.684 425.913 152.059 426.426C151.433 426.93 150.617 427.182 149.609 427.182ZM159.242 420H160.46V427H159.242V425.992C158.748 426.785 157.992 427.182 156.974 427.182C156.153 427.182 155.495 426.925 155 426.412C154.506 425.889 154.258 425.185 154.258 424.298V420H155.476V424.228C155.476 424.797 155.63 425.241 155.938 425.558C156.246 425.866 156.671 426.02 157.212 426.02C157.819 426.02 158.309 425.833 158.682 425.46C159.056 425.077 159.242 424.494 159.242 423.71V420ZM166.179 419.818C167.159 419.818 167.994 420.177 168.685 420.896C169.375 421.605 169.721 422.473 169.721 423.5C169.721 424.527 169.375 425.399 168.685 426.118C167.994 426.827 167.159 427.182 166.179 427.182C165.021 427.182 164.139 426.72 163.533 425.796V429.8H162.315V420H163.533V421.204C164.139 420.28 165.021 419.818 166.179 419.818ZM166.025 426.006C166.725 426.006 167.313 425.768 167.789 425.292C168.265 424.807 168.503 424.209 168.503 423.5C168.503 422.791 168.265 422.198 167.789 421.722C167.313 421.237 166.725 420.994 166.025 420.994C165.315 420.994 164.723 421.237 164.247 421.722C163.771 422.198 163.533 422.791 163.533 423.5C163.533 424.209 163.771 424.807 164.247 425.292C164.723 425.768 165.315 426.006 166.025 426.006ZM175.038 419.818C176.018 419.818 176.853 420.177 177.544 420.896C178.235 421.605 178.58 422.473 178.58 423.5C178.58 424.527 178.235 425.399 177.544 426.118C176.853 426.827 176.018 427.182 175.038 427.182C173.881 427.182 172.999 426.72 172.392 425.796V429.8H171.174V420H172.392V421.204C172.999 420.28 173.881 419.818 175.038 419.818ZM174.884 426.006C175.584 426.006 176.172 425.768 176.648 425.292C177.124 424.807 177.362 424.209 177.362 423.5C177.362 422.791 177.124 422.198 176.648 421.722C176.172 421.237 175.584 420.994 174.884 420.994C174.175 420.994 173.582 421.237 173.106 421.722C172.63 422.198 172.392 422.791 172.392 423.5C172.392 424.209 172.63 424.807 173.106 425.292C173.582 425.768 174.175 426.006 174.884 426.006ZM185.941 426.118C185.223 426.827 184.35 427.182 183.323 427.182C182.297 427.182 181.424 426.827 180.705 426.118C179.996 425.409 179.641 424.536 179.641 423.5C179.641 422.464 179.996 421.591 180.705 420.882C181.424 420.173 182.297 419.818 183.323 419.818C184.35 419.818 185.223 420.173 185.941 420.882C186.66 421.591 187.019 422.464 187.019 423.5C187.019 424.536 186.66 425.409 185.941 426.118ZM183.323 425.992C184.023 425.992 184.611 425.754 185.087 425.278C185.563 424.802 185.801 424.209 185.801 423.5C185.801 422.791 185.563 422.198 185.087 421.722C184.611 421.246 184.023 421.008 183.323 421.008C182.633 421.008 182.049 421.246 181.573 421.722C181.097 422.198 180.859 422.791 180.859 423.5C180.859 424.209 181.097 424.802 181.573 425.278C182.049 425.754 182.633 425.992 183.323 425.992ZM189.673 421.176C190.075 420.308 190.803 419.874 191.857 419.874V421.148C191.26 421.12 190.747 421.279 190.317 421.624C189.888 421.969 189.673 422.525 189.673 423.29V427H188.455V420H189.673V421.176ZM197.021 421.176H195.159V424.97C195.159 425.315 195.224 425.563 195.355 425.712C195.495 425.852 195.705 425.927 195.985 425.936C196.265 425.936 196.61 425.927 197.021 425.908V427C195.957 427.14 195.178 427.056 194.683 426.748C194.188 426.431 193.941 425.838 193.941 424.97V421.176H192.555V420H193.941V418.404L195.159 418.04V420H197.021V421.176Z" fill="white"/>
<g clip-path="url(#clip4_1_308)">
<path d="M87.6667 470.387V471C87.6658 472.438 87.2003 473.836 86.3396 474.988C85.4788 476.139 84.2689 476.982 82.8902 477.389C81.5116 477.797 80.0382 477.748 78.6896 477.25C77.3411 476.752 76.1898 475.831 75.4073 474.625C74.6248 473.419 74.2532 471.992 74.3478 470.558C74.4424 469.123 74.9981 467.758 75.9322 466.665C76.8662 465.572 78.1285 464.81 79.5308 464.493C80.9331 464.177 82.4002 464.322 83.7133 464.907" stroke="white" stroke-width="2" stroke-linecap="round" stroke-linejoin="round"/>
<path d="M87.6667 465.667L81 472.34L79 470.34" stroke="white" stroke-width="2" stroke-linecap="round" stroke-linejoin="round"/>
</g>
<path d="M104.735 475L103.937 472.802H99.5274L98.7294 475H97.3434L100.997 465.2H102.467L106.121 475H104.735ZM99.9754 471.584H103.489L101.725 466.754L99.9754 471.584ZM112.783 465.2H114.001V475H112.783V473.796C112.177 474.72 111.295 475.182 110.137 475.182C109.157 475.182 108.322 474.827 107.631 474.118C106.941 473.399 106.595 472.527 106.595 471.5C106.595 470.473 106.941 469.605 107.631 468.896C108.322 468.177 109.157 467.818 110.137 467.818C111.295 467.818 112.177 468.28 112.783 469.204V465.2ZM110.291 474.006C111.001 474.006 111.593 473.768 112.069 473.292C112.545 472.807 112.783 472.209 112.783 471.5C112.783 470.791 112.545 470.198 112.069 469.722C111.593 469.237 111.001 468.994 110.291 468.994C109.591 468.994 109.003 469.237 108.527 469.722C108.051 470.198 107.813 470.791 107.813 471.5C107.813 472.209 108.051 472.807 108.527 473.292C109.003 473.768 109.591 474.006 110.291 474.006ZM115.973 471.29V470.114H121.083V471.29H115.973ZM126.65 466.194C125.418 466.091 124.802 466.623 124.802 467.79V468H126.65V469.176H124.802V475H123.584V469.176H122.464V468H123.584V467.79C123.584 466.847 123.845 466.133 124.368 465.648C124.9 465.163 125.661 464.953 126.65 465.018V466.194ZM128.795 469.176C129.197 468.308 129.925 467.874 130.979 467.874V469.148C130.382 469.12 129.869 469.279 129.439 469.624C129.01 469.969 128.795 470.525 128.795 471.29V475H127.577V468H128.795V469.176ZM132.642 472.06C132.764 472.685 133.048 473.171 133.496 473.516C133.954 473.861 134.514 474.034 135.176 474.034C136.1 474.034 136.772 473.693 137.192 473.012L138.228 473.6C137.547 474.655 136.52 475.182 135.148 475.182C134.038 475.182 133.132 474.837 132.432 474.146C131.742 473.446 131.396 472.564 131.396 471.5C131.396 470.445 131.737 469.568 132.418 468.868C133.1 468.168 133.982 467.818 135.064 467.818C136.091 467.818 136.926 468.182 137.57 468.91C138.224 469.629 138.55 470.497 138.55 471.514C138.55 471.691 138.536 471.873 138.508 472.06H132.642ZM135.064 468.966C134.411 468.966 133.87 469.153 133.44 469.526C133.011 469.89 132.745 470.38 132.642 470.996H137.318C137.216 470.333 136.954 469.829 136.534 469.484C136.114 469.139 135.624 468.966 135.064 468.966ZM140.791 472.06C140.912 472.685 141.197 473.171 141.645 473.516C142.102 473.861 142.662 474.034 143.325 474.034C144.249 474.034 144.921 473.693 145.341 473.012L146.377 473.6C145.695 474.655 144.669 475.182 143.297 475.182C142.186 475.182 141.281 474.837 140.581 474.146C139.89 473.446 139.545 472.564 139.545 471.5C139.545 470.445 139.885 469.568 140.567 468.868C141.248 468.168 142.13 467.818 143.213 467.818C144.239 467.818 145.075 468.182 145.719 468.91C146.372 469.629 146.699 470.497 146.699 471.514C146.699 471.691 146.685 471.873 146.657 472.06H140.791ZM143.213 468.966C142.559 468.966 142.018 469.153 141.589 469.526C141.159 469.89 140.893 470.38 140.791 470.996H145.467C145.364 470.333 145.103 469.829 144.683 469.484C144.263 469.139 143.773 468.966 143.213 468.966ZM153.027 473.768H157.577V475H151.725V465.2H157.507V466.432H153.027V469.442H157.157V470.66H153.027V473.768ZM165.099 475H163.671L161.711 472.354L159.737 475H158.309L160.997 471.402L158.463 468H159.905L161.711 470.436L163.517 468H164.945L162.425 471.388L165.099 475ZM170.092 467.818C171.072 467.818 171.907 468.177 172.598 468.896C173.288 469.605 173.634 470.473 173.634 471.5C173.634 472.527 173.288 473.399 172.598 474.118C171.907 474.827 171.072 475.182 170.092 475.182C168.934 475.182 168.052 474.72 167.446 473.796V477.8H166.228V468H167.446V469.204C168.052 468.28 168.934 467.818 170.092 467.818ZM169.938 474.006C170.638 474.006 171.226 473.768 171.702 473.292C172.178 472.807 172.416 472.209 172.416 471.5C172.416 470.791 172.178 470.198 171.702 469.722C171.226 469.237 170.638 468.994 169.938 468.994C169.228 468.994 168.636 469.237 168.16 469.722C167.684 470.198 167.446 470.791 167.446 471.5C167.446 472.209 167.684 472.807 168.16 473.292C168.636 473.768 169.228 474.006 169.938 474.006ZM175.941 472.06C176.062 472.685 176.347 473.171 176.795 473.516C177.252 473.861 177.812 474.034 178.475 474.034C179.399 474.034 180.071 473.693 180.491 473.012L181.527 473.6C180.846 474.655 179.819 475.182 178.447 475.182C177.336 475.182 176.431 474.837 175.731 474.146C175.04 473.446 174.695 472.564 174.695 471.5C174.695 470.445 175.036 469.568 175.717 468.868C176.398 468.168 177.28 467.818 178.363 467.818C179.39 467.818 180.225 468.182 180.869 468.91C181.522 469.629 181.849 470.497 181.849 471.514C181.849 471.691 181.835 471.873 181.807 472.06H175.941ZM178.363 468.966C177.71 468.966 177.168 469.153 176.739 469.526C176.31 469.89 176.044 470.38 175.941 470.996H180.617C180.514 470.333 180.253 469.829 179.833 469.484C179.413 469.139 178.923 468.966 178.363 468.966ZM184.467 469.176C184.869 468.308 185.597 467.874 186.651 467.874V469.148C186.054 469.12 185.541 469.279 185.111 469.624C184.682 469.969 184.467 470.525 184.467 471.29V475H183.249V468H184.467V469.176ZM188.459 466.726C188.226 466.726 188.03 466.647 187.871 466.488C187.712 466.329 187.633 466.138 187.633 465.914C187.633 465.69 187.712 465.499 187.871 465.34C188.03 465.172 188.226 465.088 188.459 465.088C188.683 465.088 188.874 465.172 189.033 465.34C189.192 465.499 189.271 465.69 189.271 465.914C189.271 466.138 189.192 466.329 189.033 466.488C188.874 466.647 188.683 466.726 188.459 466.726ZM187.843 475V468H189.061V475H187.843ZM191.773 472.06C191.894 472.685 192.179 473.171 192.627 473.516C193.084 473.861 193.644 474.034 194.307 474.034C195.231 474.034 195.903 473.693 196.323 473.012L197.359 473.6C196.678 474.655 195.651 475.182 194.279 475.182C193.168 475.182 192.263 474.837 191.563 474.146C190.872 473.446 190.527 472.564 190.527 471.5C190.527 470.445 190.868 469.568 191.549 468.868C192.23 468.168 193.112 467.818 194.195 467.818C195.222 467.818 196.057 468.182 196.701 468.91C197.354 469.629 197.681 470.497 197.681 471.514C197.681 471.691 197.667 471.873 197.639 472.06H191.773ZM194.195 468.966C193.542 468.966 193 469.153 192.571 469.526C192.142 469.89 191.876 470.38 191.773 470.996H196.449C196.346 470.333 196.085 469.829 195.665 469.484C195.245 469.139 194.755 468.966 194.195 468.966ZM202.567 467.818C203.389 467.818 204.047 468.079 204.541 468.602C205.036 469.115 205.283 469.815 205.283 470.702V475H204.065V470.772C204.065 470.203 203.911 469.764 203.603 469.456C203.295 469.139 202.871 468.98 202.329 468.98C201.723 468.98 201.233 469.171 200.859 469.554C200.486 469.927 200.299 470.506 200.299 471.29V475H199.081V468H200.299V469.008C200.794 468.215 201.55 467.818 202.567 467.818ZM210.274 475.182C209.219 475.182 208.342 474.832 207.642 474.132C206.942 473.423 206.592 472.545 206.592 471.5C206.592 470.455 206.942 469.582 207.642 468.882C208.342 468.173 209.219 467.818 210.274 467.818C210.964 467.818 211.585 467.986 212.136 468.322C212.686 468.649 213.097 469.092 213.368 469.652L212.346 470.24C212.168 469.867 211.893 469.568 211.52 469.344C211.156 469.12 210.74 469.008 210.274 469.008C209.574 469.008 208.986 469.246 208.51 469.722C208.043 470.198 207.81 470.791 207.81 471.5C207.81 472.2 208.043 472.788 208.51 473.264C208.986 473.74 209.574 473.978 210.274 473.978C210.74 473.978 211.16 473.871 211.534 473.656C211.907 473.432 212.192 473.133 212.388 472.76L213.424 473.362C213.125 473.913 212.696 474.356 212.136 474.692C211.576 475.019 210.955 475.182 210.274 475.182ZM215.384 472.06C215.506 472.685 215.79 473.171 216.238 473.516C216.696 473.861 217.256 474.034 217.918 474.034C218.842 474.034 219.514 473.693 219.934 473.012L220.97 473.6C220.289 474.655 219.262 475.182 217.89 475.182C216.78 475.182 215.874 474.837 215.174 474.146C214.484 473.446 214.138 472.564 214.138 471.5C214.138 470.445 214.479 469.568 215.16 468.868C215.842 468.168 216.724 467.818 217.806 467.818C218.833 467.818 219.668 468.182 220.312 468.91C220.966 469.629 221.292 470.497 221.292 471.514C221.292 471.691 221.278 471.873 221.25 472.06H215.384ZM217.806 468.966C217.153 468.966 216.612 469.153 216.182 469.526C215.753 469.89 215.487 470.38 215.384 470.996H220.06C219.958 470.333 219.696 469.829 219.276 469.484C218.856 469.139 218.366 468.966 217.806 468.966Z" fill="white"/>
</g>
<defs>
<filter id="filter0_d_1_308" x="0" y="0" width="426" height="643" filterUnits="userSpaceOnUse" color-interpolation-filters="sRGB">
<feFlood flood-opacity="0" result="BackgroundImageFix"/>
<feColorMatrix in="SourceAlpha" type="matrix" values="0 0 0 0 0 0 0 0 0 0 0 0 0 0 0 0 0 0 127 0" result="hardAlpha"/>
<feOffset dy="4"/>
<feGaussianBlur stdDeviation="4"/>
<feComposite in2="hardAlpha" operator="out"/>
<feColorMatrix type="matrix" values="0 0 0 0 0 0 0 0 0 0 0 0 0 0 0 0 0 0 0.05 0"/>
<feBlend mode="normal" in2="BackgroundImageFix" result="effect1_dropShadow_1_308"/>
<feBlend mode="normal" in="SourceGraphic" in2="effect1_dropShadow_1_308" result="shape"/>
</filter>
<linearGradient id="paint0_linear_1_308" x1="213" y1="4" x2="213" y2="631" gradientUnits="userSpaceOnUse">
<stop offset="0.9999" stop-color="#1E3448"/>
<stop offset="1" stop-color="#1E3448" stop-opacity="0"/>
</linearGradient>
<clipPath id="clip0_1_308">
<rect width="16" height="16" fill="white" transform="translate(73 271)"/>
</clipPath>
<clipPath id="clip1_1_308">
<rect width="16" height="16" fill="white" transform="translate(73 319)"/>
</clipPath>
<clipPath id="clip2_1_308">
<rect width="16" height="16" fill="white" transform="translate(73 367)"/>
</clipPath>
<clipPath id="clip3_1_308">
<rect width="16" height="16" fill="white" transform="translate(73 415)"/>
</clipPath>
<clipPath id="clip4_1_308">
<rect width="16" height="16" fill="white" transform="translate(73 463)"/>
</clipPath>
</defs>
</svg>
