<svg width="395" height="471" viewBox="0 0 395 471" fill="none" xmlns="http://www.w3.org/2000/svg">
<g filter="url(#filter0_d_1_276)">
<rect x="8" y="4" width="379" height="455" rx="12" fill="white"/>
<path d="M100.904 36.2V38.312H95.9356V53H93.7276V38.312H88.7836V36.2H100.904ZM102.181 47.96C102.389 49.032 102.877 49.864 103.645 50.456C104.429 51.048 105.389 51.344 106.525 51.344C108.109 51.344 109.261 50.76 109.981 49.592L111.757 50.6C110.589 52.408 108.829 53.312 106.477 53.312C104.573 53.312 103.021 52.72 101.821 51.536C100.637 50.336 100.045 48.824 100.045 47C100.045 45.192 100.629 43.688 101.797 42.488C102.965 41.288 104.477 40.688 106.333 40.688C108.093 40.688 109.525 41.312 110.629 42.56C111.749 43.792 112.309 45.28 112.309 47.024C112.309 47.328 112.285 47.64 112.237 47.96H102.181ZM106.333 42.656C105.213 42.656 104.285 42.976 103.549 43.616C102.813 44.24 102.357 45.08 102.181 46.136H110.197C110.021 45 109.573 44.136 108.853 43.544C108.133 42.952 107.293 42.656 106.333 42.656ZM124.622 41H126.71V53H124.622V50.936C123.582 52.52 122.07 53.312 120.086 53.312C118.406 53.312 116.974 52.704 115.79 51.488C114.606 50.256 114.014 48.76 114.014 47C114.014 45.24 114.606 43.752 115.79 42.536C116.974 41.304 118.406 40.688 120.086 40.688C122.07 40.688 123.582 41.48 124.622 43.064V41ZM120.35 51.296C121.566 51.296 122.582 50.888 123.398 50.072C124.214 49.24 124.622 48.216 124.622 47C124.622 45.784 124.214 44.768 123.398 43.952C122.582 43.12 121.566 42.704 120.35 42.704C119.15 42.704 118.142 43.12 117.326 43.952C116.51 44.768 116.102 45.784 116.102 47C116.102 48.216 116.51 49.24 117.326 50.072C118.142 50.888 119.15 51.296 120.35 51.296ZM142.833 40.688C144.177 40.688 145.265 41.128 146.097 42.008C146.929 42.872 147.345 44.048 147.345 45.536V53H145.257V45.608C145.257 44.68 145.017 43.96 144.537 43.448C144.057 42.936 143.417 42.68 142.617 42.68C141.721 42.68 141.001 42.984 140.457 43.592C139.929 44.184 139.665 45.096 139.665 46.328V53H137.577V45.608C137.577 44.68 137.345 43.96 136.881 43.448C136.433 42.936 135.817 42.68 135.033 42.68C134.153 42.68 133.417 42.984 132.825 43.592C132.249 44.2 131.961 45.112 131.961 46.328V53H129.873V41H131.961V42.608C132.777 41.328 133.969 40.688 135.537 40.688C137.153 40.688 138.329 41.368 139.065 42.728C139.897 41.368 141.153 40.688 142.833 40.688ZM152.04 44.24C152.04 44.704 152.272 45.08 152.736 45.368C153.2 45.64 153.76 45.864 154.416 46.04C155.072 46.2 155.728 46.392 156.384 46.616C157.04 46.824 157.6 47.192 158.064 47.72C158.528 48.232 158.76 48.896 158.76 49.712C158.76 50.8 158.336 51.672 157.488 52.328C156.656 52.984 155.584 53.312 154.272 53.312C153.104 53.312 152.104 53.056 151.272 52.544C150.44 52.032 149.848 51.352 149.496 50.504L151.296 49.472C151.488 50.048 151.848 50.504 152.376 50.84C152.904 51.176 153.536 51.344 154.272 51.344C154.96 51.344 155.528 51.216 155.976 50.96C156.424 50.688 156.648 50.272 156.648 49.712C156.648 49.248 156.416 48.88 155.952 48.608C155.488 48.32 154.928 48.096 154.272 47.936C153.616 47.76 152.96 47.56 152.304 47.336C151.648 47.112 151.088 46.744 150.624 46.232C150.16 45.72 149.928 45.064 149.928 44.264C149.928 43.224 150.328 42.368 151.128 41.696C151.944 41.024 152.96 40.688 154.176 40.688C155.152 40.688 156.016 40.912 156.768 41.36C157.536 41.792 158.112 42.4 158.496 43.184L156.744 44.168C156.312 43.144 155.456 42.632 154.176 42.632C153.584 42.632 153.08 42.776 152.664 43.064C152.248 43.336 152.04 43.728 152.04 44.24Z" fill="#141414"/>
<path d="M115.155 123.16C115.155 125.507 114.409 127.413 112.915 128.88C111.422 130.32 109.475 131.187 107.075 131.48V135H104.395V131.52C102.155 131.36 100.235 130.733 98.6353 129.64C97.0353 128.547 95.8886 127.067 95.1953 125.2L99.9553 122.44C100.809 124.573 102.289 125.787 104.395 126.08V119.16C104.369 119.16 104.355 119.16 104.355 119.16L104.275 119.12C103.342 118.773 102.582 118.467 101.995 118.2C101.409 117.933 100.715 117.547 99.9153 117.04C99.142 116.533 98.5286 116.013 98.0753 115.48C97.6486 114.92 97.262 114.213 96.9153 113.36C96.5953 112.507 96.4353 111.573 96.4353 110.56C96.4353 108.213 97.1953 106.333 98.7153 104.92C100.262 103.507 102.155 102.693 104.395 102.48V99H107.075V102.56C110.702 102.987 113.262 104.867 114.755 108.2L110.115 110.92C109.475 109.32 108.462 108.347 107.075 108V114.68C109.555 115.667 111.222 116.453 112.075 117.04C114.129 118.507 115.155 120.547 115.155 123.16ZM101.915 110.6C101.915 111.187 102.102 111.707 102.475 112.16C102.849 112.587 103.489 113.027 104.395 113.48V107.88C103.595 108.04 102.982 108.36 102.555 108.84C102.129 109.32 101.915 109.907 101.915 110.6ZM107.075 126C108.782 125.627 109.635 124.693 109.635 123.2C109.635 122.533 109.422 121.973 108.995 121.52C108.595 121.067 107.955 120.64 107.075 120.24V126ZM117.228 131V126.88L126.788 117.04C128.922 114.8 129.988 112.933 129.988 111.44C129.988 110.347 129.642 109.467 128.948 108.8C128.282 108.133 127.415 107.8 126.348 107.8C124.242 107.8 122.682 108.893 121.668 111.08L117.028 108.36C117.908 106.44 119.175 104.973 120.828 103.96C122.482 102.947 124.295 102.44 126.268 102.44C128.802 102.44 130.975 103.24 132.788 104.84C134.602 106.413 135.508 108.547 135.508 111.24C135.508 114.147 133.975 117.133 130.908 120.2L125.428 125.68H135.948V131H117.228ZM148.091 113.2C150.784 113.2 153.051 114.013 154.891 115.64C156.731 117.24 157.651 119.48 157.651 122.36C157.651 125.24 156.677 127.493 154.731 129.12C152.811 130.747 150.451 131.56 147.651 131.56C145.384 131.56 143.384 131.053 141.651 130.04C139.917 129.027 138.664 127.533 137.891 125.56L142.611 122.8C143.304 125.04 144.984 126.16 147.651 126.16C149.064 126.16 150.157 125.827 150.931 125.16C151.731 124.467 152.131 123.533 152.131 122.36C152.131 121.213 151.744 120.293 150.971 119.6C150.197 118.907 149.144 118.56 147.811 118.56H139.331L140.451 103H156.331V108.16H145.571L145.211 113.2H148.091ZM162.405 135H160.125L176.125 99H178.405L162.405 135ZM204.222 110.44C206.516 110.44 208.342 111.187 209.702 112.68C211.089 114.173 211.782 116.173 211.782 118.68V131H206.622V119.04C206.622 117.84 206.329 116.907 205.742 116.24C205.156 115.573 204.329 115.24 203.262 115.24C202.089 115.24 201.169 115.627 200.502 116.4C199.862 117.173 199.542 118.293 199.542 119.76V131H194.382V119.04C194.382 117.84 194.089 116.907 193.502 116.24C192.916 115.573 192.089 115.24 191.022 115.24C189.876 115.24 188.956 115.627 188.262 116.4C187.596 117.173 187.262 118.293 187.262 119.76V131H182.102V111H187.262V113.12C188.462 111.333 190.316 110.44 192.822 110.44C195.276 110.44 197.089 111.4 198.262 113.32C199.596 111.4 201.582 110.44 204.222 110.44ZM233.205 128.52C231.151 130.547 228.645 131.56 225.685 131.56C222.725 131.56 220.218 130.547 218.165 128.52C216.138 126.467 215.125 123.96 215.125 121C215.125 118.04 216.138 115.547 218.165 113.52C220.218 111.467 222.725 110.44 225.685 110.44C228.645 110.44 231.151 111.467 233.205 113.52C235.258 115.547 236.285 118.04 236.285 121C236.285 123.96 235.258 126.467 233.205 128.52ZM221.805 124.96C222.845 126 224.138 126.52 225.685 126.52C227.231 126.52 228.525 126 229.565 124.96C230.605 123.92 231.125 122.6 231.125 121C231.125 119.4 230.605 118.08 229.565 117.04C228.525 116 227.231 115.48 225.685 115.48C224.138 115.48 222.845 116 221.805 117.04C220.791 118.08 220.285 119.4 220.285 121C220.285 122.6 220.791 123.92 221.805 124.96ZM251.035 110.44C253.221 110.44 255.021 111.173 256.435 112.64C257.875 114.107 258.595 116.133 258.595 118.72V131H253.435V119.36C253.435 118.027 253.075 117.013 252.355 116.32C251.635 115.6 250.675 115.24 249.475 115.24C248.141 115.24 247.075 115.653 246.275 116.48C245.475 117.307 245.075 118.547 245.075 120.2V131H239.915V111H245.075V113.24C246.328 111.373 248.315 110.44 251.035 110.44ZM274.441 115.96H269.921V124.28C269.921 124.973 270.094 125.48 270.441 125.8C270.787 126.12 271.294 126.307 271.961 126.36C272.627 126.387 273.454 126.373 274.441 126.32V131C270.894 131.4 268.387 131.067 266.921 130C265.481 128.933 264.761 127.027 264.761 124.28V115.96H261.281V111H264.761V106.96L269.921 105.4V111H274.441V115.96ZM289.199 110.44C291.385 110.44 293.185 111.173 294.599 112.64C296.039 114.107 296.759 116.133 296.759 118.72V131H291.599V119.36C291.599 118.027 291.239 117.013 290.519 116.32C289.799 115.6 288.839 115.24 287.639 115.24C286.305 115.24 285.239 115.653 284.439 116.48C283.639 117.307 283.239 118.547 283.239 120.2V131H278.079V103H283.239V113.24C284.492 111.373 286.479 110.44 289.199 110.44Z" fill="#141414"/>
<path d="M100.209 173.26C98.9028 173.26 97.7828 172.953 96.8495 172.34C95.9295 171.727 95.2828 170.887 94.9095 169.82L96.5095 168.9C97.0561 170.593 98.3028 171.44 100.249 171.44C101.209 171.44 101.943 171.247 102.449 170.86C102.956 170.46 103.209 169.933 103.209 169.28C103.209 168.613 102.956 168.113 102.449 167.78C101.943 167.447 101.096 167.093 99.9095 166.72C99.3228 166.533 98.8761 166.387 98.5695 166.28C98.2628 166.16 97.8761 165.987 97.4095 165.76C96.9561 165.52 96.6161 165.28 96.3895 165.04C96.1628 164.787 95.9561 164.46 95.7695 164.06C95.5961 163.66 95.5095 163.207 95.5095 162.7C95.5095 161.487 95.9361 160.527 96.7895 159.82C97.6428 159.1 98.6828 158.74 99.9095 158.74C101.016 158.74 101.976 159.02 102.789 159.58C103.616 160.14 104.236 160.88 104.649 161.8L103.089 162.7C102.489 161.26 101.429 160.54 99.9095 160.54C99.1495 160.54 98.5361 160.727 98.0695 161.1C97.6028 161.473 97.3695 161.98 97.3695 162.62C97.3695 163.233 97.5895 163.7 98.0295 164.02C98.4695 164.34 99.2295 164.673 100.309 165.02C100.696 165.14 100.969 165.227 101.129 165.28C101.289 165.333 101.536 165.427 101.869 165.56C102.216 165.693 102.469 165.8 102.629 165.88C102.789 165.96 103.003 166.073 103.269 166.22C103.549 166.367 103.756 166.507 103.889 166.64C104.023 166.773 104.176 166.94 104.349 167.14C104.536 167.327 104.669 167.52 104.749 167.72C104.829 167.92 104.896 168.153 104.949 168.42C105.016 168.673 105.049 168.947 105.049 169.24C105.049 170.467 104.603 171.447 103.709 172.18C102.816 172.9 101.649 173.26 100.209 173.26ZM112.052 162.74C113.225 162.74 114.165 163.113 114.872 163.86C115.579 164.593 115.932 165.593 115.932 166.86V173H114.192V166.96C114.192 166.147 113.972 165.52 113.532 165.08C113.092 164.627 112.485 164.4 111.712 164.4C110.845 164.4 110.145 164.673 109.612 165.22C109.079 165.753 108.812 166.58 108.812 167.7V173H107.072V159H108.812V164.44C109.519 163.307 110.599 162.74 112.052 162.74ZM126.641 163H128.381V173H126.641V171.28C125.774 172.6 124.514 173.26 122.861 173.26C121.461 173.26 120.268 172.753 119.281 171.74C118.294 170.713 117.801 169.467 117.801 168C117.801 166.533 118.294 165.293 119.281 164.28C120.268 163.253 121.461 162.74 122.861 162.74C124.514 162.74 125.774 163.4 126.641 164.72V163ZM123.081 171.58C124.094 171.58 124.941 171.24 125.621 170.56C126.301 169.867 126.641 169.013 126.641 168C126.641 166.987 126.301 166.14 125.621 165.46C124.941 164.767 124.094 164.42 123.081 164.42C122.081 164.42 121.241 164.767 120.561 165.46C119.881 166.14 119.541 166.987 119.541 168C119.541 169.013 119.881 169.867 120.561 170.56C121.241 171.24 122.081 171.58 123.081 171.58ZM132.757 164.68C133.331 163.44 134.371 162.82 135.877 162.82V164.64C135.024 164.6 134.291 164.827 133.677 165.32C133.064 165.813 132.757 166.607 132.757 167.7V173H131.017V163H132.757V164.68ZM138.253 168.8C138.426 169.693 138.833 170.387 139.473 170.88C140.126 171.373 140.926 171.62 141.873 171.62C143.193 171.62 144.153 171.133 144.753 170.16L146.233 171C145.26 172.507 143.793 173.26 141.833 173.26C140.246 173.26 138.953 172.767 137.953 171.78C136.966 170.78 136.473 169.52 136.473 168C136.473 166.493 136.96 165.24 137.933 164.24C138.906 163.24 140.166 162.74 141.713 162.74C143.18 162.74 144.373 163.26 145.293 164.3C146.226 165.327 146.693 166.567 146.693 168.02C146.693 168.273 146.673 168.533 146.633 168.8H138.253ZM141.713 164.38C140.78 164.38 140.006 164.647 139.393 165.18C138.78 165.7 138.4 166.4 138.253 167.28H144.933C144.786 166.333 144.413 165.613 143.813 165.12C143.213 164.627 142.513 164.38 141.713 164.38ZM165.473 163H167.293L164.193 173H162.413L160.073 165.6L157.733 173H155.953L152.853 163H154.673L156.873 170.6L159.233 163H160.913L163.273 170.62L165.473 163ZM169.964 161.18C169.63 161.18 169.35 161.067 169.124 160.84C168.897 160.613 168.784 160.34 168.784 160.02C168.784 159.7 168.897 159.427 169.124 159.2C169.35 158.96 169.63 158.84 169.964 158.84C170.284 158.84 170.557 158.96 170.784 159.2C171.01 159.427 171.124 159.7 171.124 160.02C171.124 160.34 171.01 160.613 170.784 160.84C170.557 161.067 170.284 161.18 169.964 161.18ZM169.084 173V163H170.824V173H169.084ZM178.918 164.68H176.258V170.1C176.258 170.593 176.352 170.947 176.538 171.16C176.738 171.36 177.038 171.467 177.438 171.48C177.838 171.48 178.332 171.467 178.918 171.44V173C177.398 173.2 176.285 173.08 175.578 172.64C174.872 172.187 174.518 171.34 174.518 170.1V164.68H172.538V163H174.518V160.72L176.258 160.2V163H178.918V164.68ZM185.958 162.74C187.132 162.74 188.072 163.113 188.778 163.86C189.485 164.593 189.838 165.593 189.838 166.86V173H188.098V166.96C188.098 166.147 187.878 165.52 187.438 165.08C186.998 164.627 186.392 164.4 185.618 164.4C184.752 164.4 184.052 164.673 183.518 165.22C182.985 165.753 182.718 166.58 182.718 167.7V173H180.978V159H182.718V164.44C183.425 163.307 184.505 162.74 185.958 162.74ZM204.167 163H205.907V173H204.167V171.56C203.461 172.693 202.381 173.26 200.927 173.26C199.754 173.26 198.814 172.893 198.107 172.16C197.401 171.413 197.047 170.407 197.047 169.14V163H198.787V169.04C198.787 169.853 199.007 170.487 199.447 170.94C199.887 171.38 200.494 171.6 201.267 171.6C202.134 171.6 202.834 171.333 203.367 170.8C203.901 170.253 204.167 169.42 204.167 168.3V163ZM214.076 162.74C215.476 162.74 216.67 163.253 217.656 164.28C218.643 165.293 219.136 166.533 219.136 168C219.136 169.467 218.643 170.713 217.656 171.74C216.67 172.753 215.476 173.26 214.076 173.26C212.423 173.26 211.163 172.6 210.296 171.28V177H208.556V163H210.296V164.72C211.163 163.4 212.423 162.74 214.076 162.74ZM213.856 171.58C214.856 171.58 215.696 171.24 216.376 170.56C217.056 169.867 217.396 169.013 217.396 168C217.396 166.987 217.056 166.14 216.376 165.46C215.696 164.767 214.856 164.42 213.856 164.42C212.843 164.42 211.996 164.767 211.316 165.46C210.636 166.14 210.296 166.987 210.296 168C210.296 169.013 210.636 169.867 211.316 170.56C211.996 171.24 212.843 171.58 213.856 171.58ZM231.653 164.68H228.993V170.1C228.993 170.593 229.086 170.947 229.273 171.16C229.473 171.36 229.773 171.467 230.173 171.48C230.573 171.48 231.066 171.467 231.653 171.44V173C230.133 173.2 229.019 173.08 228.313 172.64C227.606 172.187 227.253 171.34 227.253 170.1V164.68H225.273V163H227.253V160.72L228.993 160.2V163H231.653V164.68ZM241.645 171.74C240.618 172.753 239.371 173.26 237.905 173.26C236.438 173.26 235.191 172.753 234.165 171.74C233.151 170.727 232.645 169.48 232.645 168C232.645 166.52 233.151 165.273 234.165 164.26C235.191 163.247 236.438 162.74 237.905 162.74C239.371 162.74 240.618 163.247 241.645 164.26C242.671 165.273 243.185 166.52 243.185 168C243.185 169.48 242.671 170.727 241.645 171.74ZM237.905 171.56C238.905 171.56 239.745 171.22 240.425 170.54C241.105 169.86 241.445 169.013 241.445 168C241.445 166.987 241.105 166.14 240.425 165.46C239.745 164.78 238.905 164.44 237.905 164.44C236.918 164.44 236.085 164.78 235.405 165.46C234.725 166.14 234.385 166.987 234.385 168C234.385 169.013 234.725 169.86 235.405 170.54C236.085 171.22 236.918 171.56 237.905 171.56ZM252.876 159H254.476V173H252.636V161L249.656 161.88L249.196 160.28L252.876 159ZM266.325 171.28C265.378 172.6 264.052 173.26 262.345 173.26C260.638 173.26 259.312 172.6 258.365 171.28C257.418 169.96 256.945 168.2 256.945 166C256.945 163.8 257.418 162.04 258.365 160.72C259.312 159.4 260.638 158.74 262.345 158.74C264.052 158.74 265.378 159.4 266.325 160.72C267.272 162.04 267.745 163.8 267.745 166C267.745 168.2 267.272 169.96 266.325 171.28ZM259.725 170.02C260.338 170.967 261.212 171.44 262.345 171.44C263.478 171.44 264.352 170.967 264.965 170.02C265.592 169.073 265.905 167.733 265.905 166C265.905 164.267 265.592 162.927 264.965 161.98C264.352 161.02 263.478 160.54 262.345 160.54C261.212 160.54 260.338 161.013 259.725 161.96C259.112 162.907 258.805 164.253 258.805 166C258.805 167.733 259.112 169.073 259.725 170.02ZM281.863 163H283.603V173H281.863V171.56C281.156 172.693 280.076 173.26 278.623 173.26C277.449 173.26 276.509 172.893 275.803 172.16C275.096 171.413 274.743 170.407 274.743 169.14V163H276.483V169.04C276.483 169.853 276.703 170.487 277.143 170.94C277.583 171.38 278.189 171.6 278.963 171.6C279.829 171.6 280.529 171.333 281.063 170.8C281.596 170.253 281.863 169.42 281.863 168.3V163ZM287.732 165.7C287.732 166.087 287.925 166.4 288.312 166.64C288.699 166.867 289.165 167.053 289.712 167.2C290.259 167.333 290.805 167.493 291.352 167.68C291.899 167.853 292.365 168.16 292.752 168.6C293.139 169.027 293.332 169.58 293.332 170.26C293.332 171.167 292.979 171.893 292.272 172.44C291.579 172.987 290.685 173.26 289.592 173.26C288.619 173.26 287.785 173.047 287.092 172.62C286.399 172.193 285.905 171.627 285.612 170.92L287.112 170.06C287.272 170.54 287.572 170.92 288.012 171.2C288.452 171.48 288.979 171.62 289.592 171.62C290.165 171.62 290.639 171.513 291.012 171.3C291.385 171.073 291.572 170.727 291.572 170.26C291.572 169.873 291.379 169.567 290.992 169.34C290.605 169.1 290.139 168.913 289.592 168.78C289.045 168.633 288.499 168.467 287.952 168.28C287.405 168.093 286.939 167.787 286.552 167.36C286.165 166.933 285.972 166.387 285.972 165.72C285.972 164.853 286.305 164.14 286.972 163.58C287.652 163.02 288.499 162.74 289.512 162.74C290.325 162.74 291.045 162.927 291.672 163.3C292.312 163.66 292.792 164.167 293.112 164.82L291.652 165.64C291.292 164.787 290.579 164.36 289.512 164.36C289.019 164.36 288.599 164.48 288.252 164.72C287.905 164.947 287.732 165.273 287.732 165.7ZM296.339 168.8C296.512 169.693 296.919 170.387 297.559 170.88C298.212 171.373 299.012 171.62 299.959 171.62C301.279 171.62 302.239 171.133 302.839 170.16L304.319 171C303.345 172.507 301.879 173.26 299.919 173.26C298.332 173.26 297.039 172.767 296.039 171.78C295.052 170.78 294.559 169.52 294.559 168C294.559 166.493 295.045 165.24 296.019 164.24C296.992 163.24 298.252 162.74 299.799 162.74C301.265 162.74 302.459 163.26 303.379 164.3C304.312 165.327 304.779 166.567 304.779 168.02C304.779 168.273 304.759 168.533 304.719 168.8H296.339ZM299.799 164.38C298.865 164.38 298.092 164.647 297.479 165.18C296.865 165.7 296.485 166.4 296.339 167.28H303.019C302.872 166.333 302.499 165.613 301.899 165.12C301.299 164.627 300.599 164.38 299.799 164.38ZM308.519 164.68C309.092 163.44 310.132 162.82 311.639 162.82V164.64C310.786 164.6 310.052 164.827 309.439 165.32C308.826 165.813 308.519 166.607 308.519 167.7V173H306.779V163H308.519V164.68ZM314.47 165.7C314.47 166.087 314.664 166.4 315.05 166.64C315.437 166.867 315.904 167.053 316.45 167.2C316.997 167.333 317.544 167.493 318.09 167.68C318.637 167.853 319.104 168.16 319.49 168.6C319.877 169.027 320.07 169.58 320.07 170.26C320.07 171.167 319.717 171.893 319.01 172.44C318.317 172.987 317.424 173.26 316.33 173.26C315.357 173.26 314.524 173.047 313.83 172.62C313.137 172.193 312.644 171.627 312.35 170.92L313.85 170.06C314.01 170.54 314.31 170.92 314.75 171.2C315.19 171.48 315.717 171.62 316.33 171.62C316.904 171.62 317.377 171.513 317.75 171.3C318.124 171.073 318.31 170.727 318.31 170.26C318.31 169.873 318.117 169.567 317.73 169.34C317.344 169.1 316.877 168.913 316.33 168.78C315.784 168.633 315.237 168.467 314.69 168.28C314.144 168.093 313.677 167.787 313.29 167.36C312.904 166.933 312.71 166.387 312.71 165.72C312.71 164.853 313.044 164.14 313.71 163.58C314.39 163.02 315.237 162.74 316.25 162.74C317.064 162.74 317.784 162.927 318.41 163.3C319.05 163.66 319.53 164.167 319.85 164.82L318.39 165.64C318.03 164.787 317.317 164.36 316.25 164.36C315.757 164.36 315.337 164.48 314.99 164.72C314.644 164.947 314.47 165.273 314.47 165.7Z" fill="#141414"/>
<g clip-path="url(#clip0_1_276)">
<path d="M108.667 211.387V212C108.666 213.438 108.2 214.836 107.34 215.988C106.479 217.139 105.269 217.982 103.89 218.389C102.512 218.797 101.038 218.748 99.6896 218.25C98.3411 217.752 97.1898 216.831 96.4073 215.625C95.6248 214.419 95.2532 212.992 95.3478 211.558C95.4424 210.123 95.9981 208.758 96.9322 207.665C97.8662 206.572 99.1285 205.81 100.531 205.493C101.933 205.177 103.4 205.322 104.713 205.907" stroke="#005AE2" stroke-width="2" stroke-linecap="round" stroke-linejoin="round"/>
<path d="M108.667 206.667L102 213.34L100 211.34" stroke="#005AE2" stroke-width="2" stroke-linecap="round" stroke-linejoin="round"/>
</g>
<path d="M125.625 206.2V207.432H122.727V216H121.439V207.432H118.555V206.2H125.625ZM126.37 213.06C126.491 213.685 126.776 214.171 127.224 214.516C127.681 214.861 128.241 215.034 128.904 215.034C129.828 215.034 130.5 214.693 130.92 214.012L131.956 214.6C131.274 215.655 130.248 216.182 128.876 216.182C127.765 216.182 126.86 215.837 126.16 215.146C125.469 214.446 125.124 213.564 125.124 212.5C125.124 211.445 125.464 210.568 126.146 209.868C126.827 209.168 127.709 208.818 128.792 208.818C129.818 208.818 130.654 209.182 131.298 209.91C131.951 210.629 132.278 211.497 132.278 212.514C132.278 212.691 132.264 212.873 132.236 213.06H126.37ZM128.792 209.966C128.138 209.966 127.597 210.153 127.168 210.526C126.738 210.89 126.472 211.38 126.37 211.996H131.046C130.943 211.333 130.682 210.829 130.262 210.484C129.842 210.139 129.352 209.966 128.792 209.966ZM139.46 209H140.678V216H139.46V214.796C138.854 215.72 137.972 216.182 136.814 216.182C135.834 216.182 134.999 215.827 134.308 215.118C133.618 214.399 133.272 213.527 133.272 212.5C133.272 211.473 133.618 210.605 134.308 209.896C134.999 209.177 135.834 208.818 136.814 208.818C137.972 208.818 138.854 209.28 139.46 210.204V209ZM136.968 215.006C137.678 215.006 138.27 214.768 138.746 214.292C139.222 213.807 139.46 213.209 139.46 212.5C139.46 211.791 139.222 211.198 138.746 210.722C138.27 210.237 137.678 209.994 136.968 209.994C136.268 209.994 135.68 210.237 135.204 210.722C134.728 211.198 134.49 211.791 134.49 212.5C134.49 213.209 134.728 213.807 135.204 214.292C135.68 214.768 136.268 215.006 136.968 215.006ZM150.084 208.818C150.868 208.818 151.502 209.075 151.988 209.588C152.473 210.092 152.716 210.778 152.716 211.646V216H151.498V211.688C151.498 211.147 151.358 210.727 151.078 210.428C150.798 210.129 150.424 209.98 149.958 209.98C149.435 209.98 149.015 210.157 148.698 210.512C148.39 210.857 148.236 211.389 148.236 212.108V216H147.018V211.688C147.018 211.147 146.882 210.727 146.612 210.428C146.35 210.129 145.991 209.98 145.534 209.98C145.02 209.98 144.591 210.157 144.246 210.512C143.91 210.867 143.742 211.399 143.742 212.108V216H142.524V209H143.742V209.938C144.218 209.191 144.913 208.818 145.828 208.818C146.77 208.818 147.456 209.215 147.886 210.008C148.371 209.215 149.104 208.818 150.084 208.818ZM162.636 216.182C161.152 216.182 159.925 215.692 158.954 214.712C157.993 213.732 157.512 212.528 157.512 211.1C157.512 209.672 157.993 208.468 158.954 207.488C159.925 206.508 161.152 206.018 162.636 206.018C163.532 206.018 164.354 206.233 165.1 206.662C165.856 207.091 166.444 207.67 166.864 208.398L165.73 209.056C165.45 208.515 165.03 208.085 164.47 207.768C163.92 207.441 163.308 207.278 162.636 207.278C161.507 207.278 160.583 207.642 159.864 208.37C159.155 209.098 158.8 210.008 158.8 211.1C158.8 212.183 159.155 213.088 159.864 213.816C160.583 214.544 161.507 214.908 162.636 214.908C163.308 214.908 163.92 214.749 164.47 214.432C165.03 214.105 165.45 213.676 165.73 213.144L166.864 213.788C166.454 214.516 165.87 215.099 165.114 215.538C164.358 215.967 163.532 216.182 162.636 216.182ZM174.094 215.118C173.375 215.827 172.502 216.182 171.476 216.182C170.449 216.182 169.576 215.827 168.858 215.118C168.148 214.409 167.794 213.536 167.794 212.5C167.794 211.464 168.148 210.591 168.858 209.882C169.576 209.173 170.449 208.818 171.476 208.818C172.502 208.818 173.375 209.173 174.094 209.882C174.812 210.591 175.172 211.464 175.172 212.5C175.172 213.536 174.812 214.409 174.094 215.118ZM171.476 214.992C172.176 214.992 172.764 214.754 173.24 214.278C173.716 213.802 173.954 213.209 173.954 212.5C173.954 211.791 173.716 211.198 173.24 210.722C172.764 210.246 172.176 210.008 171.476 210.008C170.785 210.008 170.202 210.246 169.726 210.722C169.25 211.198 169.012 211.791 169.012 212.5C169.012 213.209 169.25 213.802 169.726 214.278C170.202 214.754 170.785 214.992 171.476 214.992ZM176.608 216V205.78H177.826V216H176.608ZM179.684 216V205.78H180.902V216H179.684ZM188.556 209H189.774V216H188.556V214.796C187.949 215.72 187.067 216.182 185.91 216.182C184.93 216.182 184.095 215.827 183.404 215.118C182.713 214.399 182.368 213.527 182.368 212.5C182.368 211.473 182.713 210.605 183.404 209.896C184.095 209.177 184.93 208.818 185.91 208.818C187.067 208.818 187.949 209.28 188.556 210.204V209ZM186.064 215.006C186.773 215.006 187.366 214.768 187.842 214.292C188.318 213.807 188.556 213.209 188.556 212.5C188.556 211.791 188.318 211.198 187.842 210.722C187.366 210.237 186.773 209.994 186.064 209.994C185.364 209.994 184.776 210.237 184.3 210.722C183.824 211.198 183.586 211.791 183.586 212.5C183.586 213.209 183.824 213.807 184.3 214.292C184.776 214.768 185.364 215.006 186.064 215.006ZM195.483 208.818C196.463 208.818 197.299 209.177 197.989 209.896C198.68 210.605 199.025 211.473 199.025 212.5C199.025 213.527 198.68 214.399 197.989 215.118C197.299 215.827 196.463 216.182 195.483 216.182C194.326 216.182 193.444 215.72 192.837 214.796V216H191.619V206.2H192.837V210.204C193.444 209.28 194.326 208.818 195.483 208.818ZM195.329 215.006C196.029 215.006 196.617 214.768 197.093 214.292C197.569 213.807 197.807 213.209 197.807 212.5C197.807 211.791 197.569 211.198 197.093 210.722C196.617 210.237 196.029 209.994 195.329 209.994C194.62 209.994 194.027 210.237 193.551 210.722C193.075 211.198 192.837 211.791 192.837 212.5C192.837 213.209 193.075 213.807 193.551 214.292C194.027 214.768 194.62 215.006 195.329 215.006ZM206.387 215.118C205.668 215.827 204.795 216.182 203.769 216.182C202.742 216.182 201.869 215.827 201.151 215.118C200.441 214.409 200.087 213.536 200.087 212.5C200.087 211.464 200.441 210.591 201.151 209.882C201.869 209.173 202.742 208.818 203.769 208.818C204.795 208.818 205.668 209.173 206.387 209.882C207.105 210.591 207.465 211.464 207.465 212.5C207.465 213.536 207.105 214.409 206.387 215.118ZM203.769 214.992C204.469 214.992 205.057 214.754 205.533 214.278C206.009 213.802 206.247 213.209 206.247 212.5C206.247 211.791 206.009 211.198 205.533 210.722C205.057 210.246 204.469 210.008 203.769 210.008C203.078 210.008 202.495 210.246 202.019 210.722C201.543 211.198 201.305 211.791 201.305 212.5C201.305 213.209 201.543 213.802 202.019 214.278C202.495 214.754 203.078 214.992 203.769 214.992ZM210.119 210.176C210.52 209.308 211.248 208.874 212.303 208.874V210.148C211.705 210.12 211.192 210.279 210.763 210.624C210.333 210.969 210.119 211.525 210.119 212.29V216H208.901V209H210.119V210.176ZM218.908 209H220.126V216H218.908V214.796C218.301 215.72 217.419 216.182 216.262 216.182C215.282 216.182 214.446 215.827 213.756 215.118C213.065 214.399 212.72 213.527 212.72 212.5C212.72 211.473 213.065 210.605 213.756 209.896C214.446 209.177 215.282 208.818 216.262 208.818C217.419 208.818 218.301 209.28 218.908 210.204V209ZM216.416 215.006C217.125 215.006 217.718 214.768 218.194 214.292C218.67 213.807 218.908 213.209 218.908 212.5C218.908 211.791 218.67 211.198 218.194 210.722C217.718 210.237 217.125 209.994 216.416 209.994C215.716 209.994 215.128 210.237 214.652 210.722C214.176 211.198 213.938 211.791 213.938 212.5C213.938 213.209 214.176 213.807 214.652 214.292C215.128 214.768 215.716 215.006 216.416 215.006ZM225.779 210.176H223.917V213.97C223.917 214.315 223.982 214.563 224.113 214.712C224.253 214.852 224.463 214.927 224.743 214.936C225.023 214.936 225.368 214.927 225.779 214.908V216C224.715 216.14 223.936 216.056 223.441 215.748C222.946 215.431 222.699 214.838 222.699 213.97V210.176H221.313V209H222.699V207.404L223.917 207.04V209H225.779V210.176ZM227.837 207.726C227.604 207.726 227.408 207.647 227.249 207.488C227.09 207.329 227.011 207.138 227.011 206.914C227.011 206.69 227.09 206.499 227.249 206.34C227.408 206.172 227.604 206.088 227.837 206.088C228.061 206.088 228.252 206.172 228.411 206.34C228.57 206.499 228.649 206.69 228.649 206.914C228.649 207.138 228.57 207.329 228.411 207.488C228.252 207.647 228.061 207.726 227.837 207.726ZM227.221 216V209H228.439V216H227.221ZM236.205 215.118C235.486 215.827 234.614 216.182 233.587 216.182C232.56 216.182 231.688 215.827 230.969 215.118C230.26 214.409 229.905 213.536 229.905 212.5C229.905 211.464 230.26 210.591 230.969 209.882C231.688 209.173 232.56 208.818 233.587 208.818C234.614 208.818 235.486 209.173 236.205 209.882C236.924 210.591 237.283 211.464 237.283 212.5C237.283 213.536 236.924 214.409 236.205 215.118ZM233.587 214.992C234.287 214.992 234.875 214.754 235.351 214.278C235.827 213.802 236.065 213.209 236.065 212.5C236.065 211.791 235.827 211.198 235.351 210.722C234.875 210.246 234.287 210.008 233.587 210.008C232.896 210.008 232.313 210.246 231.837 210.722C231.361 211.198 231.123 211.791 231.123 212.5C231.123 213.209 231.361 213.802 231.837 214.278C232.313 214.754 232.896 214.992 233.587 214.992ZM242.205 208.818C243.026 208.818 243.684 209.079 244.179 209.602C244.674 210.115 244.921 210.815 244.921 211.702V216H243.703V211.772C243.703 211.203 243.549 210.764 243.241 210.456C242.933 210.139 242.508 209.98 241.967 209.98C241.36 209.98 240.87 210.171 240.497 210.554C240.124 210.927 239.937 211.506 239.937 212.29V216H238.719V209H239.937V210.008C240.432 209.215 241.188 208.818 242.205 208.818Z" fill="#141414"/>
<g clip-path="url(#clip1_1_276)">
<path d="M108.667 259.387V260C108.666 261.438 108.2 262.836 107.34 263.988C106.479 265.139 105.269 265.982 103.89 266.389C102.512 266.797 101.038 266.748 99.6896 266.25C98.3411 265.752 97.1898 264.831 96.4073 263.625C95.6248 262.419 95.2532 260.992 95.3478 259.558C95.4424 258.123 95.9981 256.758 96.9322 255.665C97.8662 254.572 99.1285 253.81 100.531 253.493C101.933 253.177 103.4 253.322 104.713 253.907" stroke="#005AE2" stroke-width="2" stroke-linecap="round" stroke-linejoin="round"/>
<path d="M108.667 254.667L102 261.34L100 259.34" stroke="#005AE2" stroke-width="2" stroke-linecap="round" stroke-linejoin="round"/>
</g>
<path d="M125.352 263.244C124.67 263.869 123.788 264.182 122.706 264.182C121.623 264.182 120.736 263.869 120.046 263.244C119.364 262.609 119.024 261.765 119.024 260.71V254.2H120.326V260.654C120.326 261.345 120.531 261.895 120.942 262.306C121.352 262.707 121.94 262.908 122.706 262.908C123.471 262.908 124.059 262.707 124.47 262.306C124.88 261.895 125.086 261.345 125.086 260.654V254.2H126.374V260.71C126.374 261.765 126.033 262.609 125.352 263.244ZM129.22 258.89C129.22 259.161 129.355 259.38 129.626 259.548C129.897 259.707 130.223 259.837 130.606 259.94C130.989 260.033 131.371 260.145 131.754 260.276C132.137 260.397 132.463 260.612 132.734 260.92C133.005 261.219 133.14 261.606 133.14 262.082C133.14 262.717 132.893 263.225 132.398 263.608C131.913 263.991 131.287 264.182 130.522 264.182C129.841 264.182 129.257 264.033 128.772 263.734C128.287 263.435 127.941 263.039 127.736 262.544L128.786 261.942C128.898 262.278 129.108 262.544 129.416 262.74C129.724 262.936 130.093 263.034 130.522 263.034C130.923 263.034 131.255 262.959 131.516 262.81C131.777 262.651 131.908 262.409 131.908 262.082C131.908 261.811 131.773 261.597 131.502 261.438C131.231 261.27 130.905 261.139 130.522 261.046C130.139 260.943 129.757 260.827 129.374 260.696C128.991 260.565 128.665 260.351 128.394 260.052C128.123 259.753 127.988 259.371 127.988 258.904C127.988 258.297 128.221 257.798 128.688 257.406C129.164 257.014 129.757 256.818 130.466 256.818C131.035 256.818 131.539 256.949 131.978 257.21C132.426 257.462 132.762 257.817 132.986 258.274L131.964 258.848C131.712 258.251 131.213 257.952 130.466 257.952C130.121 257.952 129.827 258.036 129.584 258.204C129.341 258.363 129.22 258.591 129.22 258.89ZM135.245 261.06C135.366 261.685 135.651 262.171 136.099 262.516C136.556 262.861 137.116 263.034 137.779 263.034C138.703 263.034 139.375 262.693 139.795 262.012L140.831 262.6C140.149 263.655 139.123 264.182 137.751 264.182C136.64 264.182 135.735 263.837 135.035 263.146C134.344 262.446 133.999 261.564 133.999 260.5C133.999 259.445 134.339 258.568 135.021 257.868C135.702 257.168 136.584 256.818 137.667 256.818C138.693 256.818 139.529 257.182 140.173 257.91C140.826 258.629 141.153 259.497 141.153 260.514C141.153 260.691 141.139 260.873 141.111 261.06H135.245ZM137.667 257.966C137.013 257.966 136.472 258.153 136.043 258.526C135.613 258.89 135.347 259.38 135.245 259.996H139.921C139.818 259.333 139.557 258.829 139.137 258.484C138.717 258.139 138.227 257.966 137.667 257.966ZM143.771 258.176C144.172 257.308 144.9 256.874 145.955 256.874V258.148C145.358 258.12 144.844 258.279 144.415 258.624C143.986 258.969 143.771 259.525 143.771 260.29V264H142.553V257H143.771V258.176ZM156.583 264L154.385 260.248H152.075V264H150.773V254.2H154.693C155.533 254.2 156.251 254.499 156.849 255.096C157.446 255.684 157.745 256.398 157.745 257.238C157.745 257.873 157.553 258.451 157.171 258.974C156.797 259.497 156.312 259.865 155.715 260.08L158.025 264H156.583ZM152.075 255.418V259.072H154.693C155.178 259.072 155.589 258.895 155.925 258.54C156.27 258.176 156.443 257.742 156.443 257.238C156.443 256.734 156.27 256.305 155.925 255.95C155.589 255.595 155.178 255.418 154.693 255.418H152.075ZM164.758 263.118C164.039 263.827 163.166 264.182 162.14 264.182C161.113 264.182 160.24 263.827 159.522 263.118C158.812 262.409 158.458 261.536 158.458 260.5C158.458 259.464 158.812 258.591 159.522 257.882C160.24 257.173 161.113 256.818 162.14 256.818C163.166 256.818 164.039 257.173 164.758 257.882C165.476 258.591 165.836 259.464 165.836 260.5C165.836 261.536 165.476 262.409 164.758 263.118ZM162.14 262.992C162.84 262.992 163.428 262.754 163.904 262.278C164.38 261.802 164.618 261.209 164.618 260.5C164.618 259.791 164.38 259.198 163.904 258.722C163.428 258.246 162.84 258.008 162.14 258.008C161.449 258.008 160.866 258.246 160.39 258.722C159.914 259.198 159.676 259.791 159.676 260.5C159.676 261.209 159.914 261.802 160.39 262.278C160.866 262.754 161.449 262.992 162.14 262.992ZM167.272 264V253.78H168.49V264H167.272ZM171.202 261.06C171.323 261.685 171.608 262.171 172.056 262.516C172.513 262.861 173.073 263.034 173.736 263.034C174.66 263.034 175.332 262.693 175.752 262.012L176.788 262.6C176.106 263.655 175.08 264.182 173.708 264.182C172.597 264.182 171.692 263.837 170.992 263.146C170.301 262.446 169.956 261.564 169.956 260.5C169.956 259.445 170.296 258.568 170.978 257.868C171.659 257.168 172.541 256.818 173.624 256.818C174.65 256.818 175.486 257.182 176.13 257.91C176.783 258.629 177.11 259.497 177.11 260.514C177.11 260.691 177.096 260.873 177.068 261.06H171.202ZM173.624 257.966C172.97 257.966 172.429 258.153 172 258.526C171.57 258.89 171.304 259.38 171.202 259.996H175.878C175.775 259.333 175.514 258.829 175.094 258.484C174.674 258.139 174.184 257.966 173.624 257.966ZM179.287 258.89C179.287 259.161 179.422 259.38 179.693 259.548C179.963 259.707 180.29 259.837 180.673 259.94C181.055 260.033 181.438 260.145 181.821 260.276C182.203 260.397 182.53 260.612 182.801 260.92C183.071 261.219 183.207 261.606 183.207 262.082C183.207 262.717 182.959 263.225 182.465 263.608C181.979 263.991 181.354 264.182 180.589 264.182C179.907 264.182 179.324 264.033 178.839 263.734C178.353 263.435 178.008 263.039 177.803 262.544L178.853 261.942C178.965 262.278 179.175 262.544 179.483 262.74C179.791 262.936 180.159 263.034 180.589 263.034C180.99 263.034 181.321 262.959 181.583 262.81C181.844 262.651 181.975 262.409 181.975 262.082C181.975 261.811 181.839 261.597 181.569 261.438C181.298 261.27 180.971 261.139 180.589 261.046C180.206 260.943 179.823 260.827 179.441 260.696C179.058 260.565 178.731 260.351 178.461 260.052C178.19 259.753 178.055 259.371 178.055 258.904C178.055 258.297 178.288 257.798 178.755 257.406C179.231 257.014 179.823 256.818 180.533 256.818C181.102 256.818 181.606 256.949 182.045 257.21C182.493 257.462 182.829 257.817 183.053 258.274L182.031 258.848C181.779 258.251 181.279 257.952 180.533 257.952C180.187 257.952 179.893 258.036 179.651 258.204C179.408 258.363 179.287 258.591 179.287 258.89ZM193.945 257H195.163V264H193.945V262.796C193.338 263.72 192.456 264.182 191.299 264.182C190.319 264.182 189.483 263.827 188.793 263.118C188.102 262.399 187.757 261.527 187.757 260.5C187.757 259.473 188.102 258.605 188.793 257.896C189.483 257.177 190.319 256.818 191.299 256.818C192.456 256.818 193.338 257.28 193.945 258.204V257ZM191.453 263.006C192.162 263.006 192.755 262.768 193.231 262.292C193.707 261.807 193.945 261.209 193.945 260.5C193.945 259.791 193.707 259.198 193.231 258.722C192.755 258.237 192.162 257.994 191.453 257.994C190.753 257.994 190.165 258.237 189.689 258.722C189.213 259.198 188.975 259.791 188.975 260.5C188.975 261.209 189.213 261.807 189.689 262.292C190.165 262.768 190.753 263.006 191.453 263.006ZM200.494 256.818C201.315 256.818 201.973 257.079 202.468 257.602C202.963 258.115 203.21 258.815 203.21 259.702V264H201.992V259.772C201.992 259.203 201.838 258.764 201.53 258.456C201.222 258.139 200.797 257.98 200.256 257.98C199.649 257.98 199.159 258.171 198.786 258.554C198.413 258.927 198.226 259.506 198.226 260.29V264H197.008V257H198.226V258.008C198.721 257.215 199.477 256.818 200.494 256.818ZM210.706 254.2H211.924V264H210.706V262.796C210.1 263.72 209.218 264.182 208.06 264.182C207.08 264.182 206.245 263.827 205.554 263.118C204.864 262.399 204.518 261.527 204.518 260.5C204.518 259.473 204.864 258.605 205.554 257.896C206.245 257.177 207.08 256.818 208.06 256.818C209.218 256.818 210.1 257.28 210.706 258.204V254.2ZM208.214 263.006C208.924 263.006 209.516 262.768 209.992 262.292C210.468 261.807 210.706 261.209 210.706 260.5C210.706 259.791 210.468 259.198 209.992 258.722C209.516 258.237 208.924 257.994 208.214 257.994C207.514 257.994 206.926 258.237 206.45 258.722C205.974 259.198 205.736 259.791 205.736 260.5C205.736 261.209 205.974 261.807 206.45 262.292C206.926 262.768 207.514 263.006 208.214 263.006ZM220.952 254.2C221.857 254.2 222.608 254.503 223.206 255.11C223.812 255.707 224.116 256.454 224.116 257.35C224.116 258.237 223.812 258.983 223.206 259.59C222.608 260.197 221.857 260.5 220.952 260.5H218.698V264H217.396V254.2H220.952ZM220.952 259.282C221.493 259.282 221.941 259.1 222.296 258.736C222.65 258.363 222.828 257.901 222.828 257.35C222.828 256.79 222.65 256.328 222.296 255.964C221.941 255.6 221.493 255.418 220.952 255.418H218.698V259.282H220.952ZM225.848 261.06C225.97 261.685 226.254 262.171 226.702 262.516C227.16 262.861 227.72 263.034 228.382 263.034C229.306 263.034 229.978 262.693 230.398 262.012L231.434 262.6C230.753 263.655 229.726 264.182 228.354 264.182C227.244 264.182 226.338 263.837 225.638 263.146C224.948 262.446 224.602 261.564 224.602 260.5C224.602 259.445 224.943 258.568 225.624 257.868C226.306 257.168 227.188 256.818 228.27 256.818C229.297 256.818 230.132 257.182 230.776 257.91C231.43 258.629 231.756 259.497 231.756 260.514C231.756 260.691 231.742 260.873 231.714 261.06H225.848ZM228.27 257.966C227.617 257.966 227.076 258.153 226.646 258.526C226.217 258.89 225.951 259.38 225.848 259.996H230.524C230.422 259.333 230.16 258.829 229.74 258.484C229.32 258.139 228.83 257.966 228.27 257.966ZM234.374 258.176C234.776 257.308 235.504 256.874 236.558 256.874V258.148C235.961 258.12 235.448 258.279 235.018 258.624C234.589 258.969 234.374 259.525 234.374 260.29V264H233.156V257H234.374V258.176ZM245.31 256.818C246.094 256.818 246.729 257.075 247.214 257.588C247.7 258.092 247.942 258.778 247.942 259.646V264H246.724V259.688C246.724 259.147 246.584 258.727 246.304 258.428C246.024 258.129 245.651 257.98 245.184 257.98C244.662 257.98 244.242 258.157 243.924 258.512C243.616 258.857 243.462 259.389 243.462 260.108V264H242.244V259.688C242.244 259.147 242.109 258.727 241.838 258.428C241.577 258.129 241.218 257.98 240.76 257.98C240.247 257.98 239.818 258.157 239.472 258.512C239.136 258.867 238.968 259.399 238.968 260.108V264H237.75V257H238.968V257.938C239.444 257.191 240.14 256.818 241.054 256.818C241.997 256.818 242.683 257.215 243.112 258.008C243.598 257.215 244.33 256.818 245.31 256.818ZM250.247 255.726C250.014 255.726 249.818 255.647 249.659 255.488C249.5 255.329 249.421 255.138 249.421 254.914C249.421 254.69 249.5 254.499 249.659 254.34C249.818 254.172 250.014 254.088 250.247 254.088C250.471 254.088 250.662 254.172 250.821 254.34C250.98 254.499 251.059 254.69 251.059 254.914C251.059 255.138 250.98 255.329 250.821 255.488C250.662 255.647 250.471 255.726 250.247 255.726ZM249.631 264V257H250.849V264H249.631ZM253.744 258.89C253.744 259.161 253.879 259.38 254.15 259.548C254.42 259.707 254.747 259.837 255.13 259.94C255.512 260.033 255.895 260.145 256.278 260.276C256.66 260.397 256.987 260.612 257.258 260.92C257.528 261.219 257.664 261.606 257.664 262.082C257.664 262.717 257.416 263.225 256.922 263.608C256.436 263.991 255.811 264.182 255.046 264.182C254.364 264.182 253.781 264.033 253.296 263.734C252.81 263.435 252.465 263.039 252.26 262.544L253.31 261.942C253.422 262.278 253.632 262.544 253.94 262.74C254.248 262.936 254.616 263.034 255.046 263.034C255.447 263.034 255.778 262.959 256.04 262.81C256.301 262.651 256.432 262.409 256.432 262.082C256.432 261.811 256.296 261.597 256.026 261.438C255.755 261.27 255.428 261.139 255.046 261.046C254.663 260.943 254.28 260.827 253.898 260.696C253.515 260.565 253.188 260.351 252.918 260.052C252.647 259.753 252.512 259.371 252.512 258.904C252.512 258.297 252.745 257.798 253.212 257.406C253.688 257.014 254.28 256.818 254.99 256.818C255.559 256.818 256.063 256.949 256.502 257.21C256.95 257.462 257.286 257.817 257.51 258.274L256.488 258.848C256.236 258.251 255.736 257.952 254.99 257.952C254.644 257.952 254.35 258.036 254.108 258.204C253.865 258.363 253.744 258.591 253.744 258.89ZM259.718 258.89C259.718 259.161 259.853 259.38 260.124 259.548C260.395 259.707 260.721 259.837 261.104 259.94C261.487 260.033 261.869 260.145 262.252 260.276C262.635 260.397 262.961 260.612 263.232 260.92C263.503 261.219 263.638 261.606 263.638 262.082C263.638 262.717 263.391 263.225 262.896 263.608C262.411 263.991 261.785 264.182 261.02 264.182C260.339 264.182 259.755 264.033 259.27 263.734C258.785 263.435 258.439 263.039 258.234 262.544L259.284 261.942C259.396 262.278 259.606 262.544 259.914 262.74C260.222 262.936 260.591 263.034 261.02 263.034C261.421 263.034 261.753 262.959 262.014 262.81C262.275 262.651 262.406 262.409 262.406 262.082C262.406 261.811 262.271 261.597 262 261.438C261.729 261.27 261.403 261.139 261.02 261.046C260.637 260.943 260.255 260.827 259.872 260.696C259.489 260.565 259.163 260.351 258.892 260.052C258.621 259.753 258.486 259.371 258.486 258.904C258.486 258.297 258.719 257.798 259.186 257.406C259.662 257.014 260.255 256.818 260.964 256.818C261.533 256.818 262.037 256.949 262.476 257.21C262.924 257.462 263.26 257.817 263.484 258.274L262.462 258.848C262.21 258.251 261.711 257.952 260.964 257.952C260.619 257.952 260.325 258.036 260.082 258.204C259.839 258.363 259.718 258.591 259.718 258.89ZM265.628 255.726C265.395 255.726 265.199 255.647 265.04 255.488C264.881 255.329 264.802 255.138 264.802 254.914C264.802 254.69 264.881 254.499 265.04 254.34C265.199 254.172 265.395 254.088 265.628 254.088C265.852 254.088 266.043 254.172 266.202 254.34C266.361 254.499 266.44 254.69 266.44 254.914C266.44 255.138 266.361 255.329 266.202 255.488C266.043 255.647 265.852 255.726 265.628 255.726ZM265.012 264V257H266.23V264H265.012ZM273.996 263.118C273.277 263.827 272.405 264.182 271.378 264.182C270.351 264.182 269.479 263.827 268.76 263.118C268.051 262.409 267.696 261.536 267.696 260.5C267.696 259.464 268.051 258.591 268.76 257.882C269.479 257.173 270.351 256.818 271.378 256.818C272.405 256.818 273.277 257.173 273.996 257.882C274.715 258.591 275.074 259.464 275.074 260.5C275.074 261.536 274.715 262.409 273.996 263.118ZM271.378 262.992C272.078 262.992 272.666 262.754 273.142 262.278C273.618 261.802 273.856 261.209 273.856 260.5C273.856 259.791 273.618 259.198 273.142 258.722C272.666 258.246 272.078 258.008 271.378 258.008C270.687 258.008 270.104 258.246 269.628 258.722C269.152 259.198 268.914 259.791 268.914 260.5C268.914 261.209 269.152 261.802 269.628 262.278C270.104 262.754 270.687 262.992 271.378 262.992ZM279.996 256.818C280.817 256.818 281.475 257.079 281.97 257.602C282.465 258.115 282.712 258.815 282.712 259.702V264H281.494V259.772C281.494 259.203 281.34 258.764 281.032 258.456C280.724 258.139 280.299 257.98 279.758 257.98C279.151 257.98 278.661 258.171 278.288 258.554C277.915 258.927 277.728 259.506 277.728 260.29V264H276.51V257H277.728V258.008C278.223 257.215 278.979 256.818 279.996 256.818ZM285.462 258.89C285.462 259.161 285.598 259.38 285.868 259.548C286.139 259.707 286.466 259.837 286.848 259.94C287.231 260.033 287.614 260.145 287.996 260.276C288.379 260.397 288.706 260.612 288.976 260.92C289.247 261.219 289.382 261.606 289.382 262.082C289.382 262.717 289.135 263.225 288.64 263.608C288.155 263.991 287.53 264.182 286.764 264.182C286.083 264.182 285.5 264.033 285.014 263.734C284.529 263.435 284.184 263.039 283.978 262.544L285.028 261.942C285.14 262.278 285.35 262.544 285.658 262.74C285.966 262.936 286.335 263.034 286.764 263.034C287.166 263.034 287.497 262.959 287.758 262.81C288.02 262.651 288.15 262.409 288.15 262.082C288.15 261.811 288.015 261.597 287.744 261.438C287.474 261.27 287.147 261.139 286.764 261.046C286.382 260.943 285.999 260.827 285.616 260.696C285.234 260.565 284.907 260.351 284.636 260.052C284.366 259.753 284.23 259.371 284.23 258.904C284.23 258.297 284.464 257.798 284.93 257.406C285.406 257.014 285.999 256.818 286.708 256.818C287.278 256.818 287.782 256.949 288.22 257.21C288.668 257.462 289.004 257.817 289.228 258.274L288.206 258.848C287.954 258.251 287.455 257.952 286.708 257.952C286.363 257.952 286.069 258.036 285.826 258.204C285.584 258.363 285.462 258.591 285.462 258.89Z" fill="#141414"/>
<g clip-path="url(#clip2_1_276)">
<path d="M108.667 307.387V308C108.666 309.438 108.2 310.836 107.34 311.988C106.479 313.139 105.269 313.982 103.89 314.389C102.512 314.797 101.038 314.748 99.6896 314.25C98.3411 313.752 97.1898 312.831 96.4073 311.625C95.6248 310.419 95.2532 308.992 95.3478 307.558C95.4424 306.123 95.9981 304.758 96.9322 303.665C97.8662 302.572 99.1285 301.81 100.531 301.493C101.933 301.177 103.4 301.322 104.713 301.907" stroke="#005AE2" stroke-width="2" stroke-linecap="round" stroke-linejoin="round"/>
<path d="M108.667 302.667L102 309.34L100 307.34" stroke="#005AE2" stroke-width="2" stroke-linecap="round" stroke-linejoin="round"/>
</g>
<path d="M120.709 310.768H125.259V312H119.407V302.2H125.189V303.432H120.709V306.442H124.839V307.66H120.709V310.768ZM130.191 304.818C131.013 304.818 131.671 305.079 132.165 305.602C132.66 306.115 132.907 306.815 132.907 307.702V312H131.689V307.772C131.689 307.203 131.535 306.764 131.227 306.456C130.919 306.139 130.495 305.98 129.953 305.98C129.347 305.98 128.857 306.171 128.483 306.554C128.11 306.927 127.923 307.506 127.923 308.29V312H126.705V305H127.923V306.008C128.418 305.215 129.174 304.818 130.191 304.818ZM138.094 304.818C138.915 304.818 139.573 305.079 140.068 305.602C140.562 306.115 140.81 306.815 140.81 307.702V312H139.592V307.772C139.592 307.203 139.438 306.764 139.13 306.456C138.822 306.139 138.397 305.98 137.856 305.98C137.249 305.98 136.759 306.171 136.386 306.554C136.012 306.927 135.826 307.506 135.826 308.29V312H134.608V302.2H135.826V306.008C136.32 305.215 137.076 304.818 138.094 304.818ZM148.306 305H149.524V312H148.306V310.796C147.699 311.72 146.817 312.182 145.66 312.182C144.68 312.182 143.845 311.827 143.154 311.118C142.463 310.399 142.118 309.527 142.118 308.5C142.118 307.473 142.463 306.605 143.154 305.896C143.845 305.177 144.68 304.818 145.66 304.818C146.817 304.818 147.699 305.28 148.306 306.204V305ZM145.814 311.006C146.523 311.006 147.116 310.768 147.592 310.292C148.068 309.807 148.306 309.209 148.306 308.5C148.306 307.791 148.068 307.198 147.592 306.722C147.116 306.237 146.523 305.994 145.814 305.994C145.114 305.994 144.526 306.237 144.05 306.722C143.574 307.198 143.336 307.791 143.336 308.5C143.336 309.209 143.574 309.807 144.05 310.292C144.526 310.768 145.114 311.006 145.814 311.006ZM154.855 304.818C155.677 304.818 156.335 305.079 156.829 305.602C157.324 306.115 157.571 306.815 157.571 307.702V312H156.353V307.772C156.353 307.203 156.199 306.764 155.891 306.456C155.583 306.139 155.159 305.98 154.617 305.98C154.011 305.98 153.521 306.171 153.147 306.554C152.774 306.927 152.587 307.506 152.587 308.29V312H151.369V305H152.587V306.008C153.082 305.215 153.838 304.818 154.855 304.818ZM162.562 312.182C161.507 312.182 160.63 311.832 159.93 311.132C159.23 310.423 158.88 309.545 158.88 308.5C158.88 307.455 159.23 306.582 159.93 305.882C160.63 305.173 161.507 304.818 162.562 304.818C163.252 304.818 163.873 304.986 164.424 305.322C164.974 305.649 165.385 306.092 165.656 306.652L164.634 307.24C164.456 306.867 164.181 306.568 163.808 306.344C163.444 306.12 163.028 306.008 162.562 306.008C161.862 306.008 161.274 306.246 160.798 306.722C160.331 307.198 160.098 307.791 160.098 308.5C160.098 309.2 160.331 309.788 160.798 310.264C161.274 310.74 161.862 310.978 162.562 310.978C163.028 310.978 163.448 310.871 163.822 310.656C164.195 310.432 164.48 310.133 164.676 309.76L165.712 310.362C165.413 310.913 164.984 311.356 164.424 311.692C163.864 312.019 163.243 312.182 162.562 312.182ZM167.673 309.06C167.794 309.685 168.079 310.171 168.527 310.516C168.984 310.861 169.544 311.034 170.207 311.034C171.131 311.034 171.803 310.693 172.223 310.012L173.259 310.6C172.577 311.655 171.551 312.182 170.179 312.182C169.068 312.182 168.163 311.837 167.463 311.146C166.772 310.446 166.427 309.564 166.427 308.5C166.427 307.445 166.767 306.568 167.449 305.868C168.13 305.168 169.012 304.818 170.095 304.818C171.121 304.818 171.957 305.182 172.601 305.91C173.254 306.629 173.581 307.497 173.581 308.514C173.581 308.691 173.567 308.873 173.539 309.06H167.673ZM170.095 305.966C169.441 305.966 168.9 306.153 168.471 306.526C168.041 306.89 167.775 307.38 167.673 307.996H172.349C172.246 307.333 171.985 306.829 171.565 306.484C171.145 306.139 170.655 305.966 170.095 305.966ZM180.763 302.2H181.981V312H180.763V310.796C180.156 311.72 179.274 312.182 178.117 312.182C177.137 312.182 176.302 311.827 175.611 311.118C174.92 310.399 174.575 309.527 174.575 308.5C174.575 307.473 174.92 306.605 175.611 305.896C176.302 305.177 177.137 304.818 178.117 304.818C179.274 304.818 180.156 305.28 180.763 306.204V302.2ZM178.271 311.006C178.98 311.006 179.573 310.768 180.049 310.292C180.525 309.807 180.763 309.209 180.763 308.5C180.763 307.791 180.525 307.198 180.049 306.722C179.573 306.237 178.98 305.994 178.271 305.994C177.571 305.994 176.983 306.237 176.507 306.722C176.031 307.198 175.793 307.791 175.793 308.5C175.793 309.209 176.031 309.807 176.507 310.292C176.983 310.768 177.571 311.006 178.271 311.006ZM190.616 312.182C189.702 312.182 188.918 311.967 188.264 311.538C187.62 311.109 187.168 310.521 186.906 309.774L188.026 309.13C188.409 310.315 189.282 310.908 190.644 310.908C191.316 310.908 191.83 310.773 192.184 310.502C192.539 310.222 192.716 309.853 192.716 309.396C192.716 308.929 192.539 308.579 192.184 308.346C191.83 308.113 191.237 307.865 190.406 307.604C189.996 307.473 189.683 307.371 189.468 307.296C189.254 307.212 188.983 307.091 188.656 306.932C188.339 306.764 188.101 306.596 187.942 306.428C187.784 306.251 187.639 306.022 187.508 305.742C187.387 305.462 187.326 305.145 187.326 304.79C187.326 303.941 187.625 303.269 188.222 302.774C188.82 302.27 189.548 302.018 190.406 302.018C191.181 302.018 191.853 302.214 192.422 302.606C193.001 302.998 193.435 303.516 193.724 304.16L192.632 304.79C192.212 303.782 191.47 303.278 190.406 303.278C189.874 303.278 189.445 303.409 189.118 303.67C188.792 303.931 188.628 304.286 188.628 304.734C188.628 305.163 188.782 305.49 189.09 305.714C189.398 305.938 189.93 306.171 190.686 306.414C190.957 306.498 191.148 306.559 191.26 306.596C191.372 306.633 191.545 306.699 191.778 306.792C192.021 306.885 192.198 306.96 192.31 307.016C192.422 307.072 192.572 307.151 192.758 307.254C192.954 307.357 193.099 307.455 193.192 307.548C193.286 307.641 193.393 307.758 193.514 307.898C193.645 308.029 193.738 308.164 193.794 308.304C193.85 308.444 193.897 308.607 193.934 308.794C193.981 308.971 194.004 309.163 194.004 309.368C194.004 310.227 193.692 310.913 193.066 311.426C192.441 311.93 191.624 312.182 190.616 312.182ZM196.438 309.06C196.559 309.685 196.844 310.171 197.292 310.516C197.749 310.861 198.309 311.034 198.972 311.034C199.896 311.034 200.568 310.693 200.988 310.012L202.024 310.6C201.343 311.655 200.316 312.182 198.944 312.182C197.833 312.182 196.928 311.837 196.228 311.146C195.537 310.446 195.192 309.564 195.192 308.5C195.192 307.445 195.533 306.568 196.214 305.868C196.895 305.168 197.777 304.818 198.86 304.818C199.887 304.818 200.722 305.182 201.366 305.91C202.019 306.629 202.346 307.497 202.346 308.514C202.346 308.691 202.332 308.873 202.304 309.06H196.438ZM198.86 305.966C198.207 305.966 197.665 306.153 197.236 306.526C196.807 306.89 196.541 307.38 196.438 307.996H201.114C201.011 307.333 200.75 306.829 200.33 306.484C199.91 306.139 199.42 305.966 198.86 305.966ZM207.023 312.182C205.968 312.182 205.091 311.832 204.391 311.132C203.691 310.423 203.341 309.545 203.341 308.5C203.341 307.455 203.691 306.582 204.391 305.882C205.091 305.173 205.968 304.818 207.023 304.818C207.713 304.818 208.334 304.986 208.885 305.322C209.435 305.649 209.846 306.092 210.117 306.652L209.095 307.24C208.917 306.867 208.642 306.568 208.269 306.344C207.905 306.12 207.489 306.008 207.023 306.008C206.323 306.008 205.735 306.246 205.259 306.722C204.792 307.198 204.559 307.791 204.559 308.5C204.559 309.2 204.792 309.788 205.259 310.264C205.735 310.74 206.323 310.978 207.023 310.978C207.489 310.978 207.909 310.871 208.283 310.656C208.656 310.432 208.941 310.133 209.137 309.76L210.173 310.362C209.874 310.913 209.445 311.356 208.885 311.692C208.325 312.019 207.704 312.182 207.023 312.182ZM216.219 305H217.437V312H216.219V310.992C215.724 311.785 214.968 312.182 213.951 312.182C213.13 312.182 212.472 311.925 211.977 311.412C211.482 310.889 211.235 310.185 211.235 309.298V305H212.453V309.228C212.453 309.797 212.607 310.241 212.915 310.558C213.223 310.866 213.648 311.02 214.189 311.02C214.796 311.02 215.286 310.833 215.659 310.46C216.032 310.077 216.219 309.494 216.219 308.71V305ZM220.509 306.176C220.911 305.308 221.639 304.874 222.693 304.874V306.148C222.096 306.12 221.583 306.279 221.153 306.624C220.724 306.969 220.509 307.525 220.509 308.29V312H219.291V305H220.509V306.176ZM224.501 303.726C224.268 303.726 224.072 303.647 223.913 303.488C223.754 303.329 223.675 303.138 223.675 302.914C223.675 302.69 223.754 302.499 223.913 302.34C224.072 302.172 224.268 302.088 224.501 302.088C224.725 302.088 224.916 302.172 225.075 302.34C225.234 302.499 225.313 302.69 225.313 302.914C225.313 303.138 225.234 303.329 225.075 303.488C224.916 303.647 224.725 303.726 224.501 303.726ZM223.885 312V305H225.103V312H223.885ZM230.769 306.176H228.907V309.97C228.907 310.315 228.972 310.563 229.103 310.712C229.243 310.852 229.453 310.927 229.733 310.936C230.013 310.936 230.358 310.927 230.769 310.908V312C229.705 312.14 228.926 312.056 228.431 311.748C227.936 311.431 227.689 310.838 227.689 309.97V306.176H226.303V305H227.689V303.404L228.907 303.04V305H230.769V306.176ZM237.248 305H238.55L235.694 312.434C235.395 313.227 234.975 313.829 234.434 314.24C233.902 314.66 233.286 314.847 232.586 314.8V313.666C233.444 313.731 234.074 313.255 234.476 312.238L234.602 311.972L231.55 305H232.852L235.232 310.488L237.248 305Z" fill="#141414"/>
<g clip-path="url(#clip3_1_276)">
<path d="M108.667 355.387V356C108.666 357.438 108.2 358.836 107.34 359.988C106.479 361.139 105.269 361.982 103.89 362.389C102.512 362.797 101.038 362.748 99.6896 362.25C98.3411 361.752 97.1898 360.831 96.4073 359.625C95.6248 358.419 95.2532 356.992 95.3478 355.558C95.4424 354.123 95.9981 352.758 96.9322 351.665C97.8662 350.572 99.1285 349.81 100.531 349.493C101.933 349.177 103.4 349.322 104.713 349.907" stroke="#005AE2" stroke-width="2" stroke-linecap="round" stroke-linejoin="round"/>
<path d="M108.667 350.667L102 357.34L100 355.34" stroke="#005AE2" stroke-width="2" stroke-linecap="round" stroke-linejoin="round"/>
</g>
<path d="M125.824 360L125.026 357.802H120.616L119.818 360H118.432L122.086 350.2H123.556L127.21 360H125.824ZM121.064 356.584H124.578L122.814 351.754L121.064 356.584ZM131.922 350.2C132.828 350.2 133.579 350.503 134.176 351.11C134.783 351.707 135.086 352.454 135.086 353.35C135.086 354.237 134.783 354.983 134.176 355.59C133.579 356.197 132.828 356.5 131.922 356.5H129.668V360H128.366V350.2H131.922ZM131.922 355.282C132.464 355.282 132.912 355.1 133.266 354.736C133.621 354.363 133.798 353.901 133.798 353.35C133.798 352.79 133.621 352.328 133.266 351.964C132.912 351.6 132.464 351.418 131.922 351.418H129.668V355.282H131.922ZM136.624 350.2H137.926V360H136.624V350.2ZM149.983 360L149.185 357.802H144.775L143.977 360H142.591L146.245 350.2H147.715L151.369 360H149.983ZM145.223 356.584H148.737L146.973 351.754L145.223 356.584ZM155.525 360.182C154.47 360.182 153.593 359.832 152.893 359.132C152.193 358.423 151.843 357.545 151.843 356.5C151.843 355.455 152.193 354.582 152.893 353.882C153.593 353.173 154.47 352.818 155.525 352.818C156.215 352.818 156.836 352.986 157.387 353.322C157.937 353.649 158.348 354.092 158.619 354.652L157.597 355.24C157.419 354.867 157.144 354.568 156.771 354.344C156.407 354.12 155.991 354.008 155.525 354.008C154.825 354.008 154.237 354.246 153.761 354.722C153.294 355.198 153.061 355.791 153.061 356.5C153.061 357.2 153.294 357.788 153.761 358.264C154.237 358.74 154.825 358.978 155.525 358.978C155.991 358.978 156.411 358.871 156.785 358.656C157.158 358.432 157.443 358.133 157.639 357.76L158.675 358.362C158.376 358.913 157.947 359.356 157.387 359.692C156.827 360.019 156.206 360.182 155.525 360.182ZM163.071 360.182C162.017 360.182 161.139 359.832 160.439 359.132C159.739 358.423 159.389 357.545 159.389 356.5C159.389 355.455 159.739 354.582 160.439 353.882C161.139 353.173 162.017 352.818 163.071 352.818C163.762 352.818 164.383 352.986 164.933 353.322C165.484 353.649 165.895 354.092 166.165 354.652L165.143 355.24C164.966 354.867 164.691 354.568 164.317 354.344C163.953 354.12 163.538 354.008 163.071 354.008C162.371 354.008 161.783 354.246 161.307 354.722C160.841 355.198 160.607 355.791 160.607 356.5C160.607 357.2 160.841 357.788 161.307 358.264C161.783 358.74 162.371 358.978 163.071 358.978C163.538 358.978 163.958 358.871 164.331 358.656C164.705 358.432 164.989 358.133 165.185 357.76L166.221 358.362C165.923 358.913 165.493 359.356 164.933 359.692C164.373 360.019 163.753 360.182 163.071 360.182ZM168.182 357.06C168.304 357.685 168.588 358.171 169.036 358.516C169.494 358.861 170.054 359.034 170.716 359.034C171.64 359.034 172.312 358.693 172.732 358.012L173.768 358.6C173.087 359.655 172.06 360.182 170.688 360.182C169.578 360.182 168.672 359.837 167.972 359.146C167.282 358.446 166.936 357.564 166.936 356.5C166.936 355.445 167.277 354.568 167.958 353.868C168.64 353.168 169.522 352.818 170.604 352.818C171.631 352.818 172.466 353.182 173.11 353.91C173.764 354.629 174.09 355.497 174.09 356.514C174.09 356.691 174.076 356.873 174.048 357.06H168.182ZM170.604 353.966C169.951 353.966 169.41 354.153 168.98 354.526C168.551 354.89 168.285 355.38 168.182 355.996H172.858C172.756 355.333 172.494 354.829 172.074 354.484C171.654 354.139 171.164 353.966 170.604 353.966ZM176.267 354.89C176.267 355.161 176.402 355.38 176.673 355.548C176.944 355.707 177.27 355.837 177.653 355.94C178.036 356.033 178.418 356.145 178.801 356.276C179.184 356.397 179.51 356.612 179.781 356.92C180.052 357.219 180.187 357.606 180.187 358.082C180.187 358.717 179.94 359.225 179.445 359.608C178.96 359.991 178.334 360.182 177.569 360.182C176.888 360.182 176.304 360.033 175.819 359.734C175.334 359.435 174.988 359.039 174.783 358.544L175.833 357.942C175.945 358.278 176.155 358.544 176.463 358.74C176.771 358.936 177.14 359.034 177.569 359.034C177.97 359.034 178.302 358.959 178.563 358.81C178.824 358.651 178.955 358.409 178.955 358.082C178.955 357.811 178.82 357.597 178.549 357.438C178.278 357.27 177.952 357.139 177.569 357.046C177.186 356.943 176.804 356.827 176.421 356.696C176.038 356.565 175.712 356.351 175.441 356.052C175.17 355.753 175.035 355.371 175.035 354.904C175.035 354.297 175.268 353.798 175.735 353.406C176.211 353.014 176.804 352.818 177.513 352.818C178.082 352.818 178.586 352.949 179.025 353.21C179.473 353.462 179.809 353.817 180.033 354.274L179.011 354.848C178.759 354.251 178.26 353.952 177.513 353.952C177.168 353.952 176.874 354.036 176.631 354.204C176.388 354.363 176.267 354.591 176.267 354.89ZM182.242 354.89C182.242 355.161 182.377 355.38 182.648 355.548C182.918 355.707 183.245 355.837 183.628 355.94C184.01 356.033 184.393 356.145 184.776 356.276C185.158 356.397 185.485 356.612 185.756 356.92C186.026 357.219 186.162 357.606 186.162 358.082C186.162 358.717 185.914 359.225 185.42 359.608C184.934 359.991 184.309 360.182 183.544 360.182C182.862 360.182 182.279 360.033 181.794 359.734C181.308 359.435 180.963 359.039 180.758 358.544L181.808 357.942C181.92 358.278 182.13 358.544 182.438 358.74C182.746 358.936 183.114 359.034 183.544 359.034C183.945 359.034 184.276 358.959 184.538 358.81C184.799 358.651 184.93 358.409 184.93 358.082C184.93 357.811 184.794 357.597 184.524 357.438C184.253 357.27 183.926 357.139 183.544 357.046C183.161 356.943 182.778 356.827 182.396 356.696C182.013 356.565 181.686 356.351 181.416 356.052C181.145 355.753 181.01 355.371 181.01 354.904C181.01 354.297 181.243 353.798 181.71 353.406C182.186 353.014 182.778 352.818 183.488 352.818C184.057 352.818 184.561 352.949 185 353.21C185.448 353.462 185.784 353.817 186.008 354.274L184.986 354.848C184.734 354.251 184.234 353.952 183.488 353.952C183.142 353.952 182.848 354.036 182.606 354.204C182.363 354.363 182.242 354.591 182.242 354.89Z" fill="#141414"/>
<g clip-path="url(#clip4_1_276)">
<path d="M108.667 403.387V404C108.666 405.438 108.2 406.836 107.34 407.988C106.479 409.139 105.269 409.982 103.89 410.389C102.512 410.797 101.038 410.748 99.6896 410.25C98.3411 409.752 97.1898 408.831 96.4073 407.625C95.6248 406.419 95.2532 404.992 95.3478 403.558C95.4424 402.123 95.9981 400.758 96.9322 399.665C97.8662 398.572 99.1285 397.81 100.531 397.493C101.933 397.177 103.4 397.322 104.713 397.907" stroke="#005AE2" stroke-width="2" stroke-linecap="round" stroke-linejoin="round"/>
<path d="M108.667 398.667L102 405.34L100 403.34" stroke="#005AE2" stroke-width="2" stroke-linecap="round" stroke-linejoin="round"/>
</g>
<path d="M123.179 398.2C124.513 398.2 125.619 398.676 126.497 399.628C127.383 400.571 127.827 401.728 127.827 403.1C127.827 404.472 127.383 405.634 126.497 406.586C125.619 407.529 124.513 408 123.179 408H119.357V398.2H123.179ZM123.179 406.768C124.177 406.768 124.994 406.418 125.629 405.718C126.263 405.018 126.581 404.145 126.581 403.1C126.581 402.055 126.263 401.182 125.629 400.482C124.994 399.782 124.177 399.432 123.179 399.432H120.659V406.768H123.179ZM130.133 405.06C130.255 405.685 130.539 406.171 130.987 406.516C131.445 406.861 132.005 407.034 132.667 407.034C133.591 407.034 134.263 406.693 134.683 406.012L135.719 406.6C135.038 407.655 134.011 408.182 132.639 408.182C131.529 408.182 130.623 407.837 129.923 407.146C129.233 406.446 128.887 405.564 128.887 404.5C128.887 403.445 129.228 402.568 129.909 401.868C130.591 401.168 131.473 400.818 132.555 400.818C133.582 400.818 134.417 401.182 135.061 401.91C135.715 402.629 136.041 403.497 136.041 404.514C136.041 404.691 136.027 404.873 135.999 405.06H130.133ZM132.555 401.966C131.902 401.966 131.361 402.153 130.931 402.526C130.502 402.89 130.236 403.38 130.133 403.996H134.809C134.707 403.333 134.445 402.829 134.025 402.484C133.605 402.139 133.115 401.966 132.555 401.966ZM143.224 398.2H144.442V408H143.224V406.796C142.617 407.72 141.735 408.182 140.578 408.182C139.598 408.182 138.763 407.827 138.072 407.118C137.381 406.399 137.036 405.527 137.036 404.5C137.036 403.473 137.381 402.605 138.072 401.896C138.763 401.177 139.598 400.818 140.578 400.818C141.735 400.818 142.617 401.28 143.224 402.204V398.2ZM140.732 407.006C141.441 407.006 142.034 406.768 142.51 406.292C142.986 405.807 143.224 405.209 143.224 404.5C143.224 403.791 142.986 403.198 142.51 402.722C142.034 402.237 141.441 401.994 140.732 401.994C140.032 401.994 139.444 402.237 138.968 402.722C138.492 403.198 138.254 403.791 138.254 404.5C138.254 405.209 138.492 405.807 138.968 406.292C139.444 406.768 140.032 407.006 140.732 407.006ZM146.903 399.726C146.67 399.726 146.474 399.647 146.315 399.488C146.157 399.329 146.077 399.138 146.077 398.914C146.077 398.69 146.157 398.499 146.315 398.34C146.474 398.172 146.67 398.088 146.903 398.088C147.127 398.088 147.319 398.172 147.477 398.34C147.636 398.499 147.715 398.69 147.715 398.914C147.715 399.138 147.636 399.329 147.477 399.488C147.319 399.647 147.127 399.726 146.903 399.726ZM146.287 408V401H147.505V408H146.287ZM152.653 408.182C151.599 408.182 150.721 407.832 150.021 407.132C149.321 406.423 148.971 405.545 148.971 404.5C148.971 403.455 149.321 402.582 150.021 401.882C150.721 401.173 151.599 400.818 152.653 400.818C153.344 400.818 153.965 400.986 154.515 401.322C155.066 401.649 155.477 402.092 155.747 402.652L154.725 403.24C154.548 402.867 154.273 402.568 153.899 402.344C153.535 402.12 153.12 402.008 152.653 402.008C151.953 402.008 151.365 402.246 150.889 402.722C150.423 403.198 150.189 403.791 150.189 404.5C150.189 405.2 150.423 405.788 150.889 406.264C151.365 406.74 151.953 406.978 152.653 406.978C153.12 406.978 153.54 406.871 153.913 406.656C154.287 406.432 154.571 406.133 154.767 405.76L155.803 406.362C155.505 406.913 155.075 407.356 154.515 407.692C153.955 408.019 153.335 408.182 152.653 408.182ZM162.706 401H163.924V408H162.706V406.796C162.1 407.72 161.218 408.182 160.06 408.182C159.08 408.182 158.245 407.827 157.554 407.118C156.864 406.399 156.518 405.527 156.518 404.5C156.518 403.473 156.864 402.605 157.554 401.896C158.245 401.177 159.08 400.818 160.06 400.818C161.218 400.818 162.1 401.28 162.706 402.204V401ZM160.214 407.006C160.924 407.006 161.516 406.768 161.992 406.292C162.468 405.807 162.706 405.209 162.706 404.5C162.706 403.791 162.468 403.198 161.992 402.722C161.516 402.237 160.924 401.994 160.214 401.994C159.514 401.994 158.926 402.237 158.45 402.722C157.974 403.198 157.736 403.791 157.736 404.5C157.736 405.209 157.974 405.807 158.45 406.292C158.926 406.768 159.514 407.006 160.214 407.006ZM169.578 402.176H167.716V405.97C167.716 406.315 167.781 406.563 167.912 406.712C168.052 406.852 168.262 406.927 168.542 406.936C168.822 406.936 169.167 406.927 169.578 406.908V408C168.514 408.14 167.734 408.056 167.24 407.748C166.745 407.431 166.498 406.838 166.498 405.97V402.176H165.112V401H166.498V399.404L167.716 399.04V401H169.578V402.176ZM171.518 405.06C171.64 405.685 171.924 406.171 172.372 406.516C172.83 406.861 173.39 407.034 174.052 407.034C174.976 407.034 175.648 406.693 176.068 406.012L177.104 406.6C176.423 407.655 175.396 408.182 174.024 408.182C172.914 408.182 172.008 407.837 171.308 407.146C170.618 406.446 170.272 405.564 170.272 404.5C170.272 403.445 170.613 402.568 171.294 401.868C171.976 401.168 172.858 400.818 173.94 400.818C174.967 400.818 175.802 401.182 176.446 401.91C177.1 402.629 177.426 403.497 177.426 404.514C177.426 404.691 177.412 404.873 177.384 405.06H171.518ZM173.94 401.966C173.287 401.966 172.746 402.153 172.316 402.526C171.887 402.89 171.621 403.38 171.518 403.996H176.194C176.092 403.333 175.83 402.829 175.41 402.484C174.99 402.139 174.5 401.966 173.94 401.966ZM184.609 398.2H185.827V408H184.609V406.796C184.002 407.72 183.12 408.182 181.963 408.182C180.983 408.182 180.147 407.827 179.457 407.118C178.766 406.399 178.421 405.527 178.421 404.5C178.421 403.473 178.766 402.605 179.457 401.896C180.147 401.177 180.983 400.818 181.963 400.818C183.12 400.818 184.002 401.28 184.609 402.204V398.2ZM182.117 407.006C182.826 407.006 183.419 406.768 183.895 406.292C184.371 405.807 184.609 405.209 184.609 404.5C184.609 403.791 184.371 403.198 183.895 402.722C183.419 402.237 182.826 401.994 182.117 401.994C181.417 401.994 180.829 402.237 180.353 402.722C179.877 403.198 179.639 403.791 179.639 404.5C179.639 405.209 179.877 405.807 180.353 406.292C180.829 406.768 181.417 407.006 182.117 407.006ZM197.752 408L196.954 405.802H192.544L191.746 408H190.36L194.014 398.2H195.484L199.138 408H197.752ZM192.992 404.584H196.506L194.742 399.754L192.992 404.584ZM203.294 408.182C202.239 408.182 201.362 407.832 200.662 407.132C199.962 406.423 199.612 405.545 199.612 404.5C199.612 403.455 199.962 402.582 200.662 401.882C201.362 401.173 202.239 400.818 203.294 400.818C203.985 400.818 204.605 400.986 205.156 401.322C205.707 401.649 206.117 402.092 206.388 402.652L205.366 403.24C205.189 402.867 204.913 402.568 204.54 402.344C204.176 402.12 203.761 402.008 203.294 402.008C202.594 402.008 202.006 402.246 201.53 402.722C201.063 403.198 200.83 403.791 200.83 404.5C200.83 405.2 201.063 405.788 201.53 406.264C202.006 406.74 202.594 406.978 203.294 406.978C203.761 406.978 204.181 406.871 204.554 406.656C204.927 406.432 205.212 406.133 205.408 405.76L206.444 406.362C206.145 406.913 205.716 407.356 205.156 407.692C204.596 408.019 203.975 408.182 203.294 408.182ZM210.841 408.182C209.786 408.182 208.909 407.832 208.209 407.132C207.509 406.423 207.159 405.545 207.159 404.5C207.159 403.455 207.509 402.582 208.209 401.882C208.909 401.173 209.786 400.818 210.841 400.818C211.532 400.818 212.152 400.986 212.703 401.322C213.254 401.649 213.664 402.092 213.935 402.652L212.913 403.24C212.736 402.867 212.46 402.568 212.087 402.344C211.723 402.12 211.308 402.008 210.841 402.008C210.141 402.008 209.553 402.246 209.077 402.722C208.61 403.198 208.377 403.791 208.377 404.5C208.377 405.2 208.61 405.788 209.077 406.264C209.553 406.74 210.141 406.978 210.841 406.978C211.308 406.978 211.728 406.871 212.101 406.656C212.474 406.432 212.759 406.133 212.955 405.76L213.991 406.362C213.692 406.913 213.263 407.356 212.703 407.692C212.143 408.019 211.522 408.182 210.841 408.182ZM221.006 407.118C220.287 407.827 219.414 408.182 218.388 408.182C217.361 408.182 216.488 407.827 215.77 407.118C215.06 406.409 214.706 405.536 214.706 404.5C214.706 403.464 215.06 402.591 215.77 401.882C216.488 401.173 217.361 400.818 218.388 400.818C219.414 400.818 220.287 401.173 221.006 401.882C221.724 402.591 222.084 403.464 222.084 404.5C222.084 405.536 221.724 406.409 221.006 407.118ZM218.388 406.992C219.088 406.992 219.676 406.754 220.152 406.278C220.628 405.802 220.866 405.209 220.866 404.5C220.866 403.791 220.628 403.198 220.152 402.722C219.676 402.246 219.088 402.008 218.388 402.008C217.697 402.008 217.114 402.246 216.638 402.722C216.162 403.198 215.924 403.791 215.924 404.5C215.924 405.209 216.162 405.802 216.638 406.278C217.114 406.754 217.697 406.992 218.388 406.992ZM228.35 401H229.568V408H228.35V406.992C227.855 407.785 227.099 408.182 226.082 408.182C225.26 408.182 224.602 407.925 224.108 407.412C223.613 406.889 223.366 406.185 223.366 405.298V401H224.584V405.228C224.584 405.797 224.738 406.241 225.046 406.558C225.354 406.866 225.778 407.02 226.32 407.02C226.926 407.02 227.416 406.833 227.79 406.46C228.163 406.077 228.35 405.494 228.35 404.71V401ZM234.908 400.818C235.729 400.818 236.387 401.079 236.882 401.602C237.377 402.115 237.624 402.815 237.624 403.702V408H236.406V403.772C236.406 403.203 236.252 402.764 235.944 402.456C235.636 402.139 235.211 401.98 234.67 401.98C234.063 401.98 233.573 402.171 233.2 402.554C232.827 402.927 232.64 403.506 232.64 404.29V408H231.422V401H232.64V402.008C233.135 401.215 233.891 400.818 234.908 400.818ZM243.132 402.176H241.27V405.97C241.27 406.315 241.336 406.563 241.466 406.712C241.606 406.852 241.816 406.927 242.096 406.936C242.376 406.936 242.722 406.927 243.132 406.908V408C242.068 408.14 241.289 408.056 240.794 407.748C240.3 407.431 240.052 406.838 240.052 405.97V402.176H238.666V401H240.052V399.404L241.27 399.04V401H243.132V402.176ZM257.411 398.2V408H256.123V400.342L252.917 405.676H252.749L249.543 400.356V408H248.241V398.2H249.711L252.833 403.38L255.941 398.2H257.411ZM265.177 401H266.395V408H265.177V406.796C264.57 407.72 263.688 408.182 262.531 408.182C261.551 408.182 260.716 407.827 260.025 407.118C259.334 406.399 258.989 405.527 258.989 404.5C258.989 403.473 259.334 402.605 260.025 401.896C260.716 401.177 261.551 400.818 262.531 400.818C263.688 400.818 264.57 401.28 265.177 402.204V401ZM262.685 407.006C263.394 407.006 263.987 406.768 264.463 406.292C264.939 405.807 265.177 405.209 265.177 404.5C265.177 403.791 264.939 403.198 264.463 402.722C263.987 402.237 263.394 401.994 262.685 401.994C261.985 401.994 261.397 402.237 260.921 402.722C260.445 403.198 260.207 403.791 260.207 404.5C260.207 405.209 260.445 405.807 260.921 406.292C261.397 406.768 261.985 407.006 262.685 407.006ZM271.726 400.818C272.548 400.818 273.206 401.079 273.7 401.602C274.195 402.115 274.442 402.815 274.442 403.702V408H273.224V403.772C273.224 403.203 273.07 402.764 272.762 402.456C272.454 402.139 272.03 401.98 271.488 401.98C270.882 401.98 270.392 402.171 270.018 402.554C269.645 402.927 269.458 403.506 269.458 404.29V408H268.24V401H269.458V402.008C269.953 401.215 270.709 400.818 271.726 400.818ZM281.939 401H283.157V408H281.939V406.796C281.332 407.72 280.45 408.182 279.293 408.182C278.313 408.182 277.477 407.827 276.787 407.118C276.096 406.399 275.751 405.527 275.751 404.5C275.751 403.473 276.096 402.605 276.787 401.896C277.477 401.177 278.313 400.818 279.293 400.818C280.45 400.818 281.332 401.28 281.939 402.204V401ZM279.447 407.006C280.156 407.006 280.749 406.768 281.225 406.292C281.701 405.807 281.939 405.209 281.939 404.5C281.939 403.791 281.701 403.198 281.225 402.722C280.749 402.237 280.156 401.994 279.447 401.994C278.747 401.994 278.159 402.237 277.683 402.722C277.207 403.198 276.969 403.791 276.969 404.5C276.969 405.209 277.207 405.807 277.683 406.292C278.159 406.768 278.747 407.006 279.447 407.006ZM290.812 401H292.016V407.706C292.016 408.742 291.666 409.545 290.966 410.114C290.266 410.693 289.426 410.982 288.446 410.982C287.662 410.982 286.985 410.833 286.416 410.534C285.847 410.245 285.417 409.825 285.128 409.274L286.192 408.672C286.575 409.456 287.335 409.848 288.474 409.848C289.202 409.848 289.771 409.657 290.182 409.274C290.602 408.891 290.812 408.369 290.812 407.706V406.712C290.196 407.645 289.319 408.112 288.18 408.112C287.181 408.112 286.337 407.757 285.646 407.048C284.955 406.339 284.61 405.475 284.61 404.458C284.61 403.441 284.955 402.582 285.646 401.882C286.337 401.173 287.181 400.818 288.18 400.818C289.328 400.818 290.205 401.28 290.812 402.204V401ZM286.542 406.236C287.018 406.712 287.611 406.95 288.32 406.95C289.029 406.95 289.622 406.712 290.098 406.236C290.574 405.76 290.812 405.167 290.812 404.458C290.812 403.758 290.574 403.17 290.098 402.694C289.622 402.218 289.029 401.98 288.32 401.98C287.611 401.98 287.018 402.218 286.542 402.694C286.066 403.17 285.828 403.758 285.828 404.458C285.828 405.167 286.066 405.76 286.542 406.236ZM294.716 405.06C294.837 405.685 295.122 406.171 295.57 406.516C296.027 406.861 296.587 407.034 297.25 407.034C298.174 407.034 298.846 406.693 299.266 406.012L300.302 406.6C299.62 407.655 298.594 408.182 297.222 408.182C296.111 408.182 295.206 407.837 294.506 407.146C293.815 406.446 293.47 405.564 293.47 404.5C293.47 403.445 293.81 402.568 294.492 401.868C295.173 401.168 296.055 400.818 297.138 400.818C298.164 400.818 299 401.182 299.644 401.91C300.297 402.629 300.624 403.497 300.624 404.514C300.624 404.691 300.61 404.873 300.582 405.06H294.716ZM297.138 401.966C296.484 401.966 295.943 402.153 295.514 402.526C295.084 402.89 294.818 403.38 294.716 403.996H299.392C299.289 403.333 299.028 402.829 298.608 402.484C298.188 402.139 297.698 401.966 297.138 401.966ZM303.242 402.176C303.643 401.308 304.371 400.874 305.426 400.874V402.148C304.828 402.12 304.315 402.279 303.886 402.624C303.456 402.969 303.242 403.525 303.242 404.29V408H302.024V401H303.242V402.176Z" fill="#141414"/>
<rect x="8.2" y="4.2" width="378.6" height="454.6" rx="11.8" stroke="#005AE2" stroke-width="0.4"/>
</g>
<defs>
<filter id="filter0_d_1_276" x="0" y="0" width="395" height="471" filterUnits="userSpaceOnUse" color-interpolation-filters="sRGB">
<feFlood flood-opacity="0" result="BackgroundImageFix"/>
<feColorMatrix in="SourceAlpha" type="matrix" values="0 0 0 0 0 0 0 0 0 0 0 0 0 0 0 0 0 0 127 0" result="hardAlpha"/>
<feOffset dy="4"/>
<feGaussianBlur stdDeviation="4"/>
<feComposite in2="hardAlpha" operator="out"/>
<feColorMatrix type="matrix" values="0 0 0 0 0 0 0 0 0 0 0 0 0 0 0 0 0 0 0.05 0"/>
<feBlend mode="normal" in2="BackgroundImageFix" result="effect1_dropShadow_1_276"/>
<feBlend mode="normal" in="SourceGraphic" in2="effect1_dropShadow_1_276" result="shape"/>
</filter>
<clipPath id="clip0_1_276">
<rect width="16" height="16" fill="white" transform="translate(94 204)"/>
</clipPath>
<clipPath id="clip1_1_276">
<rect width="16" height="16" fill="white" transform="translate(94 252)"/>
</clipPath>
<clipPath id="clip2_1_276">
<rect width="16" height="16" fill="white" transform="translate(94 300)"/>
</clipPath>
<clipPath id="clip3_1_276">
<rect width="16" height="16" fill="white" transform="translate(94 348)"/>
</clipPath>
<clipPath id="clip4_1_276">
<rect width="16" height="16" fill="white" transform="translate(94 396)"/>
</clipPath>
</defs>
</svg>
