<svg width="395" height="471" viewBox="0 0 395 471" fill="none" xmlns="http://www.w3.org/2000/svg">
<g filter="url(#filter0_d_1_244)">
<rect x="8" y="4" width="379" height="455" rx="12" fill="white"/>
<path d="M106.763 42.288C107.531 42.656 108.139 43.184 108.587 43.872C109.051 44.56 109.283 45.352 109.283 46.248C109.283 47.592 108.811 48.72 107.867 49.632C106.923 50.544 105.771 51 104.411 51H97.1633V34.2H103.883C105.195 34.2 106.307 34.64 107.219 35.52C108.131 36.4 108.587 37.488 108.587 38.784C108.587 40.272 107.979 41.44 106.763 42.288ZM103.883 36.288H99.3953V41.424H103.883C104.587 41.424 105.179 41.176 105.659 40.68C106.139 40.184 106.379 39.576 106.379 38.856C106.379 38.152 106.131 37.552 105.635 37.056C105.155 36.544 104.571 36.288 103.883 36.288ZM104.411 48.912C105.163 48.912 105.795 48.648 106.307 48.12C106.819 47.592 107.075 46.944 107.075 46.176C107.075 45.424 106.811 44.784 106.283 44.256C105.771 43.728 105.147 43.464 104.411 43.464H99.3953V48.912H104.411ZM121.719 39H123.807V51H121.719V48.936C120.679 50.52 119.167 51.312 117.183 51.312C115.503 51.312 114.071 50.704 112.887 49.488C111.703 48.256 111.111 46.76 111.111 45C111.111 43.24 111.703 41.752 112.887 40.536C114.071 39.304 115.503 38.688 117.183 38.688C119.167 38.688 120.679 39.48 121.719 41.064V39ZM117.447 49.296C118.663 49.296 119.679 48.888 120.495 48.072C121.311 47.24 121.719 46.216 121.719 45C121.719 43.784 121.311 42.768 120.495 41.952C119.679 41.12 118.663 40.704 117.447 40.704C116.247 40.704 115.239 41.12 114.423 41.952C113.607 42.768 113.199 43.784 113.199 45C113.199 46.216 113.607 47.24 114.423 48.072C115.239 48.888 116.247 49.296 117.447 49.296ZM128.747 42.24C128.747 42.704 128.979 43.08 129.443 43.368C129.907 43.64 130.467 43.864 131.123 44.04C131.779 44.2 132.435 44.392 133.091 44.616C133.747 44.824 134.307 45.192 134.771 45.72C135.235 46.232 135.467 46.896 135.467 47.712C135.467 48.8 135.043 49.672 134.195 50.328C133.363 50.984 132.291 51.312 130.979 51.312C129.811 51.312 128.811 51.056 127.979 50.544C127.147 50.032 126.555 49.352 126.203 48.504L128.003 47.472C128.195 48.048 128.555 48.504 129.083 48.84C129.611 49.176 130.243 49.344 130.979 49.344C131.667 49.344 132.235 49.216 132.683 48.96C133.131 48.688 133.355 48.272 133.355 47.712C133.355 47.248 133.123 46.88 132.659 46.608C132.195 46.32 131.635 46.096 130.979 45.936C130.323 45.76 129.667 45.56 129.011 45.336C128.355 45.112 127.795 44.744 127.331 44.232C126.867 43.72 126.635 43.064 126.635 42.264C126.635 41.224 127.035 40.368 127.835 39.696C128.651 39.024 129.667 38.688 130.883 38.688C131.859 38.688 132.723 38.912 133.475 39.36C134.243 39.792 134.819 40.4 135.203 41.184L133.451 42.168C133.019 41.144 132.163 40.632 130.883 40.632C130.291 40.632 129.787 40.776 129.371 41.064C128.955 41.336 128.747 41.728 128.747 42.24ZM138.878 36.816C138.478 36.816 138.142 36.68 137.87 36.408C137.598 36.136 137.462 35.808 137.462 35.424C137.462 35.04 137.598 34.712 137.87 34.44C138.142 34.152 138.478 34.008 138.878 34.008C139.262 34.008 139.59 34.152 139.862 34.44C140.134 34.712 140.27 35.04 140.27 35.424C140.27 35.808 140.134 36.136 139.862 36.408C139.59 36.68 139.262 36.816 138.878 36.816ZM137.822 51V39H139.91V51H137.822ZM148.736 51.312C146.928 51.312 145.424 50.712 144.224 49.512C143.024 48.296 142.424 46.792 142.424 45C142.424 43.208 143.024 41.712 144.224 40.512C145.424 39.296 146.928 38.688 148.736 38.688C149.92 38.688 150.984 38.976 151.928 39.552C152.872 40.112 153.576 40.872 154.04 41.832L152.288 42.84C151.984 42.2 151.512 41.688 150.872 41.304C150.248 40.92 149.536 40.728 148.736 40.728C147.536 40.728 146.528 41.136 145.712 41.952C144.912 42.768 144.512 43.784 144.512 45C144.512 46.2 144.912 47.208 145.712 48.024C146.528 48.84 147.536 49.248 148.736 49.248C149.536 49.248 150.256 49.064 150.896 48.696C151.536 48.312 152.024 47.8 152.36 47.16L154.136 48.192C153.624 49.136 152.888 49.896 151.928 50.472C150.968 51.032 149.904 51.312 148.736 51.312Z" fill="#141414"/>
<path d="M114.527 106.28H103.327V112.92H114.207V118.2H103.327V129H97.807V101H114.527V106.28ZM123.469 112.44C123.949 111.16 124.736 110.2 125.829 109.56C126.949 108.92 128.189 108.6 129.549 108.6V114.36C127.976 114.173 126.563 114.493 125.309 115.32C124.083 116.147 123.469 117.52 123.469 119.44V129H118.309V109H123.469V112.44ZM136.185 121.12C136.878 123.627 138.758 124.88 141.825 124.88C143.798 124.88 145.292 124.213 146.305 122.88L150.465 125.28C148.492 128.133 145.585 129.56 141.745 129.56C138.438 129.56 135.785 128.56 133.785 126.56C131.785 124.56 130.785 122.04 130.785 119C130.785 115.987 131.772 113.48 133.745 111.48C135.718 109.453 138.252 108.44 141.345 108.44C144.278 108.44 146.692 109.453 148.585 111.48C150.505 113.507 151.465 116.013 151.465 119C151.465 119.667 151.398 120.373 151.265 121.12H136.185ZM136.105 117.12H146.305C146.012 115.76 145.398 114.747 144.465 114.08C143.558 113.413 142.518 113.08 141.345 113.08C139.958 113.08 138.812 113.44 137.905 114.16C136.998 114.853 136.398 115.84 136.105 117.12ZM159.271 121.12C159.964 123.627 161.844 124.88 164.911 124.88C166.884 124.88 168.377 124.213 169.391 122.88L173.551 125.28C171.577 128.133 168.671 129.56 164.831 129.56C161.524 129.56 158.871 128.56 156.871 126.56C154.871 124.56 153.871 122.04 153.871 119C153.871 115.987 154.857 113.48 156.831 111.48C158.804 109.453 161.337 108.44 164.431 108.44C167.364 108.44 169.777 109.453 171.671 111.48C173.591 113.507 174.551 116.013 174.551 119C174.551 119.667 174.484 120.373 174.351 121.12H159.271ZM159.191 117.12H169.391C169.097 115.76 168.484 114.747 167.551 114.08C166.644 113.413 165.604 113.08 164.431 113.08C163.044 113.08 161.897 113.44 160.991 114.16C160.084 114.853 159.484 115.84 159.191 117.12Z" fill="#141414"/>
<path d="M104.685 158.76H98.485V163.3H104.425V165.06H98.485V171H96.625V157H104.685V158.76ZM108.498 162.68C109.071 161.44 110.111 160.82 111.618 160.82V162.64C110.764 162.6 110.031 162.827 109.418 163.32C108.804 163.813 108.498 164.607 108.498 165.7V171H106.757V161H108.498V162.68ZM113.993 166.8C114.166 167.693 114.573 168.387 115.213 168.88C115.866 169.373 116.666 169.62 117.613 169.62C118.933 169.62 119.893 169.133 120.493 168.16L121.973 169C121 170.507 119.533 171.26 117.573 171.26C115.986 171.26 114.693 170.767 113.693 169.78C112.706 168.78 112.213 167.52 112.213 166C112.213 164.493 112.7 163.24 113.673 162.24C114.646 161.24 115.906 160.74 117.453 160.74C118.92 160.74 120.113 161.26 121.033 162.3C121.966 163.327 122.433 164.567 122.433 166.02C122.433 166.273 122.413 166.533 122.373 166.8H113.993ZM117.453 162.38C116.52 162.38 115.746 162.647 115.133 163.18C114.52 163.7 114.14 164.4 113.993 165.28H120.673C120.526 164.333 120.153 163.613 119.553 163.12C118.953 162.627 118.253 162.38 117.453 162.38ZM125.634 166.8C125.807 167.693 126.214 168.387 126.854 168.88C127.507 169.373 128.307 169.62 129.254 169.62C130.574 169.62 131.534 169.133 132.134 168.16L133.614 169C132.64 170.507 131.174 171.26 129.214 171.26C127.627 171.26 126.334 170.767 125.334 169.78C124.347 168.78 123.854 167.52 123.854 166C123.854 164.493 124.34 163.24 125.314 162.24C126.287 161.24 127.547 160.74 129.094 160.74C130.56 160.74 131.754 161.26 132.674 162.3C133.607 163.327 134.074 164.567 134.074 166.02C134.074 166.273 134.054 166.533 134.014 166.8H125.634ZM129.094 162.38C128.16 162.38 127.387 162.647 126.774 163.18C126.16 163.7 125.78 164.4 125.634 165.28H132.314C132.167 164.333 131.794 163.613 131.194 163.12C130.594 162.627 129.894 162.38 129.094 162.38ZM146.594 160.74C147.994 160.74 149.187 161.253 150.174 162.28C151.161 163.293 151.654 164.533 151.654 166C151.654 167.467 151.161 168.713 150.174 169.74C149.187 170.753 147.994 171.26 146.594 171.26C144.941 171.26 143.681 170.6 142.814 169.28V175H141.074V161H142.814V162.72C143.681 161.4 144.941 160.74 146.594 160.74ZM146.374 169.58C147.374 169.58 148.214 169.24 148.894 168.56C149.574 167.867 149.914 167.013 149.914 166C149.914 164.987 149.574 164.14 148.894 163.46C148.214 162.767 147.374 162.42 146.374 162.42C145.361 162.42 144.514 162.767 143.834 163.46C143.154 164.14 142.814 164.987 142.814 166C142.814 167.013 143.154 167.867 143.834 168.56C144.514 169.24 145.361 169.58 146.374 169.58ZM153.73 171V156.4H155.47V171H153.73ZM166.405 161H168.145V171H166.405V169.28C165.538 170.6 164.278 171.26 162.625 171.26C161.225 171.26 160.031 170.753 159.045 169.74C158.058 168.713 157.565 167.467 157.565 166C157.565 164.533 158.058 163.293 159.045 162.28C160.031 161.253 161.225 160.74 162.625 160.74C164.278 160.74 165.538 161.4 166.405 162.72V161ZM162.845 169.58C163.858 169.58 164.705 169.24 165.385 168.56C166.065 167.867 166.405 167.013 166.405 166C166.405 164.987 166.065 164.14 165.385 163.46C164.705 162.767 163.858 162.42 162.845 162.42C161.845 162.42 161.005 162.767 160.325 163.46C159.645 164.14 159.305 164.987 159.305 166C159.305 167.013 159.645 167.867 160.325 168.56C161.005 169.24 161.845 169.58 162.845 169.58ZM175.761 160.74C176.934 160.74 177.874 161.113 178.581 161.86C179.288 162.593 179.641 163.593 179.641 164.86V171H177.901V164.96C177.901 164.147 177.681 163.52 177.241 163.08C176.801 162.627 176.194 162.4 175.421 162.4C174.554 162.4 173.854 162.673 173.321 163.22C172.788 163.753 172.521 164.58 172.521 165.7V171H170.781V161H172.521V162.44C173.228 161.307 174.308 160.74 175.761 160.74ZM192.21 158.42C190.45 158.273 189.57 159.033 189.57 160.7V161H192.21V162.68H189.57V171H187.83V162.68H186.23V161H187.83V160.7C187.83 159.353 188.203 158.333 188.95 157.64C189.71 156.947 190.797 156.647 192.21 156.74V158.42ZM201.428 169.74C200.401 170.753 199.155 171.26 197.688 171.26C196.221 171.26 194.975 170.753 193.948 169.74C192.935 168.727 192.428 167.48 192.428 166C192.428 164.52 192.935 163.273 193.948 162.26C194.975 161.247 196.221 160.74 197.688 160.74C199.155 160.74 200.401 161.247 201.428 162.26C202.455 163.273 202.968 164.52 202.968 166C202.968 167.48 202.455 168.727 201.428 169.74ZM197.688 169.56C198.688 169.56 199.528 169.22 200.208 168.54C200.888 167.86 201.228 167.013 201.228 166C201.228 164.987 200.888 164.14 200.208 163.46C199.528 162.78 198.688 162.44 197.688 162.44C196.701 162.44 195.868 162.78 195.188 163.46C194.508 164.14 194.168 164.987 194.168 166C194.168 167.013 194.508 167.86 195.188 168.54C195.868 169.22 196.701 169.56 197.688 169.56ZM206.759 162.68C207.333 161.44 208.373 160.82 209.879 160.82V162.64C209.026 162.6 208.293 162.827 207.679 163.32C207.066 163.813 206.759 164.607 206.759 165.7V171H205.019V161H206.759V162.68ZM224.862 161H226.602V171H224.862V169.28C223.995 170.6 222.735 171.26 221.082 171.26C219.682 171.26 218.488 170.753 217.502 169.74C216.515 168.713 216.022 167.467 216.022 166C216.022 164.533 216.515 163.293 217.502 162.28C218.488 161.253 219.682 160.74 221.082 160.74C222.735 160.74 223.995 161.4 224.862 162.72V161ZM221.302 169.58C222.315 169.58 223.162 169.24 223.842 168.56C224.522 167.867 224.862 167.013 224.862 166C224.862 164.987 224.522 164.14 223.842 163.46C223.162 162.767 222.315 162.42 221.302 162.42C220.302 162.42 219.462 162.767 218.782 163.46C218.102 164.14 217.762 164.987 217.762 166C217.762 167.013 218.102 167.867 218.782 168.56C219.462 169.24 220.302 169.58 221.302 169.58ZM229.238 171V156.4H230.978V171H229.238ZM233.632 171V156.4H235.373V171H233.632ZM249.927 161H251.667V171H249.927V169.56C249.22 170.693 248.14 171.26 246.687 171.26C245.514 171.26 244.574 170.893 243.867 170.16C243.16 169.413 242.807 168.407 242.807 167.14V161H244.547V167.04C244.547 167.853 244.767 168.487 245.207 168.94C245.647 169.38 246.254 169.6 247.027 169.6C247.894 169.6 248.594 169.333 249.127 168.8C249.66 168.253 249.927 167.42 249.927 166.3V161ZM255.797 163.7C255.797 164.087 255.99 164.4 256.377 164.64C256.763 164.867 257.23 165.053 257.777 165.2C258.323 165.333 258.87 165.493 259.417 165.68C259.963 165.853 260.43 166.16 260.817 166.6C261.203 167.027 261.397 167.58 261.397 168.26C261.397 169.167 261.043 169.893 260.337 170.44C259.643 170.987 258.75 171.26 257.657 171.26C256.683 171.26 255.85 171.047 255.157 170.62C254.463 170.193 253.97 169.627 253.677 168.92L255.177 168.06C255.337 168.54 255.637 168.92 256.077 169.2C256.517 169.48 257.043 169.62 257.657 169.62C258.23 169.62 258.703 169.513 259.077 169.3C259.45 169.073 259.637 168.727 259.637 168.26C259.637 167.873 259.443 167.567 259.057 167.34C258.67 167.1 258.203 166.913 257.657 166.78C257.11 166.633 256.563 166.467 256.017 166.28C255.47 166.093 255.003 165.787 254.617 165.36C254.23 164.933 254.037 164.387 254.037 163.72C254.037 162.853 254.37 162.14 255.037 161.58C255.717 161.02 256.563 160.74 257.577 160.74C258.39 160.74 259.11 160.927 259.737 161.3C260.377 161.66 260.857 162.167 261.177 162.82L259.717 163.64C259.357 162.787 258.643 162.36 257.577 162.36C257.083 162.36 256.663 162.48 256.317 162.72C255.97 162.947 255.797 163.273 255.797 163.7ZM264.403 166.8C264.577 167.693 264.983 168.387 265.623 168.88C266.277 169.373 267.077 169.62 268.023 169.62C269.343 169.62 270.303 169.133 270.903 168.16L272.383 169C271.41 170.507 269.943 171.26 267.983 171.26C266.397 171.26 265.103 170.767 264.103 169.78C263.117 168.78 262.623 167.52 262.623 166C262.623 164.493 263.11 163.24 264.083 162.24C265.057 161.24 266.317 160.74 267.863 160.74C269.33 160.74 270.523 161.26 271.443 162.3C272.377 163.327 272.843 164.567 272.843 166.02C272.843 166.273 272.823 166.533 272.783 166.8H264.403ZM267.863 162.38C266.93 162.38 266.157 162.647 265.543 163.18C264.93 163.7 264.55 164.4 264.403 165.28H271.083C270.937 164.333 270.563 163.613 269.963 163.12C269.363 162.627 268.663 162.38 267.863 162.38ZM276.583 162.68C277.157 161.44 278.197 160.82 279.703 160.82V162.64C278.85 162.6 278.117 162.827 277.503 163.32C276.89 163.813 276.583 164.607 276.583 165.7V171H274.843V161H276.583V162.68ZM282.535 163.7C282.535 164.087 282.728 164.4 283.115 164.64C283.502 164.867 283.968 165.053 284.515 165.2C285.062 165.333 285.608 165.493 286.155 165.68C286.702 165.853 287.168 166.16 287.555 166.6C287.942 167.027 288.135 167.58 288.135 168.26C288.135 169.167 287.782 169.893 287.075 170.44C286.382 170.987 285.488 171.26 284.395 171.26C283.422 171.26 282.588 171.047 281.895 170.62C281.202 170.193 280.708 169.627 280.415 168.92L281.915 168.06C282.075 168.54 282.375 168.92 282.815 169.2C283.255 169.48 283.782 169.62 284.395 169.62C284.968 169.62 285.442 169.513 285.815 169.3C286.188 169.073 286.375 168.727 286.375 168.26C286.375 167.873 286.182 167.567 285.795 167.34C285.408 167.1 284.942 166.913 284.395 166.78C283.848 166.633 283.302 166.467 282.755 166.28C282.208 166.093 281.742 165.787 281.355 165.36C280.968 164.933 280.775 164.387 280.775 163.72C280.775 162.853 281.108 162.14 281.775 161.58C282.455 161.02 283.302 160.74 284.315 160.74C285.128 160.74 285.848 160.927 286.475 161.3C287.115 161.66 287.595 162.167 287.915 162.82L286.455 163.64C286.095 162.787 285.382 162.36 284.315 162.36C283.822 162.36 283.402 162.48 283.055 162.72C282.708 162.947 282.535 163.273 282.535 163.7Z" fill="#141414"/>
<g clip-path="url(#clip0_1_244)">
<path d="M109.667 209.387V210C109.666 211.438 109.2 212.836 108.34 213.988C107.479 215.139 106.269 215.982 104.89 216.389C103.512 216.797 102.038 216.748 100.69 216.25C99.3411 215.752 98.1898 214.831 97.4073 213.625C96.6249 212.419 96.2532 210.992 96.3478 209.558C96.4424 208.123 96.9981 206.758 97.9322 205.665C98.8662 204.572 100.129 203.81 101.531 203.493C102.933 203.177 104.4 203.322 105.713 203.907" stroke="#005AE2" stroke-width="2" stroke-linecap="round" stroke-linejoin="round"/>
<path d="M109.667 204.667L103 211.34L101 209.34" stroke="#005AE2" stroke-width="2" stroke-linecap="round" stroke-linejoin="round"/>
</g>
<path d="M126.397 213.244C125.715 213.869 124.833 214.182 123.751 214.182C122.668 214.182 121.781 213.869 121.091 213.244C120.409 212.609 120.069 211.765 120.069 210.71V204.2H121.371V210.654C121.371 211.345 121.576 211.895 121.987 212.306C122.397 212.707 122.985 212.908 123.751 212.908C124.516 212.908 125.104 212.707 125.515 212.306C125.925 211.895 126.131 211.345 126.131 210.654V204.2H127.419V210.71C127.419 211.765 127.078 212.609 126.397 213.244ZM132.769 206.818C133.591 206.818 134.249 207.079 134.743 207.602C135.238 208.115 135.485 208.815 135.485 209.702V214H134.267V209.772C134.267 209.203 134.113 208.764 133.805 208.456C133.497 208.139 133.073 207.98 132.531 207.98C131.925 207.98 131.435 208.171 131.061 208.554C130.688 208.927 130.501 209.506 130.501 210.29V214H129.283V207H130.501V208.008C130.996 207.215 131.752 206.818 132.769 206.818ZM137.186 214V203.78H138.404V214H137.186ZM140.878 205.726C140.645 205.726 140.449 205.647 140.29 205.488C140.131 205.329 140.052 205.138 140.052 204.914C140.052 204.69 140.131 204.499 140.29 204.34C140.449 204.172 140.645 204.088 140.878 204.088C141.102 204.088 141.293 204.172 141.452 204.34C141.611 204.499 141.69 204.69 141.69 204.914C141.69 205.138 141.611 205.329 141.452 205.488C141.293 205.647 141.102 205.726 140.878 205.726ZM140.262 214V207H141.48V214H140.262ZM150.898 206.818C151.682 206.818 152.317 207.075 152.802 207.588C153.287 208.092 153.53 208.778 153.53 209.646V214H152.312V209.688C152.312 209.147 152.172 208.727 151.892 208.428C151.612 208.129 151.239 207.98 150.772 207.98C150.249 207.98 149.829 208.157 149.512 208.512C149.204 208.857 149.05 209.389 149.05 210.108V214H147.832V209.688C147.832 209.147 147.697 208.727 147.426 208.428C147.165 208.129 146.805 207.98 146.348 207.98C145.835 207.98 145.405 208.157 145.06 208.512C144.724 208.867 144.556 209.399 144.556 210.108V214H143.338V207H144.556V207.938C145.032 207.191 145.727 206.818 146.642 206.818C147.585 206.818 148.271 207.215 148.7 208.008C149.185 207.215 149.918 206.818 150.898 206.818ZM155.835 205.726C155.602 205.726 155.406 205.647 155.247 205.488C155.088 205.329 155.009 205.138 155.009 204.914C155.009 204.69 155.088 204.499 155.247 204.34C155.406 204.172 155.602 204.088 155.835 204.088C156.059 204.088 156.25 204.172 156.409 204.34C156.568 204.499 156.647 204.69 156.647 204.914C156.647 205.138 156.568 205.329 156.409 205.488C156.25 205.647 156.059 205.726 155.835 205.726ZM155.219 214V207H156.437V214H155.219ZM162.103 208.176H160.241V211.97C160.241 212.315 160.306 212.563 160.437 212.712C160.577 212.852 160.787 212.927 161.067 212.936C161.347 212.936 161.692 212.927 162.103 212.908V214C161.039 214.14 160.26 214.056 159.765 213.748C159.27 213.431 159.023 212.838 159.023 211.97V208.176H157.637V207H159.023V205.404L160.241 205.04V207H162.103V208.176ZM164.044 211.06C164.165 211.685 164.45 212.171 164.898 212.516C165.355 212.861 165.915 213.034 166.578 213.034C167.502 213.034 168.174 212.693 168.594 212.012L169.63 212.6C168.948 213.655 167.922 214.182 166.55 214.182C165.439 214.182 164.534 213.837 163.834 213.146C163.143 212.446 162.798 211.564 162.798 210.5C162.798 209.445 163.138 208.568 163.82 207.868C164.501 207.168 165.383 206.818 166.466 206.818C167.492 206.818 168.328 207.182 168.972 207.91C169.625 208.629 169.952 209.497 169.952 210.514C169.952 210.691 169.938 210.873 169.91 211.06H164.044ZM166.466 207.966C165.812 207.966 165.271 208.153 164.842 208.526C164.412 208.89 164.146 209.38 164.044 209.996H168.72C168.617 209.333 168.356 208.829 167.936 208.484C167.516 208.139 167.026 207.966 166.466 207.966ZM177.134 204.2H178.352V214H177.134V212.796C176.527 213.72 175.645 214.182 174.488 214.182C173.508 214.182 172.673 213.827 171.982 213.118C171.291 212.399 170.946 211.527 170.946 210.5C170.946 209.473 171.291 208.605 171.982 207.896C172.673 207.177 173.508 206.818 174.488 206.818C175.645 206.818 176.527 207.28 177.134 208.204V204.2ZM174.642 213.006C175.351 213.006 175.944 212.768 176.42 212.292C176.896 211.807 177.134 211.209 177.134 210.5C177.134 209.791 176.896 209.198 176.42 208.722C175.944 208.237 175.351 207.994 174.642 207.994C173.942 207.994 173.354 208.237 172.878 208.722C172.402 209.198 172.164 209.791 172.164 210.5C172.164 211.209 172.402 211.807 172.878 212.292C173.354 212.768 173.942 213.006 174.642 213.006ZM190.025 213.244C189.344 213.869 188.462 214.182 187.379 214.182C186.297 214.182 185.41 213.869 184.719 213.244C184.038 212.609 183.697 211.765 183.697 210.71V204.2H184.999V210.654C184.999 211.345 185.205 211.895 185.615 212.306C186.026 212.707 186.614 212.908 187.379 212.908C188.145 212.908 188.733 212.707 189.143 212.306C189.554 211.895 189.759 211.345 189.759 210.654V204.2H191.047V210.71C191.047 211.765 190.707 212.609 190.025 213.244ZM198.848 214L196.65 210.248H194.34V214H193.038V204.2H196.958C197.798 204.2 198.517 204.499 199.114 205.096C199.712 205.684 200.01 206.398 200.01 207.238C200.01 207.873 199.819 208.451 199.436 208.974C199.063 209.497 198.578 209.865 197.98 210.08L200.29 214H198.848ZM194.34 205.418V209.072H196.958C197.444 209.072 197.854 208.895 198.19 208.54C198.536 208.176 198.708 207.742 198.708 207.238C198.708 206.734 198.536 206.305 198.19 205.95C197.854 205.595 197.444 205.418 196.958 205.418H194.34ZM202.899 212.768H207.127V214H201.597V204.2H202.899V212.768ZM215.097 214.182C214.182 214.182 213.398 213.967 212.745 213.538C212.101 213.109 211.648 212.521 211.387 211.774L212.507 211.13C212.889 212.315 213.762 212.908 215.125 212.908C215.797 212.908 216.31 212.773 216.665 212.502C217.019 212.222 217.197 211.853 217.197 211.396C217.197 210.929 217.019 210.579 216.665 210.346C216.31 210.113 215.717 209.865 214.887 209.604C214.476 209.473 214.163 209.371 213.949 209.296C213.734 209.212 213.463 209.091 213.137 208.932C212.819 208.764 212.581 208.596 212.423 208.428C212.264 208.251 212.119 208.022 211.989 207.742C211.867 207.462 211.807 207.145 211.807 206.79C211.807 205.941 212.105 205.269 212.703 204.774C213.3 204.27 214.028 204.018 214.887 204.018C215.661 204.018 216.333 204.214 216.903 204.606C217.481 204.998 217.915 205.516 218.205 206.16L217.113 206.79C216.693 205.782 215.951 205.278 214.887 205.278C214.355 205.278 213.925 205.409 213.599 205.67C213.272 205.931 213.109 206.286 213.109 206.734C213.109 207.163 213.263 207.49 213.571 207.714C213.879 207.938 214.411 208.171 215.167 208.414C215.437 208.498 215.629 208.559 215.741 208.596C215.853 208.633 216.025 208.699 216.259 208.792C216.501 208.885 216.679 208.96 216.791 209.016C216.903 209.072 217.052 209.151 217.239 209.254C217.435 209.357 217.579 209.455 217.673 209.548C217.766 209.641 217.873 209.758 217.995 209.898C218.125 210.029 218.219 210.164 218.275 210.304C218.331 210.444 218.377 210.607 218.415 210.794C218.461 210.971 218.485 211.163 218.485 211.368C218.485 212.227 218.172 212.913 217.547 213.426C216.921 213.93 216.105 214.182 215.097 214.182ZM223.387 206.818C224.208 206.818 224.866 207.079 225.361 207.602C225.855 208.115 226.103 208.815 226.103 209.702V214H224.885V209.772C224.885 209.203 224.731 208.764 224.423 208.456C224.115 208.139 223.69 207.98 223.149 207.98C222.542 207.98 222.052 208.171 221.679 208.554C221.305 208.927 221.119 209.506 221.119 210.29V214H219.901V204.2H221.119V208.008C221.613 207.215 222.369 206.818 223.387 206.818ZM233.711 213.118C232.992 213.827 232.12 214.182 231.093 214.182C230.066 214.182 229.194 213.827 228.475 213.118C227.766 212.409 227.411 211.536 227.411 210.5C227.411 209.464 227.766 208.591 228.475 207.882C229.194 207.173 230.066 206.818 231.093 206.818C232.12 206.818 232.992 207.173 233.711 207.882C234.43 208.591 234.789 209.464 234.789 210.5C234.789 211.536 234.43 212.409 233.711 213.118ZM231.093 212.992C231.793 212.992 232.381 212.754 232.857 212.278C233.333 211.802 233.571 211.209 233.571 210.5C233.571 209.791 233.333 209.198 232.857 208.722C232.381 208.246 231.793 208.008 231.093 208.008C230.402 208.008 229.819 208.246 229.343 208.722C228.867 209.198 228.629 209.791 228.629 210.5C228.629 211.209 228.867 211.802 229.343 212.278C229.819 212.754 230.402 212.992 231.093 212.992ZM237.443 208.176C237.844 207.308 238.572 206.874 239.627 206.874V208.148C239.029 208.12 238.516 208.279 238.087 208.624C237.657 208.969 237.443 209.525 237.443 210.29V214H236.225V207H237.443V208.176ZM244.791 208.176H242.929V211.97C242.929 212.315 242.994 212.563 243.125 212.712C243.265 212.852 243.475 212.927 243.755 212.936C244.035 212.936 244.38 212.927 244.791 212.908V214C243.727 214.14 242.947 214.056 242.453 213.748C241.958 213.431 241.711 212.838 241.711 211.97V208.176H240.325V207H241.711V205.404L242.929 205.04V207H244.791V208.176ZM246.731 211.06C246.852 211.685 247.137 212.171 247.585 212.516C248.042 212.861 248.602 213.034 249.265 213.034C250.189 213.034 250.861 212.693 251.281 212.012L252.317 212.6C251.636 213.655 250.609 214.182 249.237 214.182C248.126 214.182 247.221 213.837 246.521 213.146C245.83 212.446 245.485 211.564 245.485 210.5C245.485 209.445 245.826 208.568 246.507 207.868C247.188 207.168 248.07 206.818 249.153 206.818C250.18 206.818 251.015 207.182 251.659 207.91C252.312 208.629 252.639 209.497 252.639 210.514C252.639 210.691 252.625 210.873 252.597 211.06H246.731ZM249.153 207.966C248.5 207.966 247.958 208.153 247.529 208.526C247.1 208.89 246.834 209.38 246.731 209.996H251.407C251.304 209.333 251.043 208.829 250.623 208.484C250.203 208.139 249.713 207.966 249.153 207.966ZM257.525 206.818C258.347 206.818 259.005 207.079 259.499 207.602C259.994 208.115 260.241 208.815 260.241 209.702V214H259.023V209.772C259.023 209.203 258.869 208.764 258.561 208.456C258.253 208.139 257.829 207.98 257.287 207.98C256.681 207.98 256.191 208.171 255.817 208.554C255.444 208.927 255.257 209.506 255.257 210.29V214H254.039V207H255.257V208.008C255.752 207.215 256.508 206.818 257.525 206.818ZM262.558 205.726C262.324 205.726 262.128 205.647 261.97 205.488C261.811 205.329 261.732 205.138 261.732 204.914C261.732 204.69 261.811 204.499 261.97 204.34C262.128 204.172 262.324 204.088 262.558 204.088C262.782 204.088 262.973 204.172 263.132 204.34C263.29 204.499 263.37 204.69 263.37 204.914C263.37 205.138 263.29 205.329 263.132 205.488C262.973 205.647 262.782 205.726 262.558 205.726ZM261.942 214V207H263.16V214H261.942ZM268.504 206.818C269.325 206.818 269.983 207.079 270.478 207.602C270.972 208.115 271.22 208.815 271.22 209.702V214H270.002V209.772C270.002 209.203 269.848 208.764 269.54 208.456C269.232 208.139 268.807 207.98 268.266 207.98C267.659 207.98 267.169 208.171 266.796 208.554C266.422 208.927 266.236 209.506 266.236 210.29V214H265.018V207H266.236V208.008C266.73 207.215 267.486 206.818 268.504 206.818ZM278.73 207H279.934V213.706C279.934 214.742 279.584 215.545 278.884 216.114C278.184 216.693 277.344 216.982 276.364 216.982C275.58 216.982 274.903 216.833 274.334 216.534C273.765 216.245 273.335 215.825 273.046 215.274L274.11 214.672C274.493 215.456 275.253 215.848 276.392 215.848C277.12 215.848 277.689 215.657 278.1 215.274C278.52 214.891 278.73 214.369 278.73 213.706V212.712C278.114 213.645 277.237 214.112 276.098 214.112C275.099 214.112 274.255 213.757 273.564 213.048C272.873 212.339 272.528 211.475 272.528 210.458C272.528 209.441 272.873 208.582 273.564 207.882C274.255 207.173 275.099 206.818 276.098 206.818C277.246 206.818 278.123 207.28 278.73 208.204V207ZM274.46 212.236C274.936 212.712 275.529 212.95 276.238 212.95C276.947 212.95 277.54 212.712 278.016 212.236C278.492 211.76 278.73 211.167 278.73 210.458C278.73 209.758 278.492 209.17 278.016 208.694C277.54 208.218 276.947 207.98 276.238 207.98C275.529 207.98 274.936 208.218 274.46 208.694C273.984 209.17 273.746 209.758 273.746 210.458C273.746 211.167 273.984 211.76 274.46 212.236Z" fill="#141414"/>
<g clip-path="url(#clip1_1_244)">
<path d="M109.667 257.387V258C109.666 259.438 109.2 260.836 108.34 261.988C107.479 263.139 106.269 263.982 104.89 264.389C103.512 264.797 102.038 264.748 100.69 264.25C99.3411 263.752 98.1898 262.831 97.4073 261.625C96.6249 260.419 96.2532 258.992 96.3478 257.558C96.4424 256.123 96.9981 254.758 97.9322 253.665C98.8662 252.572 100.129 251.81 101.531 251.493C102.933 251.177 104.4 251.322 105.713 251.907" stroke="#005AE2" stroke-width="2" stroke-linecap="round" stroke-linejoin="round"/>
<path d="M109.667 252.667L103 259.34L101 257.34" stroke="#005AE2" stroke-width="2" stroke-linecap="round" stroke-linejoin="round"/>
</g>
<path d="M125.745 256.918C126.193 257.133 126.547 257.441 126.809 257.842C127.079 258.243 127.215 258.705 127.215 259.228C127.215 260.012 126.939 260.67 126.389 261.202C125.838 261.734 125.166 262 124.373 262H120.145V252.2H124.065C124.83 252.2 125.479 252.457 126.011 252.97C126.543 253.483 126.809 254.118 126.809 254.874C126.809 255.742 126.454 256.423 125.745 256.918ZM124.065 253.418H121.447V256.414H124.065C124.475 256.414 124.821 256.269 125.101 255.98C125.381 255.691 125.521 255.336 125.521 254.916C125.521 254.505 125.376 254.155 125.087 253.866C124.807 253.567 124.466 253.418 124.065 253.418ZM124.373 260.782C124.811 260.782 125.18 260.628 125.479 260.32C125.777 260.012 125.927 259.634 125.927 259.186C125.927 258.747 125.773 258.374 125.465 258.066C125.166 257.758 124.802 257.604 124.373 257.604H121.447V260.782H124.373ZM134.469 255H135.687V262H134.469V260.796C133.862 261.72 132.98 262.182 131.823 262.182C130.843 262.182 130.008 261.827 129.317 261.118C128.626 260.399 128.281 259.527 128.281 258.5C128.281 257.473 128.626 256.605 129.317 255.896C130.008 255.177 130.843 254.818 131.823 254.818C132.98 254.818 133.862 255.28 134.469 256.204V255ZM131.977 261.006C132.686 261.006 133.279 260.768 133.755 260.292C134.231 259.807 134.469 259.209 134.469 258.5C134.469 257.791 134.231 257.198 133.755 256.722C133.279 256.237 132.686 255.994 131.977 255.994C131.277 255.994 130.689 256.237 130.213 256.722C129.737 257.198 129.499 257.791 129.499 258.5C129.499 259.209 129.737 259.807 130.213 260.292C130.689 260.768 131.277 261.006 131.977 261.006ZM138.569 256.89C138.569 257.161 138.704 257.38 138.975 257.548C139.245 257.707 139.572 257.837 139.955 257.94C140.337 258.033 140.72 258.145 141.103 258.276C141.485 258.397 141.812 258.612 142.083 258.92C142.353 259.219 142.489 259.606 142.489 260.082C142.489 260.717 142.241 261.225 141.747 261.608C141.261 261.991 140.636 262.182 139.871 262.182C139.189 262.182 138.606 262.033 138.121 261.734C137.635 261.435 137.29 261.039 137.085 260.544L138.135 259.942C138.247 260.278 138.457 260.544 138.765 260.74C139.073 260.936 139.441 261.034 139.871 261.034C140.272 261.034 140.603 260.959 140.865 260.81C141.126 260.651 141.257 260.409 141.257 260.082C141.257 259.811 141.121 259.597 140.851 259.438C140.58 259.27 140.253 259.139 139.871 259.046C139.488 258.943 139.105 258.827 138.723 258.696C138.34 258.565 138.013 258.351 137.743 258.052C137.472 257.753 137.337 257.371 137.337 256.904C137.337 256.297 137.57 255.798 138.037 255.406C138.513 255.014 139.105 254.818 139.815 254.818C140.384 254.818 140.888 254.949 141.327 255.21C141.775 255.462 142.111 255.817 142.335 256.274L141.313 256.848C141.061 256.251 140.561 255.952 139.815 255.952C139.469 255.952 139.175 256.036 138.933 256.204C138.69 256.363 138.569 256.591 138.569 256.89ZM144.478 253.726C144.245 253.726 144.049 253.647 143.89 253.488C143.732 253.329 143.652 253.138 143.652 252.914C143.652 252.69 143.732 252.499 143.89 252.34C144.049 252.172 144.245 252.088 144.478 252.088C144.702 252.088 144.894 252.172 145.052 252.34C145.211 252.499 145.29 252.69 145.29 252.914C145.29 253.138 145.211 253.329 145.052 253.488C144.894 253.647 144.702 253.726 144.478 253.726ZM143.862 262V255H145.08V262H143.862ZM150.229 262.182C149.174 262.182 148.297 261.832 147.597 261.132C146.897 260.423 146.547 259.545 146.547 258.5C146.547 257.455 146.897 256.582 147.597 255.882C148.297 255.173 149.174 254.818 150.229 254.818C150.919 254.818 151.54 254.986 152.091 255.322C152.641 255.649 153.052 256.092 153.323 256.652L152.301 257.24C152.123 256.867 151.848 256.568 151.475 256.344C151.111 256.12 150.695 256.008 150.229 256.008C149.529 256.008 148.941 256.246 148.465 256.722C147.998 257.198 147.765 257.791 147.765 258.5C147.765 259.2 147.998 259.788 148.465 260.264C148.941 260.74 149.529 260.978 150.229 260.978C150.695 260.978 151.115 260.871 151.489 260.656C151.862 260.432 152.147 260.133 152.343 259.76L153.379 260.362C153.08 260.913 152.651 261.356 152.091 261.692C151.531 262.019 150.91 262.182 150.229 262.182ZM159.523 260.768H163.751V262H158.221V252.2H159.523V260.768ZM165.547 253.726C165.314 253.726 165.118 253.647 164.959 253.488C164.8 253.329 164.721 253.138 164.721 252.914C164.721 252.69 164.8 252.499 164.959 252.34C165.118 252.172 165.314 252.088 165.547 252.088C165.771 252.088 165.962 252.172 166.121 252.34C166.28 252.499 166.359 252.69 166.359 252.914C166.359 253.138 166.28 253.329 166.121 253.488C165.962 253.647 165.771 253.726 165.547 253.726ZM164.931 262V255H166.149V262H164.931ZM171.493 254.818C172.314 254.818 172.972 255.079 173.467 255.602C173.962 256.115 174.209 256.815 174.209 257.702V262H172.991V257.772C172.991 257.203 172.837 256.764 172.529 256.456C172.221 256.139 171.796 255.98 171.255 255.98C170.648 255.98 170.158 256.171 169.785 256.554C169.412 256.927 169.225 257.506 169.225 258.29V262H168.007V255H169.225V256.008C169.72 255.215 170.476 254.818 171.493 254.818ZM181.831 262H180.319L177.127 258.682V262H175.909V252.2H177.127V258.094L180.151 255H181.719L178.373 258.388L181.831 262ZM193.044 262L192.246 259.802H187.836L187.038 262H185.652L189.306 252.2H190.776L194.43 262H193.044ZM188.284 258.584H191.798L190.034 253.754L188.284 258.584ZM198.946 254.818C199.767 254.818 200.425 255.079 200.92 255.602C201.415 256.115 201.662 256.815 201.662 257.702V262H200.444V257.772C200.444 257.203 200.29 256.764 199.982 256.456C199.674 256.139 199.249 255.98 198.708 255.98C198.101 255.98 197.611 256.171 197.238 256.554C196.865 256.927 196.678 257.506 196.678 258.29V262H195.46V255H196.678V256.008C197.173 255.215 197.929 254.818 198.946 254.818ZM209.158 255H210.376V262H209.158V260.796C208.552 261.72 207.67 262.182 206.512 262.182C205.532 262.182 204.697 261.827 204.006 261.118C203.316 260.399 202.97 259.527 202.97 258.5C202.97 257.473 203.316 256.605 204.006 255.896C204.697 255.177 205.532 254.818 206.512 254.818C207.67 254.818 208.552 255.28 209.158 256.204V255ZM206.666 261.006C207.376 261.006 207.968 260.768 208.444 260.292C208.92 259.807 209.158 259.209 209.158 258.5C209.158 257.791 208.92 257.198 208.444 256.722C207.968 256.237 207.376 255.994 206.666 255.994C205.966 255.994 205.378 256.237 204.902 256.722C204.426 257.198 204.188 257.791 204.188 258.5C204.188 259.209 204.426 259.807 204.902 260.292C205.378 260.768 205.966 261.006 206.666 261.006ZM212.222 262V251.78H213.44V262H212.222ZM220.184 255H221.486L218.63 262.434C218.331 263.227 217.911 263.829 217.37 264.24C216.838 264.66 216.222 264.847 215.522 264.8V263.666C216.381 263.731 217.011 263.255 217.412 262.238L217.538 261.972L214.486 255H215.788L218.168 260.488L220.184 255ZM226.311 256.176H224.449V259.97C224.449 260.315 224.514 260.563 224.645 260.712C224.785 260.852 224.995 260.927 225.275 260.936C225.555 260.936 225.9 260.927 226.311 260.908V262C225.247 262.14 224.468 262.056 223.973 261.748C223.478 261.431 223.231 260.838 223.231 259.97V256.176H221.845V255H223.231V253.404L224.449 253.04V255H226.311V256.176ZM228.369 253.726C228.136 253.726 227.94 253.647 227.781 253.488C227.622 253.329 227.543 253.138 227.543 252.914C227.543 252.69 227.622 252.499 227.781 252.34C227.94 252.172 228.136 252.088 228.369 252.088C228.593 252.088 228.784 252.172 228.943 252.34C229.102 252.499 229.181 252.69 229.181 252.914C229.181 253.138 229.102 253.329 228.943 253.488C228.784 253.647 228.593 253.726 228.369 253.726ZM227.753 262V255H228.971V262H227.753ZM234.119 262.182C233.065 262.182 232.187 261.832 231.487 261.132C230.787 260.423 230.437 259.545 230.437 258.5C230.437 257.455 230.787 256.582 231.487 255.882C232.187 255.173 233.065 254.818 234.119 254.818C234.81 254.818 235.431 254.986 235.981 255.322C236.532 255.649 236.943 256.092 237.213 256.652L236.191 257.24C236.014 256.867 235.739 256.568 235.365 256.344C235.001 256.12 234.586 256.008 234.119 256.008C233.419 256.008 232.831 256.246 232.355 256.722C231.889 257.198 231.655 257.791 231.655 258.5C231.655 259.2 231.889 259.788 232.355 260.264C232.831 260.74 233.419 260.978 234.119 260.978C234.586 260.978 235.006 260.871 235.379 260.656C235.753 260.432 236.037 260.133 236.233 259.76L237.269 260.362C236.971 260.913 236.541 261.356 235.981 261.692C235.421 262.019 234.801 262.182 234.119 262.182ZM239.467 256.89C239.467 257.161 239.602 257.38 239.873 257.548C240.144 257.707 240.47 257.837 240.853 257.94C241.236 258.033 241.618 258.145 242.001 258.276C242.384 258.397 242.71 258.612 242.981 258.92C243.252 259.219 243.387 259.606 243.387 260.082C243.387 260.717 243.14 261.225 242.645 261.608C242.16 261.991 241.534 262.182 240.769 262.182C240.088 262.182 239.504 262.033 239.019 261.734C238.534 261.435 238.188 261.039 237.983 260.544L239.033 259.942C239.145 260.278 239.355 260.544 239.663 260.74C239.971 260.936 240.34 261.034 240.769 261.034C241.17 261.034 241.502 260.959 241.763 260.81C242.024 260.651 242.155 260.409 242.155 260.082C242.155 259.811 242.02 259.597 241.749 259.438C241.478 259.27 241.152 259.139 240.769 259.046C240.386 258.943 240.004 258.827 239.621 258.696C239.238 258.565 238.912 258.351 238.641 258.052C238.37 257.753 238.235 257.371 238.235 256.904C238.235 256.297 238.468 255.798 238.935 255.406C239.411 255.014 240.004 254.818 240.713 254.818C241.282 254.818 241.786 254.949 242.225 255.21C242.673 255.462 243.009 255.817 243.233 256.274L242.211 256.848C241.959 256.251 241.46 255.952 240.713 255.952C240.368 255.952 240.074 256.036 239.831 256.204C239.588 256.363 239.467 256.591 239.467 256.89Z" fill="#141414"/>
<g clip-path="url(#clip2_1_244)">
<path d="M109.667 305.387V306C109.666 307.438 109.2 308.836 108.34 309.988C107.479 311.139 106.269 311.982 104.89 312.389C103.512 312.797 102.038 312.748 100.69 312.25C99.3411 311.752 98.1898 310.831 97.4073 309.625C96.6249 308.419 96.2532 306.992 96.3478 305.558C96.4424 304.123 96.9981 302.758 97.9322 301.665C98.8662 300.572 100.129 299.81 101.531 299.493C102.933 299.177 104.4 299.322 105.713 299.907" stroke="#005AE2" stroke-width="2" stroke-linecap="round" stroke-linejoin="round"/>
<path d="M109.667 300.667L103 307.34L101 305.34" stroke="#005AE2" stroke-width="2" stroke-linecap="round" stroke-linejoin="round"/>
</g>
<path d="M124.669 310.182C123.185 310.182 121.957 309.692 120.987 308.712C120.025 307.732 119.545 306.528 119.545 305.1C119.545 303.672 120.025 302.468 120.987 301.488C121.957 300.508 123.185 300.018 124.669 300.018C125.565 300.018 126.386 300.233 127.133 300.662C127.889 301.091 128.477 301.67 128.897 302.398L127.763 303.056C127.483 302.515 127.063 302.085 126.503 301.768C125.952 301.441 125.341 301.278 124.669 301.278C123.539 301.278 122.615 301.642 121.897 302.37C121.187 303.098 120.833 304.008 120.833 305.1C120.833 306.183 121.187 307.088 121.897 307.816C122.615 308.544 123.539 308.908 124.669 308.908C125.341 308.908 125.952 308.749 126.503 308.432C127.063 308.105 127.483 307.676 127.763 307.144L128.897 307.788C128.486 308.516 127.903 309.099 127.147 309.538C126.391 309.967 125.565 310.182 124.669 310.182ZM135.116 303H136.334V310H135.116V308.992C134.622 309.785 133.866 310.182 132.848 310.182C132.027 310.182 131.369 309.925 130.874 309.412C130.38 308.889 130.132 308.185 130.132 307.298V303H131.35V307.228C131.35 307.797 131.504 308.241 131.812 308.558C132.12 308.866 132.545 309.02 133.086 309.02C133.693 309.02 134.183 308.833 134.556 308.46C134.93 308.077 135.116 307.494 135.116 306.71V303ZM139.225 304.89C139.225 305.161 139.36 305.38 139.631 305.548C139.902 305.707 140.228 305.837 140.611 305.94C140.994 306.033 141.376 306.145 141.759 306.276C142.142 306.397 142.468 306.612 142.739 306.92C143.01 307.219 143.145 307.606 143.145 308.082C143.145 308.717 142.898 309.225 142.403 309.608C141.918 309.991 141.292 310.182 140.527 310.182C139.846 310.182 139.262 310.033 138.777 309.734C138.292 309.435 137.946 309.039 137.741 308.544L138.791 307.942C138.903 308.278 139.113 308.544 139.421 308.74C139.729 308.936 140.098 309.034 140.527 309.034C140.928 309.034 141.26 308.959 141.521 308.81C141.782 308.651 141.913 308.409 141.913 308.082C141.913 307.811 141.778 307.597 141.507 307.438C141.236 307.27 140.91 307.139 140.527 307.046C140.144 306.943 139.762 306.827 139.379 306.696C138.996 306.565 138.67 306.351 138.399 306.052C138.128 305.753 137.993 305.371 137.993 304.904C137.993 304.297 138.226 303.798 138.693 303.406C139.169 303.014 139.762 302.818 140.471 302.818C141.04 302.818 141.544 302.949 141.983 303.21C142.431 303.462 142.767 303.817 142.991 304.274L141.969 304.848C141.717 304.251 141.218 303.952 140.471 303.952C140.126 303.952 139.832 304.036 139.589 304.204C139.346 304.363 139.225 304.591 139.225 304.89ZM148.122 304.176H146.26V307.97C146.26 308.315 146.325 308.563 146.456 308.712C146.596 308.852 146.806 308.927 147.086 308.936C147.366 308.936 147.711 308.927 148.122 308.908V310C147.058 310.14 146.278 310.056 145.784 309.748C145.289 309.431 145.042 308.838 145.042 307.97V304.176H143.656V303H145.042V301.404L146.26 301.04V303H148.122V304.176ZM155.116 309.118C154.398 309.827 153.525 310.182 152.498 310.182C151.472 310.182 150.599 309.827 149.88 309.118C149.171 308.409 148.816 307.536 148.816 306.5C148.816 305.464 149.171 304.591 149.88 303.882C150.599 303.173 151.472 302.818 152.498 302.818C153.525 302.818 154.398 303.173 155.116 303.882C155.835 304.591 156.194 305.464 156.194 306.5C156.194 307.536 155.835 308.409 155.116 309.118ZM152.498 308.992C153.198 308.992 153.786 308.754 154.262 308.278C154.738 307.802 154.976 307.209 154.976 306.5C154.976 305.791 154.738 305.198 154.262 304.722C153.786 304.246 153.198 304.008 152.498 304.008C151.808 304.008 151.224 304.246 150.748 304.722C150.272 305.198 150.034 305.791 150.034 306.5C150.034 307.209 150.272 307.802 150.748 308.278C151.224 308.754 151.808 308.992 152.498 308.992ZM165.19 302.818C165.974 302.818 166.609 303.075 167.094 303.588C167.579 304.092 167.822 304.778 167.822 305.646V310H166.604V305.688C166.604 305.147 166.464 304.727 166.184 304.428C165.904 304.129 165.531 303.98 165.064 303.98C164.541 303.98 164.121 304.157 163.804 304.512C163.496 304.857 163.342 305.389 163.342 306.108V310H162.124V305.688C162.124 305.147 161.989 304.727 161.718 304.428C161.457 304.129 161.097 303.98 160.64 303.98C160.127 303.98 159.697 304.157 159.352 304.512C159.016 304.867 158.848 305.399 158.848 306.108V310H157.63V303H158.848V303.938C159.324 303.191 160.019 302.818 160.934 302.818C161.877 302.818 162.563 303.215 162.992 304.008C163.477 303.215 164.21 302.818 165.19 302.818ZM170.127 301.726C169.894 301.726 169.698 301.647 169.539 301.488C169.38 301.329 169.301 301.138 169.301 300.914C169.301 300.69 169.38 300.499 169.539 300.34C169.698 300.172 169.894 300.088 170.127 300.088C170.351 300.088 170.542 300.172 170.701 300.34C170.86 300.499 170.939 300.69 170.939 300.914C170.939 301.138 170.86 301.329 170.701 301.488C170.542 301.647 170.351 301.726 170.127 301.726ZM169.511 310V303H170.729V310H169.511ZM174.001 308.838H177.725V310H172.335V309.188L175.905 304.162H172.475V303H177.585V303.812L174.001 308.838ZM184.535 303H185.753V310H184.535V308.796C183.929 309.72 183.047 310.182 181.889 310.182C180.909 310.182 180.074 309.827 179.383 309.118C178.693 308.399 178.347 307.527 178.347 306.5C178.347 305.473 178.693 304.605 179.383 303.896C180.074 303.177 180.909 302.818 181.889 302.818C183.047 302.818 183.929 303.28 184.535 304.204V303ZM182.043 309.006C182.753 309.006 183.345 308.768 183.821 308.292C184.297 307.807 184.535 307.209 184.535 306.5C184.535 305.791 184.297 305.198 183.821 304.722C183.345 304.237 182.753 303.994 182.043 303.994C181.343 303.994 180.755 304.237 180.279 304.722C179.803 305.198 179.565 305.791 179.565 306.5C179.565 307.209 179.803 307.807 180.279 308.292C180.755 308.768 181.343 309.006 182.043 309.006ZM191.463 302.818C192.443 302.818 193.278 303.177 193.969 303.896C194.659 304.605 195.005 305.473 195.005 306.5C195.005 307.527 194.659 308.399 193.969 309.118C193.278 309.827 192.443 310.182 191.463 310.182C190.305 310.182 189.423 309.72 188.817 308.796V310H187.599V300.2H188.817V304.204C189.423 303.28 190.305 302.818 191.463 302.818ZM191.309 309.006C192.009 309.006 192.597 308.768 193.073 308.292C193.549 307.807 193.787 307.209 193.787 306.5C193.787 305.791 193.549 305.198 193.073 304.722C192.597 304.237 192.009 303.994 191.309 303.994C190.599 303.994 190.007 304.237 189.531 304.722C189.055 305.198 188.817 305.791 188.817 306.5C188.817 307.209 189.055 307.807 189.531 308.292C190.007 308.768 190.599 309.006 191.309 309.006ZM196.458 310V299.78H197.676V310H196.458ZM200.388 307.06C200.51 307.685 200.794 308.171 201.242 308.516C201.7 308.861 202.26 309.034 202.922 309.034C203.846 309.034 204.518 308.693 204.938 308.012L205.974 308.6C205.293 309.655 204.266 310.182 202.894 310.182C201.784 310.182 200.878 309.837 200.178 309.146C199.488 308.446 199.142 307.564 199.142 306.5C199.142 305.445 199.483 304.568 200.164 303.868C200.846 303.168 201.728 302.818 202.81 302.818C203.837 302.818 204.672 303.182 205.316 303.91C205.97 304.629 206.296 305.497 206.296 306.514C206.296 306.691 206.282 306.873 206.254 307.06H200.388ZM202.81 303.966C202.157 303.966 201.616 304.153 201.186 304.526C200.757 304.89 200.491 305.38 200.388 305.996H205.064C204.962 305.333 204.7 304.829 204.28 304.484C203.86 304.139 203.37 303.966 202.81 303.966ZM214.486 310.182C213.572 310.182 212.788 309.967 212.134 309.538C211.49 309.109 211.038 308.521 210.776 307.774L211.896 307.13C212.279 308.315 213.152 308.908 214.514 308.908C215.186 308.908 215.7 308.773 216.054 308.502C216.409 308.222 216.586 307.853 216.586 307.396C216.586 306.929 216.409 306.579 216.054 306.346C215.7 306.113 215.107 305.865 214.276 305.604C213.866 305.473 213.553 305.371 213.338 305.296C213.124 305.212 212.853 305.091 212.526 304.932C212.209 304.764 211.971 304.596 211.812 304.428C211.654 304.251 211.509 304.022 211.378 303.742C211.257 303.462 211.196 303.145 211.196 302.79C211.196 301.941 211.495 301.269 212.092 300.774C212.69 300.27 213.418 300.018 214.276 300.018C215.051 300.018 215.723 300.214 216.292 300.606C216.871 300.998 217.305 301.516 217.594 302.16L216.502 302.79C216.082 301.782 215.34 301.278 214.276 301.278C213.744 301.278 213.315 301.409 212.988 301.67C212.662 301.931 212.498 302.286 212.498 302.734C212.498 303.163 212.652 303.49 212.96 303.714C213.268 303.938 213.8 304.171 214.556 304.414C214.827 304.498 215.018 304.559 215.13 304.596C215.242 304.633 215.415 304.699 215.648 304.792C215.891 304.885 216.068 304.96 216.18 305.016C216.292 305.072 216.442 305.151 216.628 305.254C216.824 305.357 216.969 305.455 217.062 305.548C217.156 305.641 217.263 305.758 217.384 305.898C217.515 306.029 217.608 306.164 217.664 306.304C217.72 306.444 217.767 306.607 217.804 306.794C217.851 306.971 217.874 307.163 217.874 307.368C217.874 308.227 217.562 308.913 216.936 309.426C216.311 309.93 215.494 310.182 214.486 310.182ZM222.776 302.818C223.598 302.818 224.256 303.079 224.75 303.602C225.245 304.115 225.492 304.815 225.492 305.702V310H224.274V305.772C224.274 305.203 224.12 304.764 223.812 304.456C223.504 304.139 223.08 303.98 222.538 303.98C221.932 303.98 221.442 304.171 221.068 304.554C220.695 304.927 220.508 305.506 220.508 306.29V310H219.29V300.2H220.508V304.008C221.003 303.215 221.759 302.818 222.776 302.818ZM233.101 309.118C232.382 309.827 231.509 310.182 230.483 310.182C229.456 310.182 228.583 309.827 227.865 309.118C227.155 308.409 226.801 307.536 226.801 306.5C226.801 305.464 227.155 304.591 227.865 303.882C228.583 303.173 229.456 302.818 230.483 302.818C231.509 302.818 232.382 303.173 233.101 303.882C233.819 304.591 234.179 305.464 234.179 306.5C234.179 307.536 233.819 308.409 233.101 309.118ZM230.483 308.992C231.183 308.992 231.771 308.754 232.247 308.278C232.723 307.802 232.961 307.209 232.961 306.5C232.961 305.791 232.723 305.198 232.247 304.722C231.771 304.246 231.183 304.008 230.483 304.008C229.792 304.008 229.209 304.246 228.733 304.722C228.257 305.198 228.019 305.791 228.019 306.5C228.019 307.209 228.257 307.802 228.733 308.278C229.209 308.754 229.792 308.992 230.483 308.992ZM236.832 304.176C237.234 303.308 237.962 302.874 239.016 302.874V304.148C238.419 304.12 237.906 304.279 237.476 304.624C237.047 304.969 236.832 305.525 236.832 306.29V310H235.614V303H236.832V304.176ZM244.18 304.176H242.318V307.97C242.318 308.315 242.384 308.563 242.514 308.712C242.654 308.852 242.864 308.927 243.144 308.936C243.424 308.936 243.77 308.927 244.18 308.908V310C243.116 310.14 242.337 310.056 241.842 309.748C241.348 309.431 241.1 308.838 241.1 307.97V304.176H239.714V303H241.1V301.404L242.318 301.04V303H244.18V304.176ZM250.591 308.768H254.819V310H249.289V300.2H250.591V308.768ZM256.615 301.726C256.382 301.726 256.186 301.647 256.027 301.488C255.869 301.329 255.789 301.138 255.789 300.914C255.789 300.69 255.869 300.499 256.027 300.34C256.186 300.172 256.382 300.088 256.615 300.088C256.839 300.088 257.031 300.172 257.189 300.34C257.348 300.499 257.427 300.69 257.427 300.914C257.427 301.138 257.348 301.329 257.189 301.488C257.031 301.647 256.839 301.726 256.615 301.726ZM255.999 310V303H257.217V310H255.999ZM262.561 302.818C263.383 302.818 264.041 303.079 264.535 303.602C265.03 304.115 265.277 304.815 265.277 305.702V310H264.059V305.772C264.059 305.203 263.905 304.764 263.597 304.456C263.289 304.139 262.865 303.98 262.323 303.98C261.717 303.98 261.227 304.171 260.853 304.554C260.48 304.927 260.293 305.506 260.293 306.29V310H259.075V303H260.293V304.008C260.788 303.215 261.544 302.818 262.561 302.818ZM272.9 310H271.388L268.196 306.682V310H266.978V300.2H268.196V306.094L271.22 303H272.788L269.442 306.388L272.9 310ZM274.549 304.89C274.549 305.161 274.685 305.38 274.955 305.548C275.226 305.707 275.553 305.837 275.935 305.94C276.318 306.033 276.701 306.145 277.083 306.276C277.466 306.397 277.793 306.612 278.063 306.92C278.334 307.219 278.469 307.606 278.469 308.082C278.469 308.717 278.222 309.225 277.727 309.608C277.242 309.991 276.617 310.182 275.851 310.182C275.17 310.182 274.587 310.033 274.101 309.734C273.616 309.435 273.271 309.039 273.065 308.544L274.115 307.942C274.227 308.278 274.437 308.544 274.745 308.74C275.053 308.936 275.422 309.034 275.851 309.034C276.253 309.034 276.584 308.959 276.845 308.81C277.107 308.651 277.237 308.409 277.237 308.082C277.237 307.811 277.102 307.597 276.831 307.438C276.561 307.27 276.234 307.139 275.851 307.046C275.469 306.943 275.086 306.827 274.703 306.696C274.321 306.565 273.994 306.351 273.723 306.052C273.453 305.753 273.317 305.371 273.317 304.904C273.317 304.297 273.551 303.798 274.017 303.406C274.493 303.014 275.086 302.818 275.795 302.818C276.365 302.818 276.869 302.949 277.307 303.21C277.755 303.462 278.091 303.817 278.315 304.274L277.293 304.848C277.041 304.251 276.542 303.952 275.795 303.952C275.45 303.952 275.156 304.036 274.913 304.204C274.671 304.363 274.549 304.591 274.549 304.89Z" fill="black"/>
<g clip-path="url(#clip3_1_244)">
<path d="M109.667 353.387V354C109.666 355.438 109.2 356.836 108.34 357.988C107.479 359.139 106.269 359.982 104.89 360.389C103.512 360.797 102.038 360.748 100.69 360.25C99.3411 359.752 98.1898 358.831 97.4073 357.625C96.6249 356.419 96.2532 354.992 96.3478 353.558C96.4424 352.123 96.9981 350.758 97.9322 349.665C98.8662 348.572 100.129 347.81 101.531 347.493C102.933 347.177 104.4 347.322 105.713 347.907" stroke="#005AE2" stroke-width="2" stroke-linecap="round" stroke-linejoin="round"/>
<path d="M109.667 348.667L103 355.34L101 353.34" stroke="#005AE2" stroke-width="2" stroke-linecap="round" stroke-linejoin="round"/>
</g>
<path d="M123.704 358.182C122.79 358.182 122.006 357.967 121.352 357.538C120.708 357.109 120.256 356.521 119.994 355.774L121.114 355.13C121.497 356.315 122.37 356.908 123.732 356.908C124.404 356.908 124.918 356.773 125.272 356.502C125.627 356.222 125.804 355.853 125.804 355.396C125.804 354.929 125.627 354.579 125.272 354.346C124.918 354.113 124.325 353.865 123.494 353.604C123.084 353.473 122.771 353.371 122.556 353.296C122.342 353.212 122.071 353.091 121.744 352.932C121.427 352.764 121.189 352.596 121.03 352.428C120.872 352.251 120.727 352.022 120.596 351.742C120.475 351.462 120.414 351.145 120.414 350.79C120.414 349.941 120.713 349.269 121.31 348.774C121.908 348.27 122.636 348.018 123.494 348.018C124.269 348.018 124.941 348.214 125.51 348.606C126.089 348.998 126.523 349.516 126.812 350.16L125.72 350.79C125.3 349.782 124.558 349.278 123.494 349.278C122.962 349.278 122.533 349.409 122.206 349.67C121.88 349.931 121.716 350.286 121.716 350.734C121.716 351.163 121.87 351.49 122.178 351.714C122.486 351.938 123.018 352.171 123.774 352.414C124.045 352.498 124.236 352.559 124.348 352.596C124.46 352.633 124.633 352.699 124.866 352.792C125.109 352.885 125.286 352.96 125.398 353.016C125.51 353.072 125.66 353.151 125.846 353.254C126.042 353.357 126.187 353.455 126.28 353.548C126.374 353.641 126.481 353.758 126.602 353.898C126.733 354.029 126.826 354.164 126.882 354.304C126.938 354.444 126.985 354.607 127.022 354.794C127.069 354.971 127.092 355.163 127.092 355.368C127.092 356.227 126.78 356.913 126.154 357.426C125.529 357.93 124.712 358.182 123.704 358.182ZM132.111 352.176H130.249V355.97C130.249 356.315 130.314 356.563 130.445 356.712C130.585 356.852 130.795 356.927 131.075 356.936C131.355 356.936 131.7 356.927 132.111 356.908V358C131.047 358.14 130.268 358.056 129.773 357.748C129.278 357.431 129.031 356.838 129.031 355.97V352.176H127.645V351H129.031V349.404L130.249 349.04V351H132.111V352.176ZM138.993 351H140.211V358H138.993V356.796C138.387 357.72 137.505 358.182 136.347 358.182C135.367 358.182 134.532 357.827 133.841 357.118C133.151 356.399 132.805 355.527 132.805 354.5C132.805 353.473 133.151 352.605 133.841 351.896C134.532 351.177 135.367 350.818 136.347 350.818C137.505 350.818 138.387 351.28 138.993 352.204V351ZM136.501 357.006C137.211 357.006 137.803 356.768 138.279 356.292C138.755 355.807 138.993 355.209 138.993 354.5C138.993 353.791 138.755 353.198 138.279 352.722C137.803 352.237 137.211 351.994 136.501 351.994C135.801 351.994 135.213 352.237 134.737 352.722C134.261 353.198 134.023 353.791 134.023 354.5C134.023 355.209 134.261 355.807 134.737 356.292C135.213 356.768 135.801 357.006 136.501 357.006ZM145.543 350.818C146.364 350.818 147.022 351.079 147.517 351.602C148.011 352.115 148.259 352.815 148.259 353.702V358H147.041V353.772C147.041 353.203 146.887 352.764 146.579 352.456C146.271 352.139 145.846 351.98 145.305 351.98C144.698 351.98 144.208 352.171 143.835 352.554C143.461 352.927 143.275 353.506 143.275 354.29V358H142.057V351H143.275V352.008C143.769 351.215 144.525 350.818 145.543 350.818ZM155.755 348.2H156.973V358H155.755V356.796C155.148 357.72 154.266 358.182 153.109 358.182C152.129 358.182 151.294 357.827 150.603 357.118C149.912 356.399 149.567 355.527 149.567 354.5C149.567 353.473 149.912 352.605 150.603 351.896C151.294 351.177 152.129 350.818 153.109 350.818C154.266 350.818 155.148 351.28 155.755 352.204V348.2ZM153.263 357.006C153.972 357.006 154.565 356.768 155.041 356.292C155.517 355.807 155.755 355.209 155.755 354.5C155.755 353.791 155.517 353.198 155.041 352.722C154.565 352.237 153.972 351.994 153.263 351.994C152.563 351.994 151.975 352.237 151.499 352.722C151.023 353.198 150.785 353.791 150.785 354.5C150.785 355.209 151.023 355.807 151.499 356.292C151.975 356.768 152.563 357.006 153.263 357.006ZM164.615 351H165.833V358H164.615V356.796C164.008 357.72 163.126 358.182 161.969 358.182C160.989 358.182 160.153 357.827 159.463 357.118C158.772 356.399 158.427 355.527 158.427 354.5C158.427 353.473 158.772 352.605 159.463 351.896C160.153 351.177 160.989 350.818 161.969 350.818C163.126 350.818 164.008 351.28 164.615 352.204V351ZM162.123 357.006C162.832 357.006 163.425 356.768 163.901 356.292C164.377 355.807 164.615 355.209 164.615 354.5C164.615 353.791 164.377 353.198 163.901 352.722C163.425 352.237 162.832 351.994 162.123 351.994C161.423 351.994 160.835 352.237 160.359 352.722C159.883 353.198 159.645 353.791 159.645 354.5C159.645 355.209 159.883 355.807 160.359 356.292C160.835 356.768 161.423 357.006 162.123 357.006ZM168.896 352.176C169.297 351.308 170.025 350.874 171.08 350.874V352.148C170.483 352.12 169.969 352.279 169.54 352.624C169.111 352.969 168.896 353.525 168.896 354.29V358H167.678V351H168.896V352.176ZM177.685 348.2H178.903V358H177.685V356.796C177.078 357.72 176.196 358.182 175.039 358.182C174.059 358.182 173.224 357.827 172.533 357.118C171.842 356.399 171.497 355.527 171.497 354.5C171.497 353.473 171.842 352.605 172.533 351.896C173.224 351.177 174.059 350.818 175.039 350.818C176.196 350.818 177.078 351.28 177.685 352.204V348.2ZM175.193 357.006C175.902 357.006 176.495 356.768 176.971 356.292C177.447 355.807 177.685 355.209 177.685 354.5C177.685 353.791 177.447 353.198 176.971 352.722C176.495 352.237 175.902 351.994 175.193 351.994C174.493 351.994 173.905 352.237 173.429 352.722C172.953 353.198 172.715 353.791 172.715 354.5C172.715 355.209 172.953 355.807 173.429 356.292C173.905 356.768 174.493 357.006 175.193 357.006ZM187.538 358.182C186.624 358.182 185.84 357.967 185.186 357.538C184.542 357.109 184.09 356.521 183.828 355.774L184.948 355.13C185.331 356.315 186.204 356.908 187.566 356.908C188.238 356.908 188.752 356.773 189.106 356.502C189.461 356.222 189.638 355.853 189.638 355.396C189.638 354.929 189.461 354.579 189.106 354.346C188.752 354.113 188.159 353.865 187.328 353.604C186.918 353.473 186.605 353.371 186.39 353.296C186.176 353.212 185.905 353.091 185.578 352.932C185.261 352.764 185.023 352.596 184.864 352.428C184.706 352.251 184.561 352.022 184.43 351.742C184.309 351.462 184.248 351.145 184.248 350.79C184.248 349.941 184.547 349.269 185.144 348.774C185.742 348.27 186.47 348.018 187.328 348.018C188.103 348.018 188.775 348.214 189.344 348.606C189.923 348.998 190.357 349.516 190.646 350.16L189.554 350.79C189.134 349.782 188.392 349.278 187.328 349.278C186.796 349.278 186.367 349.409 186.04 349.67C185.714 349.931 185.55 350.286 185.55 350.734C185.55 351.163 185.704 351.49 186.012 351.714C186.32 351.938 186.852 352.171 187.608 352.414C187.879 352.498 188.07 352.559 188.182 352.596C188.294 352.633 188.467 352.699 188.7 352.792C188.943 352.885 189.12 352.96 189.232 353.016C189.344 353.072 189.494 353.151 189.68 353.254C189.876 353.357 190.021 353.455 190.114 353.548C190.208 353.641 190.315 353.758 190.436 353.898C190.567 354.029 190.66 354.164 190.716 354.304C190.772 354.444 190.819 354.607 190.856 354.794C190.903 354.971 190.926 355.163 190.926 355.368C190.926 356.227 190.614 356.913 189.988 357.426C189.363 357.93 188.546 358.182 187.538 358.182ZM197.172 351H198.39V358H197.172V356.992C196.677 357.785 195.921 358.182 194.904 358.182C194.083 358.182 193.425 357.925 192.93 357.412C192.435 356.889 192.188 356.185 192.188 355.298V351H193.406V355.228C193.406 355.797 193.56 356.241 193.868 356.558C194.176 356.866 194.601 357.02 195.142 357.02C195.749 357.02 196.239 356.833 196.612 356.46C196.985 356.077 197.172 355.494 197.172 354.71V351ZM204.108 350.818C205.088 350.818 205.924 351.177 206.614 351.896C207.305 352.605 207.65 353.473 207.65 354.5C207.65 355.527 207.305 356.399 206.614 357.118C205.924 357.827 205.088 358.182 204.108 358.182C202.951 358.182 202.069 357.72 201.462 356.796V360.8H200.244V351H201.462V352.204C202.069 351.28 202.951 350.818 204.108 350.818ZM203.954 357.006C204.654 357.006 205.242 356.768 205.718 356.292C206.194 355.807 206.432 355.209 206.432 354.5C206.432 353.791 206.194 353.198 205.718 352.722C205.242 352.237 204.654 351.994 203.954 351.994C203.245 351.994 202.652 352.237 202.176 352.722C201.7 353.198 201.462 353.791 201.462 354.5C201.462 355.209 201.7 355.807 202.176 356.292C202.652 356.768 203.245 357.006 203.954 357.006ZM212.968 350.818C213.948 350.818 214.783 351.177 215.474 351.896C216.164 352.605 216.51 353.473 216.51 354.5C216.51 355.527 216.164 356.399 215.474 357.118C214.783 357.827 213.948 358.182 212.968 358.182C211.81 358.182 210.928 357.72 210.322 356.796V360.8H209.104V351H210.322V352.204C210.928 351.28 211.81 350.818 212.968 350.818ZM212.814 357.006C213.514 357.006 214.102 356.768 214.578 356.292C215.054 355.807 215.292 355.209 215.292 354.5C215.292 353.791 215.054 353.198 214.578 352.722C214.102 352.237 213.514 351.994 212.814 351.994C212.104 351.994 211.512 352.237 211.036 352.722C210.56 353.198 210.322 353.791 210.322 354.5C210.322 355.209 210.56 355.807 211.036 356.292C211.512 356.768 212.104 357.006 212.814 357.006ZM223.871 357.118C223.152 357.827 222.28 358.182 221.253 358.182C220.226 358.182 219.354 357.827 218.635 357.118C217.926 356.409 217.571 355.536 217.571 354.5C217.571 353.464 217.926 352.591 218.635 351.882C219.354 351.173 220.226 350.818 221.253 350.818C222.28 350.818 223.152 351.173 223.871 351.882C224.59 352.591 224.949 353.464 224.949 354.5C224.949 355.536 224.59 356.409 223.871 357.118ZM221.253 356.992C221.953 356.992 222.541 356.754 223.017 356.278C223.493 355.802 223.731 355.209 223.731 354.5C223.731 353.791 223.493 353.198 223.017 352.722C222.541 352.246 221.953 352.008 221.253 352.008C220.562 352.008 219.979 352.246 219.503 352.722C219.027 353.198 218.789 353.791 218.789 354.5C218.789 355.209 219.027 355.802 219.503 356.278C219.979 356.754 220.562 356.992 221.253 356.992ZM227.603 352.176C228.004 351.308 228.732 350.874 229.787 350.874V352.148C229.19 352.12 228.676 352.279 228.247 352.624C227.818 352.969 227.603 353.525 227.603 354.29V358H226.385V351H227.603V352.176ZM234.951 352.176H233.089V355.97C233.089 356.315 233.154 356.563 233.285 356.712C233.425 356.852 233.635 356.927 233.915 356.936C234.195 356.936 234.54 356.927 234.951 356.908V358C233.887 358.14 233.107 358.056 232.613 357.748C232.118 357.431 231.871 356.838 231.871 355.97V352.176H230.485V351H231.871V349.404L233.089 349.04V351H234.951V352.176Z" fill="black"/>
<g clip-path="url(#clip4_1_244)">
<path d="M109.667 401.387V402C109.666 403.438 109.2 404.836 108.34 405.988C107.479 407.139 106.269 407.982 104.89 408.389C103.512 408.797 102.038 408.748 100.69 408.25C99.3411 407.752 98.1898 406.831 97.4073 405.625C96.6249 404.419 96.2532 402.992 96.3478 401.558C96.4424 400.123 96.9981 398.758 97.9322 397.665C98.8662 396.572 100.129 395.81 101.531 395.493C102.933 395.177 104.4 395.322 105.713 395.907" stroke="#005AE2" stroke-width="2" stroke-linecap="round" stroke-linejoin="round"/>
<path d="M109.667 396.667L103 403.34L101 401.34" stroke="#005AE2" stroke-width="2" stroke-linecap="round" stroke-linejoin="round"/>
</g>
<path d="M126.532 406L125.734 403.802H121.324L120.526 406H119.14L122.794 396.2H124.264L127.918 406H126.532ZM121.772 402.584H125.286L123.522 397.754L121.772 402.584ZM134.58 396.2H135.798V406H134.58V404.796C133.974 405.72 133.092 406.182 131.934 406.182C130.954 406.182 130.119 405.827 129.428 405.118C128.738 404.399 128.392 403.527 128.392 402.5C128.392 401.473 128.738 400.605 129.428 399.896C130.119 399.177 130.954 398.818 131.934 398.818C133.092 398.818 133.974 399.28 134.58 400.204V396.2ZM132.088 405.006C132.798 405.006 133.39 404.768 133.866 404.292C134.342 403.807 134.58 403.209 134.58 402.5C134.58 401.791 134.342 401.198 133.866 400.722C133.39 400.237 132.798 399.994 132.088 399.994C131.388 399.994 130.8 400.237 130.324 400.722C129.848 401.198 129.61 401.791 129.61 402.5C129.61 403.209 129.848 403.807 130.324 404.292C130.8 404.768 131.388 405.006 132.088 405.006ZM137.77 402.29V401.114H142.88V402.29H137.77ZM145.899 400.89C145.899 401.161 146.034 401.38 146.305 401.548C146.575 401.707 146.902 401.837 147.285 401.94C147.667 402.033 148.05 402.145 148.433 402.276C148.815 402.397 149.142 402.612 149.413 402.92C149.683 403.219 149.819 403.606 149.819 404.082C149.819 404.717 149.571 405.225 149.077 405.608C148.591 405.991 147.966 406.182 147.201 406.182C146.519 406.182 145.936 406.033 145.451 405.734C144.965 405.435 144.62 405.039 144.415 404.544L145.465 403.942C145.577 404.278 145.787 404.544 146.095 404.74C146.403 404.936 146.771 405.034 147.201 405.034C147.602 405.034 147.933 404.959 148.195 404.81C148.456 404.651 148.587 404.409 148.587 404.082C148.587 403.811 148.451 403.597 148.181 403.438C147.91 403.27 147.583 403.139 147.201 403.046C146.818 402.943 146.435 402.827 146.053 402.696C145.67 402.565 145.343 402.351 145.073 402.052C144.802 401.753 144.667 401.371 144.667 400.904C144.667 400.297 144.9 399.798 145.367 399.406C145.843 399.014 146.435 398.818 147.145 398.818C147.714 398.818 148.218 398.949 148.657 399.21C149.105 399.462 149.441 399.817 149.665 400.274L148.643 400.848C148.391 400.251 147.891 399.952 147.145 399.952C146.799 399.952 146.505 400.036 146.263 400.204C146.02 400.363 145.899 400.591 145.899 400.89ZM156.023 399H157.241V406H156.023V404.992C155.528 405.785 154.772 406.182 153.755 406.182C152.933 406.182 152.275 405.925 151.781 405.412C151.286 404.889 151.039 404.185 151.039 403.298V399H152.257V403.228C152.257 403.797 152.411 404.241 152.719 404.558C153.027 404.866 153.451 405.02 153.993 405.02C154.599 405.02 155.089 404.833 155.463 404.46C155.836 404.077 156.023 403.494 156.023 402.71V399ZM162.959 398.818C163.939 398.818 164.774 399.177 165.465 399.896C166.156 400.605 166.501 401.473 166.501 402.5C166.501 403.527 166.156 404.399 165.465 405.118C164.774 405.827 163.939 406.182 162.959 406.182C161.802 406.182 160.92 405.72 160.313 404.796V408.8H159.095V399H160.313V400.204C160.92 399.28 161.802 398.818 162.959 398.818ZM162.805 405.006C163.505 405.006 164.093 404.768 164.569 404.292C165.045 403.807 165.283 403.209 165.283 402.5C165.283 401.791 165.045 401.198 164.569 400.722C164.093 400.237 163.505 399.994 162.805 399.994C162.096 399.994 161.503 400.237 161.027 400.722C160.551 401.198 160.313 401.791 160.313 402.5C160.313 403.209 160.551 403.807 161.027 404.292C161.503 404.768 162.096 405.006 162.805 405.006ZM171.818 398.818C172.798 398.818 173.634 399.177 174.324 399.896C175.015 400.605 175.36 401.473 175.36 402.5C175.36 403.527 175.015 404.399 174.324 405.118C173.634 405.827 172.798 406.182 171.818 406.182C170.661 406.182 169.779 405.72 169.172 404.796V408.8H167.954V399H169.172V400.204C169.779 399.28 170.661 398.818 171.818 398.818ZM171.664 405.006C172.364 405.006 172.952 404.768 173.428 404.292C173.904 403.807 174.142 403.209 174.142 402.5C174.142 401.791 173.904 401.198 173.428 400.722C172.952 400.237 172.364 399.994 171.664 399.994C170.955 399.994 170.362 400.237 169.886 400.722C169.41 401.198 169.172 401.791 169.172 402.5C169.172 403.209 169.41 403.807 169.886 404.292C170.362 404.768 170.955 405.006 171.664 405.006ZM182.722 405.118C182.003 405.827 181.13 406.182 180.104 406.182C179.077 406.182 178.204 405.827 177.486 405.118C176.776 404.409 176.422 403.536 176.422 402.5C176.422 401.464 176.776 400.591 177.486 399.882C178.204 399.173 179.077 398.818 180.104 398.818C181.13 398.818 182.003 399.173 182.722 399.882C183.44 400.591 183.8 401.464 183.8 402.5C183.8 403.536 183.44 404.409 182.722 405.118ZM180.104 404.992C180.804 404.992 181.392 404.754 181.868 404.278C182.344 403.802 182.582 403.209 182.582 402.5C182.582 401.791 182.344 401.198 181.868 400.722C181.392 400.246 180.804 400.008 180.104 400.008C179.413 400.008 178.83 400.246 178.354 400.722C177.878 401.198 177.64 401.791 177.64 402.5C177.64 403.209 177.878 403.802 178.354 404.278C178.83 404.754 179.413 404.992 180.104 404.992ZM186.454 400.176C186.855 399.308 187.583 398.874 188.638 398.874V400.148C188.04 400.12 187.527 400.279 187.098 400.624C186.668 400.969 186.454 401.525 186.454 402.29V406H185.236V399H186.454V400.176ZM193.801 400.176H191.939V403.97C191.939 404.315 192.005 404.563 192.135 404.712C192.275 404.852 192.485 404.927 192.765 404.936C193.045 404.936 193.391 404.927 193.801 404.908V406C192.737 406.14 191.958 406.056 191.463 405.748C190.969 405.431 190.721 404.838 190.721 403.97V400.176H189.335V399H190.721V397.404L191.939 397.04V399H193.801V400.176ZM195.742 403.06C195.863 403.685 196.148 404.171 196.596 404.516C197.053 404.861 197.613 405.034 198.276 405.034C199.2 405.034 199.872 404.693 200.292 404.012L201.328 404.6C200.647 405.655 199.62 406.182 198.248 406.182C197.137 406.182 196.232 405.837 195.532 405.146C194.841 404.446 194.496 403.564 194.496 402.5C194.496 401.445 194.837 400.568 195.518 399.868C196.199 399.168 197.081 398.818 198.164 398.818C199.191 398.818 200.026 399.182 200.67 399.91C201.323 400.629 201.65 401.497 201.65 402.514C201.65 402.691 201.636 402.873 201.608 403.06H195.742ZM198.164 399.966C197.511 399.966 196.969 400.153 196.54 400.526C196.111 400.89 195.845 401.38 195.742 401.996H200.418C200.315 401.333 200.054 400.829 199.634 400.484C199.214 400.139 198.724 399.966 198.164 399.966ZM208.832 396.2H210.05V406H208.832V404.796C208.226 405.72 207.344 406.182 206.186 406.182C205.206 406.182 204.371 405.827 203.68 405.118C202.99 404.399 202.644 403.527 202.644 402.5C202.644 401.473 202.99 400.605 203.68 399.896C204.371 399.177 205.206 398.818 206.186 398.818C207.344 398.818 208.226 399.28 208.832 400.204V396.2ZM206.34 405.006C207.05 405.006 207.642 404.768 208.118 404.292C208.594 403.807 208.832 403.209 208.832 402.5C208.832 401.791 208.594 401.198 208.118 400.722C207.642 400.237 207.05 399.994 206.34 399.994C205.64 399.994 205.052 400.237 204.576 400.722C204.1 401.198 203.862 401.791 203.862 402.5C203.862 403.209 204.1 403.807 204.576 404.292C205.052 404.768 205.64 405.006 206.34 405.006Z" fill="black"/>
<rect x="8.2" y="4.2" width="378.6" height="454.6" rx="11.8" stroke="#005AE2" stroke-width="0.4"/>
</g>
<defs>
<filter id="filter0_d_1_244" x="0" y="0" width="395" height="471" filterUnits="userSpaceOnUse" color-interpolation-filters="sRGB">
<feFlood flood-opacity="0" result="BackgroundImageFix"/>
<feColorMatrix in="SourceAlpha" type="matrix" values="0 0 0 0 0 0 0 0 0 0 0 0 0 0 0 0 0 0 127 0" result="hardAlpha"/>
<feOffset dy="4"/>
<feGaussianBlur stdDeviation="4"/>
<feComposite in2="hardAlpha" operator="out"/>
<feColorMatrix type="matrix" values="0 0 0 0 0 0 0 0 0 0 0 0 0 0 0 0 0 0 0.05 0"/>
<feBlend mode="normal" in2="BackgroundImageFix" result="effect1_dropShadow_1_244"/>
<feBlend mode="normal" in="SourceGraphic" in2="effect1_dropShadow_1_244" result="shape"/>
</filter>
<clipPath id="clip0_1_244">
<rect width="16" height="16" fill="white" transform="translate(95 202)"/>
</clipPath>
<clipPath id="clip1_1_244">
<rect width="16" height="16" fill="white" transform="translate(95 250)"/>
</clipPath>
<clipPath id="clip2_1_244">
<rect width="16" height="16" fill="white" transform="translate(95 298)"/>
</clipPath>
<clipPath id="clip3_1_244">
<rect width="16" height="16" fill="white" transform="translate(95 346)"/>
</clipPath>
<clipPath id="clip4_1_244">
<rect width="16" height="16" fill="white" transform="translate(95 394)"/>
</clipPath>
</defs>
</svg>
